{
.appVersion = "922";
classes = (
{
automatic = 1;

glyphs = (
{
glyphname = A;
lastChange = "2016-09-21 09:42:29 +0000";
layers = (
{
anchors = (
{
name = bottom;
position = "{388, 0}";
},
{
name = ogonek;
position = "{728, 10}";
},
{
name = top;
position = "{387, 728}";
}
);
layerId = "440A02D1-6D9B-498A-89D0-C24C9D9BC992";
paths = (
{
closed = 1;
nodes = (
"409 600 LINE",
"370 600 LINE",
"628 0 LINE",
"788 0 LINE",
"454 728 LINE",
"323 728 LINE",
"-11 0 LINE",
"152 0 LINE"
);
},
{
closed = 1;
nodes = (
"627 160 LINE",
"566 284 LINE",
"201 284 LINE",
"140 160 LINE"
);
}
);
width = 777;
},
{
anchors = (
{
name = bottom;
position = "{371, 0}";
},
{
name = ogonek;
position = "{705, 10}";
},
{
name = top;
position = "{371, 728}";
}
);
layerId = "E86C9AF2-1279-4BB3-9660-79C369E244F4";
paths = (
{
closed = 1;
nodes = (
"384 693 LINE",
"357 693 LINE",
"655 0 LINE",
"711 0 LINE",
"396 728 LINE",
"345 728 LINE",
"31 0 LINE",
"87 0 LINE"
);
},
{
closed = 1;
nodes = (
"584 198 LINE",
"567 246 LINE",
"177 246 LINE",
"160 198 LINE"
);
}
);
width = 741;
}
);
leftKerningGroup = A;
rightKerningGroup = A;
unicode = 0041;
userData = {
anchors = (
);
b = {
};
com.typemytype.robofont.layerData = {
b = {
anchors = (
);
components = (
);
contours = (
{
points = (
{
segmentType = line;
smooth = 0;
x = 403;
y = 502;
},
{
segmentType = line;
smooth = 0;
x = 703;
y = 1275;
},
{
segmentType = line;
smooth = 0;
x = 705;
y = 1275;
},
{
segmentType = line;
smooth = 0;
x = 1004;
y = 502;
}
);
},
{
points = (
{
segmentType = curve;
smooth = 1;
x = 150;
y = 0;
},
{
smooth = 0;
x = 181;
y = 0;
},
{
smooth = 0;
x = 214;
y = 15;
},
{
segmentType = curve;
smooth = 1;
x = 229;
y = 53;
},
{
segmentType = line;
smooth = 0;
x = 356;
y = 373;
},
{
segmentType = line;
smooth = 0;
x = 1051;
y = 373;
},
{
segmentType = line;
smooth = 1;
x = 1179;
y = 53;
},
{
smooth = 0;
x = 1193;
y = 17;
},
{
smooth = 0;
x = 1228;
y = 0;
},
{
segmentType = curve;
smooth = 1;
x = 1260;
y = 0;
},
{
smooth = 0;
x = 1306;
y = 0;
},
{
smooth = 0;
x = 1354;
y = 31;
},
{
segmentType = curve;
smooth = 1;
x = 1354;
y = 80;
},
{
smooth = 0;
x = 1354;
y = 87;
},
{
smooth = 0;
x = 1352;
y = 97;
},
{
segmentType = curve;
smooth = 0;
x = 1349;
y = 108;
},
{
segmentType = line;
smooth = 1;
x = 871;
y = 1288;
},
{
smooth = 0;
x = 817;
y = 1420;
},
{
smooth = 0;
x = 777;
y = 1430;
},
{
segmentType = curve;
smooth = 1;
x = 710;
y = 1430;
},
{
smooth = 0;
x = 644;
y = 1430;
},
{
smooth = 0;
x = 596;
y = 1413;
},
{
segmentType = curve;
smooth = 1;
x = 542;
y = 1280;
},
{
segmentType = line;
smooth = 1;
x = 66;
y = 108;
},
{
smooth = 0;
x = 62;
y = 97;
},
{
smooth = 0;
x = 60;
y = 87;
},
{
segmentType = curve;
smooth = 1;
x = 60;
y = 78;
},
{
smooth = 0;
x = 60;
y = 32;
},
{
smooth = 0;
x = 106;
y = 0;
}
);
}
);
lib = {
};
name = A;
unicodes = (
);
width = 1414;
};
};
components = (
);
contours = {
};
lib = {
};
name = A;
points = {
};
segmentType = line;
unicodes = (
);
width = 1445;
x = 718;
y = 1232;
};
},
{
glyphname = Aogonek;
lastChange = "2016-09-21 09:42:29 +0000";
layers = (
{
layerId = "440A02D1-6D9B-498A-89D0-C24C9D9BC992";
paths = (
{
closed = 1;
nodes = (
"627 160 LINE",
"566 284 LINE",
"201 284 LINE",
"140 160 LINE"
);
},
{
closed = 1;
nodes = (
"756 -118 OFFCURVE",
"737 -122 OFFCURVE",
"719 -122 CURVE SMOOTH",
"680 -122 OFFCURVE",
"658 -103 OFFCURVE",
"658 -67 CURVE SMOOTH",
"658 -28 OFFCURVE",
"688 0 OFFCURVE",
"736 0 CURVE SMOOTH",
"788 0 LINE",
"454 728 LINE",
"323 728 LINE",
"-11 0 LINE",
"152 0 LINE",
"409 600 LINE",
"370 600 LINE",
"628 0 LINE",
"650 34 LINE",
"590 11 OFFCURVE",
"558 -36 OFFCURVE",
"558 -90 CURVE SMOOTH",
"558 -159 OFFCURVE",
"616 -204 OFFCURVE",
"689 -204 CURVE SMOOTH",
"726 -204 OFFCURVE",
"762 -196 OFFCURVE",
"793 -183 CURVE",
"776 -109 LINE"
);
}
);
width = 777;
},
{
layerId = "E86C9AF2-1279-4BB3-9660-79C369E244F4";
paths = (
{
closed = 1;
nodes = (
"584 198 LINE",
"567 246 LINE",
"177 246 LINE",
"160 198 LINE"
);
},
{
closed = 1;
nodes = (
"718 -148 OFFCURVE",
"695 -154 OFFCURVE",
"679 -154 CURVE SMOOTH",
"637 -154 OFFCURVE",
"608 -130 OFFCURVE",
"608 -85 CURVE SMOOTH",
"608 -39 OFFCURVE",
"637 0 OFFCURVE",
"704 0 CURVE SMOOTH",
"711 0 LINE",
"396 728 LINE",
"345 728 LINE",
"31 0 LINE",
"87 0 LINE",
"384 693 LINE",
"357 693 LINE",
"655 0 LINE",
"679 39 LINE",
"599 22 OFFCURVE",
"558 -29 OFFCURVE",
"558 -91 CURVE SMOOTH",
"558 -153 OFFCURVE",
"604 -197 OFFCURVE",
"675 -197 CURVE SMOOTH",
"709 -197 OFFCURVE",
"738 -187 OFFCURVE",
"756 -174 CURVE",
"740 -134 LINE"
);
}
);
width = 741;
}
);
leftKerningGroup = A;
leftMetricsKey = A;
widthMetricsKey = A;
rightKerningGroup = A;
unicode = 0104;
},
{
glyphname = Aring;
lastChange = "2016-09-21 09:42:29 +0000";
layers = (
{
layerId = "440A02D1-6D9B-498A-89D0-C24C9D9BC992";
paths = (
{
closed = 1;
nodes = (
"451 692 OFFCURVE",
"502 741 OFFCURVE",
"502 804 CURVE SMOOTH",
"502 866 OFFCURVE",
"451 914 OFFCURVE",
"388 914 CURVE SMOOTH",
"326 914 OFFCURVE",
"276 866 OFFCURVE",
"276 804 CURVE SMOOTH",
"276 741 OFFCURVE",
"326 692 OFFCURVE",
"388 692 CURVE SMOOTH"
);
},
{
closed = 1;
nodes = (
"363 756 OFFCURVE",
"344 778 OFFCURVE",
"344 804 CURVE SMOOTH",
"344 829 OFFCURVE",
"363 850 OFFCURVE",
"388 850 CURVE SMOOTH",
"414 850 OFFCURVE",
"434 829 OFFCURVE",
"434 804 CURVE SMOOTH",
"434 778 OFFCURVE",
"414 756 OFFCURVE",
"388 756 CURVE SMOOTH"
);
},
{
closed = 1;
nodes = (
"409 600 LINE",
"370 600 LINE",
"628 0 LINE",
"788 0 LINE",
"454 728 LINE",
"323 728 LINE",
"-11 0 LINE",
"152 0 LINE"
);
},
{
closed = 1;
nodes = (
"627 160 LINE",
"566 284 LINE",
"201 284 LINE",
"140 160 LINE"
);
}
);
width = 777;
},
{
layerId = "E86C9AF2-1279-4BB3-9660-79C369E244F4";
paths = (
{
closed = 1;
nodes = (
"427 697 OFFCURVE",
"471 741 OFFCURVE",
"471 796 CURVE SMOOTH",
"471 852 OFFCURVE",
"427 896 OFFCURVE",
"371 896 CURVE SMOOTH",
"315 896 OFFCURVE",
"270 852 OFFCURVE",
"270 796 CURVE SMOOTH",
"270 741 OFFCURVE",
"315 697 OFFCURVE",
"371 697 CURVE SMOOTH"
);
},
{
closed = 1;
nodes = (
"341 743 OFFCURVE",
"319 766 OFFCURVE",
"319 796 CURVE SMOOTH",
"319 826 OFFCURVE",
"341 850 OFFCURVE",
"371 850 CURVE SMOOTH",
"401 850 OFFCURVE",
"422 826 OFFCURVE",
"422 796 CURVE SMOOTH",
"422 766 OFFCURVE",
"401 743 OFFCURVE",
"371 743 CURVE SMOOTH"
);
},
{
closed = 1;
nodes = (
"384 693 LINE",
"357 693 LINE",
"655 0 LINE",
"711 0 LINE",
"396 728 LINE",
"345 728 LINE",
"31 0 LINE",
"87 0 LINE"
);
},
{
closed = 1;
nodes = (
"584 198 LINE",
"567 246 LINE",
"177 246 LINE",
"160 198 LINE"
);
}
);
width = 741;
}
);
leftKerningGroup = A;
leftMetricsKey = A;
widthMetricsKey = A;
rightKerningGroup = A;
unicode = 00C5;
},
{
glyphname = Aringacute;
lastChange = "2016-09-21 09:42:29 +0000";
layers = (
{
layerId = "440A02D1-6D9B-498A-89D0-C24C9D9BC992";
paths = (
{
closed = 1;
nodes = (
"152 0 LINE",
"409 600 LINE",
"370 600 LINE",
"628 0 LINE",
"788 0 LINE",
"454 728 LINE",
"323 728 LINE",
"-11 0 LINE"
);
},
{
closed = 1;
nodes = (
"627 160 LINE",
"566 284 LINE",
"201 284 LINE",
"140 160 LINE"
);
},
{
closed = 1;
nodes = (
"451 692 OFFCURVE",
"502 741 OFFCURVE",
"502 804 CURVE SMOOTH",
"502 866 OFFCURVE",
"451 914 OFFCURVE",
"388 914 CURVE SMOOTH",
"326 914 OFFCURVE",
"276 866 OFFCURVE",
"276 804 CURVE SMOOTH",
"276 741 OFFCURVE",
"326 692 OFFCURVE",
"388 692 CURVE SMOOTH"
);
},
{
closed = 1;
nodes = (
"363 756 OFFCURVE",
"344 778 OFFCURVE",
"344 804 CURVE SMOOTH",
"344 829 OFFCURVE",
"363 850 OFFCURVE",
"388 850 CURVE SMOOTH",
"414 850 OFFCURVE",
"434 829 OFFCURVE",
"434 804 CURVE SMOOTH",
"434 778 OFFCURVE",
"414 756 OFFCURVE",
"388 756 CURVE SMOOTH"
);
},
{
closed = 1;
nodes = (
"648 977 LINE",
"502 977 LINE",
"420 886 LINE",
"484 841 LINE"
);
}
);
width = 777;
},
{
layerId = "E86C9AF2-1279-4BB3-9660-79C369E244F4";
paths = (
{
closed = 1;
nodes = (
"87 0 LINE",
"384 693 LINE",
"357 693 LINE",
"655 0 LINE",
"711 0 LINE",
"396 728 LINE",
"345 728 LINE",
"31 0 LINE"
);
},
{
closed = 1;
nodes = (
"584 198 LINE",
"567 246 LINE",
"177 246 LINE",
"160 198 LINE"
);
},
{
closed = 1;
nodes = (
"427 697 OFFCURVE",
"471 741 OFFCURVE",
"471 796 CURVE SMOOTH",
"471 852 OFFCURVE",
"427 896 OFFCURVE",
"371 896 CURVE SMOOTH",
"315 896 OFFCURVE",
"270 852 OFFCURVE",
"270 796 CURVE SMOOTH",
"270 741 OFFCURVE",
"315 697 OFFCURVE",
"371 697 CURVE SMOOTH"
);
},
{
closed = 1;
nodes = (
"341 743 OFFCURVE",
"319 766 OFFCURVE",
"319 796 CURVE SMOOTH",
"319 826 OFFCURVE",
"341 850 OFFCURVE",
"371 850 CURVE SMOOTH",
"401 850 OFFCURVE",
"422 826 OFFCURVE",
"422 796 CURVE SMOOTH",
"422 766 OFFCURVE",
"401 743 OFFCURVE",
"371 743 CURVE SMOOTH"
);
},
{
closed = 1;
nodes = (
"590 970 LINE",
"515 970 LINE",
"411 863 LINE",
"444 845 LINE"
);
}
);
width = 741;
}
);
leftKerningGroup = A;
leftMetricsKey = A;
widthMetricsKey = A;
rightKerningGroup = A;
unicode = 01FA;
},
{
glyphname = AE;
lastChange = "2016-09-21 09:42:29 +0000";
layers = (
{
anchors = (
{
name = bottom;
position = "{522, 0}";
},
{
name = top;
position = "{522, 728}";
}
);
layerId = "440A02D1-6D9B-498A-89D0-C24C9D9BC992";
paths = (
{
closed = 1;
nodes = (
"144 0 LINE",
"513 623 LINE",
"481 602 LINE",
"996 602 LINE",
"996 728 LINE",
"427 728 LINE",
"-32 0 LINE"
);
},
{
closed = 1;
nodes = (
"604 160 LINE",
"568 284 LINE",
"204 284 LINE",
"140 160 LINE"
);
},
{
closed = 1;
nodes = (
"996 0 LINE",
"996 126 LINE",
"699 126 LINE",
"662 656 LINE",
"517 656 LINE",
"562 0 LINE"
);
},
{
closed = 1;
nodes = (
"975 307 LINE",
"975 433 LINE",
"586 433 LINE",
"586 307 LINE"
);
}
);
width = 1034;
},
{
anchors = (
{
name = bottom;
position = "{513, 0}";
},
{
name = top;
position = "{512, 728}";
}
);
layerId = "E86C9AF2-1279-4BB3-9660-79C369E244F4";
paths = (
{
closed = 1;
nodes = (
"68 0 LINE",
"475 688 LINE",
"450 679 LINE",
"964 679 LINE",
"964 728 LINE",
"446 728 LINE",
"10 0 LINE"
);
},
{
closed = 1;
nodes = (
"588 198 LINE",
"578 246 LINE",
"166 246 LINE",
"151 198 LINE"
);
},
{
closed = 1;
nodes = (
"964 0 LINE",
"964 50 LINE",
"619 50 LINE",
"557 704 LINE",
"509 704 LINE",
"575 0 LINE"
);
},
{
closed = 1;
nodes = (
"943 346 LINE",
"943 394 LINE",
"576 394 LINE",
"576 346 LINE"
);
}
);
width = 1021;
}
);
leftKerningGroup = A;
rightKerningGroup = E;
rightMetricsKey = E;
unicode = 00C6;
userData = {
com.typemytype.robofont.layerData = {
b = {
anchors = (
);
components = (
);
contours = (
);
lib = {
};
name = AE;
unicodes = (
);
width = 1976;
};
};
};
},
{
glyphname = B;
lastChange = "2016-09-21 09:42:29 +0000";
layers = (
{
anchors = (
{
name = bottom;
position = "{361, 0}";
},
{
name = top;
position = "{361, 728}";
}
);
layerId = "440A02D1-6D9B-498A-89D0-C24C9D9BC992";
paths = (
{
closed = 1;
nodes = (
"419 0 LINE SMOOTH",
"576 0 OFFCURVE",
"674 76 OFFCURVE",
"674 199 CURVE SMOOTH",
"674 293 OFFCURVE",
"621 359 OFFCURVE",
"527 380 CURVE",
"527 372 LINE",
"607 396 OFFCURVE",
"655 459 OFFCURVE",
"655 539 CURVE SMOOTH",
"655 656 OFFCURVE",
"560 728 OFFCURVE",
"409 728 CURVE SMOOTH",
"72 728 LINE",
"72 0 LINE"
);
},
{
closed = 1;
nodes = (
"230 308 LINE",
"400 308 LINE SMOOTH",
"485 308 OFFCURVE",
"522 280 OFFCURVE",
"522 215 CURVE SMOOTH",
"522 152 OFFCURVE",
"485 124 OFFCURVE",
"400 124 CURVE SMOOTH",
"230 124 LINE"
);
},
{
closed = 1;
nodes = (
"230 604 LINE",
"381 604 LINE SMOOTH",
"464 604 OFFCURVE",
"502 576 OFFCURVE",
"502 518 CURVE SMOOTH",
"502 460 OFFCURVE",
"464 433 OFFCURVE",
"381 433 CURVE SMOOTH",
"230 433 LINE"
);
}
);
width = 712;
},
{
anchors = (
{
name = bottom;
position = "{349, 0}";
},
{
name = top;
position = "{348, 728}";
}
);
layerId = "E86C9AF2-1279-4BB3-9660-79C369E244F4";
paths = (
{
closed = 1;
nodes = (
"382 0 LINE SMOOTH",
"534 0 OFFCURVE",
"620 68 OFFCURVE",
"620 197 CURVE SMOOTH",
"620 294 OFFCURVE",
"565 359 OFFCURVE",
"473 376 CURVE",
"473 368 LINE",
"554 393 OFFCURVE",
"603 452 OFFCURVE",
"603 537 CURVE SMOOTH",
"603 661 OFFCURVE",
"519 728 OFFCURVE",
"371 728 CURVE SMOOTH",
"96 728 LINE",
"96 0 LINE"
);
},
{
closed = 1;
nodes = (
"150 346 LINE",
"380 346 LINE SMOOTH",
"503 346 OFFCURVE",
"565 293 OFFCURVE",
"565 194 CURVE SMOOTH",
"565 95 OFFCURVE",
"505 49 OFFCURVE",
"380 49 CURVE SMOOTH",
"150 49 LINE"
);
},
{
closed = 1;
nodes = (
"150 680 LINE",
"365 680 LINE SMOOTH",
"488 680 OFFCURVE",
"548 633 OFFCURVE",
"548 540 CURVE SMOOTH",
"548 446 OFFCURVE",
"484 394 OFFCURVE",
"365 394 CURVE SMOOTH",
"150 394 LINE"
);
}
);
width = 690;
}
);
leftKerningGroup = H;
leftMetricsKey = H;
rightKerningGroup = B;
unicode = 0042;
userData = {
anchors = (
);
b = {
};
com.typemytype.robofont.layerData = {
b = {
anchors = (
);
components = (
);
contours = (
{
points = (
{
segmentType = curve;
smooth = 1;
x = 266;
y = 0;
},
{
segmentType = line;
smooth = 1;
x = 1035;
y = 0;
},
{
smooth = 0;
x = 1084;
y = 0;
},
{
smooth = 0;
x = 1108;
y = 36;
},
{
segmentType = curve;
smooth = 1;
x = 1108;
y = 73;
},
{
smooth = 0;
x = 1108;
y = 109;
},
{
smooth = 0;
x = 1084;
y = 145;
},
{
segmentType = curve;
smooth = 1;
x = 1035;
y = 145;
},
{
segmentType = line;
smooth = 0;
x = 353;
y = 145;
},
{
segmentType = line;
smooth = 0;
x = 353;
y = 662;
},
{
segmentType = line;
smooth = 1;
x = 975;
y = 662;
},
{
smooth = 0;
x = 1024;
y = 662;
},
{
smooth = 0;
x = 1049;
y = 698;
},
{
segmentType = curve;
smooth = 1;
x = 1049;
y = 734;
},
{
smooth = 0;
x = 1049;
y = 770;
},
{
smooth = 0;
x = 1026;
y = 806;
},
{
segmentType = curve;
smooth = 1;
x = 975;
y = 806;
},
{
segmentType = line;
smooth = 0;
x = 353;
y = 806;
},
{
segmentType = line;
smooth = 0;
x = 353;
y = 1281;
},
{
segmentType = line;
smooth = 1;
x = 1007;
y = 1281;
},
{
smooth = 0;
x = 1056;
y = 1281;
},
{
smooth = 0;
x = 1080;
y = 1317;
},
{
segmentType = curve;
smooth = 1;
x = 1080;
y = 1354;
},
{
smooth = 0;
x = 1080;
y = 1390;
},
{
smooth = 0;
x = 1056;
y = 1426;
},
{
segmentType = curve;
smooth = 1;
x = 1007;
y = 1426;
},
{
segmentType = line;
smooth = 1;
x = 261;
y = 1426;
},
{
smooth = 0;
x = 213;
y = 1426;
},
{
smooth = 0;
x = 178;
y = 1383;
},
{
segmentType = curve;
smooth = 1;
x = 178;
y = 1340;
},
{
segmentType = line;
smooth = 1;
x = 178;
y = 86;
},
{
smooth = 0;
x = 178;
y = 41;
},
{
smooth = 0;
x = 222;
y = 0;
}
);
}
);
lib = {
};
name = B;
unicodes = (
);
width = 1292;
};
};
components = (
);
contours = {
};
lib = {
};
name = B;
points = {
};
segmentType = curve;
unicodes = (
);
width = 1395;
x = 676;
y = 1260;
};
},
{
glyphname = C;
lastChange = "2016-09-21 09:42:29 +0000";
layers = (
{
anchors = (
{
name = bottom;
position = "{408, 0}";
},
{
name = top;
position = "{408, 728}";
}
);
layerId = "440A02D1-6D9B-498A-89D0-C24C9D9BC992";
paths = (
{
closed = 1;
nodes = (
"510 -9 OFFCURVE",
"604 22 OFFCURVE",
"661 74 CURVE",
"609 190 LINE",
"545 142 OFFCURVE",
"484 121 OFFCURVE",
"417 121 CURVE SMOOTH",
"288 121 OFFCURVE",
"216 205 OFFCURVE",
"216 365 CURVE SMOOTH",
"216 525 OFFCURVE",
"289 607 OFFCURVE",
"417 607 CURVE SMOOTH",
"484 607 OFFCURVE",
"545 587 OFFCURVE",
"609 538 CURVE",
"661 654 LINE",
"604 707 OFFCURVE",
"510 738 OFFCURVE",
"414 738 CURVE SMOOTH",
"190 738 OFFCURVE",
"52 590 OFFCURVE",
"52 365 CURVE SMOOTH",
"52 139 OFFCURVE",
"190 -9 OFFCURVE",
"414 -9 CURVE SMOOTH"
);
}
);
width = 700;
},
{
anchors = (
{
name = bottom;
position = "{395, 0}";
},
{
name = top;
position = "{396, 728}";
}
);
layerId = "E86C9AF2-1279-4BB3-9660-79C369E244F4";
paths = (
{
closed = 1;
nodes = (
"496 -8 OFFCURVE",
"581 24 OFFCURVE",
"644 88 CURVE",
"619 132 LINE",
"547 67 OFFCURVE",
"481 41 OFFCURVE",
"396 41 CURVE SMOOTH",
"223 41 OFFCURVE",
"124 159 OFFCURVE",
"124 365 CURVE SMOOTH",
"124 569 OFFCURVE",
"224 687 OFFCURVE",
"396 687 CURVE SMOOTH",
"481 687 OFFCURVE",
"547 661 OFFCURVE",
"619 596 CURVE",
"644 640 LINE",
"581 705 OFFCURVE",
"496 737 OFFCURVE",
"396 737 CURVE SMOOTH",
"193 737 OFFCURVE",
"67 597 OFFCURVE",
"67 365 CURVE SMOOTH",
"67 132 OFFCURVE",
"193 -8 OFFCURVE",
"396 -8 CURVE SMOOTH"
);
}
);
width = 699;
}
);
leftKerningGroup = O;
leftMetricsKey = O;
rightKerningGroup = C;
unicode = 0043;
userData = {
anchors = (
);
b = {
};
com.typemytype.robofont.layerData = {
b = {
anchors = (
);
components = (
);
contours = (
);
lib = {
};
name = C;
unicodes = (
);
width = 1353.8900;
};
};
components = (
);
contours = (
);
lib = {
};
name = C;
unicodes = (
);
width = 1354;
};
},
{
glyphname = D;
lastChange = "2016-09-21 09:42:29 +0000";
layers = (
{
anchors = (
{
name = bottom;
position = "{394, 0}";
},
{
name = center;
position = "{394, 365}";
},
{
name = top;
position = "{394, 728}";
}
);
layerId = "440A02D1-6D9B-498A-89D0-C24C9D9BC992";
paths = (
{
closed = 1;
nodes = (
"355 0 LINE SMOOTH",
"596 0 OFFCURVE",
"738 135 OFFCURVE",
"738 365 CURVE SMOOTH",
"738 593 OFFCURVE",
"595 728 OFFCURVE",
"355 728 CURVE SMOOTH",
"72 728 LINE",
"72 0 LINE"
);
},
{
closed = 1;
nodes = (
"235 597 LINE",
"344 597 LINE SMOOTH",
"499 597 OFFCURVE",
"575 521 OFFCURVE",
"575 365 CURVE SMOOTH",
"575 209 OFFCURVE",
"499 131 OFFCURVE",
"344 131 CURVE SMOOTH",
"235 131 LINE"
);
}
);
width = 790;
},
{
anchors = (
{
name = bottom;
position = "{377, 0}";
},
{
name = center;
position = "{377, 365}";
},
{
name = top;
position = "{376, 728}";
}
);
layerId = "E86C9AF2-1279-4BB3-9660-79C369E244F4";
paths = (
{
closed = 1;
nodes = (
"325 0 LINE SMOOTH",
"555 0 OFFCURVE",
"685 131 OFFCURVE",
"685 365 CURVE SMOOTH",
"685 598 OFFCURVE",
"556 728 OFFCURVE",
"325 728 CURVE SMOOTH",
"96 728 LINE",
"96 0 LINE"
);
},
{
closed = 1;
nodes = (
"150 681 LINE",
"324 681 LINE SMOOTH",
"527 681 OFFCURVE",
"628 574 OFFCURVE",
"628 365 CURVE SMOOTH",
"628 155 OFFCURVE",
"526 48 OFFCURVE",
"324 48 CURVE SMOOTH",
"150 48 LINE"
);
}
);
width = 752;
}
);
leftKerningGroup = H;
leftMetricsKey = I;
rightKerningGroup = O;
rightMetricsKey = O;
unicode = 0044;
userData = {
anchors = (
);
b = {
};
com.typemytype.robofont.layerData = {
b = {
anchors = (
);
components = (
);
contours = (
{
points = (
{
segmentType = curve;
smooth = 1;
x = 266;
y = 0;
},
{
segmentType = line;
smooth = 1;
x = 1035;
y = 0;
},
{
smooth = 0;
x = 1084;
y = 0;
},
{
smooth = 0;
x = 1108;
y = 34;
},
{
segmentType = curve;
smooth = 1;
x = 1108;
y = 71;
},
{
smooth = 0;
x = 1108;
y = 107;
},
{
smooth = 0;
x = 1084;
y = 141;
},
{
segmentType = curve;
smooth = 1;
x = 1035;
y = 141;
},
{
segmentType = line;
smooth = 0;
x = 356;
y = 141;
},
{
segmentType = line;
smooth = 0;
x = 356;
y = 665;
},
{
segmentType = line;
smooth = 1;
x = 975;
y = 665;
},
{
smooth = 0;
x = 1024;
y = 665;
},
{
smooth = 0;
x = 1049;
y = 698;
},
{
segmentType = curve;
smooth = 1;
x = 1049;
y = 734;
},
{
smooth = 0;
x = 1049;
y = 770;
},
{
smooth = 0;
x = 1026;
y = 803;
},
{
segmentType = curve;
smooth = 1;
x = 975;
y = 803;
},
{
segmentType = line;
smooth = 0;
x = 356;
y = 803;
},
{
segmentType = line;
smooth = 0;
x = 356;
y = 1285;
},
{
segmentType = line;
smooth = 1;
x = 1007;
y = 1285;
},
{
smooth = 0;
x = 1056;
y = 1285;
},
{
smooth = 0;
x = 1080;
y = 1319;
},
{
segmentType = curve;
smooth = 1;
x = 1080;
y = 1356;
},
{
smooth = 0;
x = 1080;
y = 1392;
},
{
smooth = 0;
x = 1056;
y = 1426;
},
{
segmentType = curve;
smooth = 1;
x = 1007;
y = 1426;
},
{
segmentType = line;
smooth = 1;
x = 261;
y = 1426;
},
{
smooth = 0;
x = 213;
y = 1426;
},
{
smooth = 0;
x = 178;
y = 1383;
},
{
segmentType = curve;
smooth = 1;
x = 178;
y = 1340;
},
{
segmentType = line;
smooth = 1;
x = 178;
y = 86;
},
{
smooth = 0;
x = 178;
y = 41;
},
{
smooth = 0;
x = 222;
y = 0;
}
);
}
);
lib = {
};
name = D;
unicodes = (
);
width = 1499;
};
};
components = (
);
contours = (
);
lib = {
};
name = D;
unicodes = (
);
width = 1535;
};
},
{
glyphname = Eth;
lastChange = "2016-09-21 09:42:29 +0000";
layers = (
{
layerId = "440A02D1-6D9B-498A-89D0-C24C9D9BC992";
paths = (
{
closed = 1;
nodes = (
"457 307 LINE",
"457 430 LINE",
"15 430 LINE",
"15 307 LINE"
);
},
{
closed = 1;
nodes = (
"386 0 LINE SMOOTH",
"627 0 OFFCURVE",
"769 135 OFFCURVE",
"769 365 CURVE SMOOTH",
"769 593 OFFCURVE",
"627 728 OFFCURVE",
"386 728 CURVE SMOOTH",
"103 728 LINE",
"103 0 LINE"
);
},
{
closed = 1;
nodes = (
"266 597 LINE",
"375 597 LINE SMOOTH",
"530 597 OFFCURVE",
"606 521 OFFCURVE",
"606 365 CURVE SMOOTH",
"606 209 OFFCURVE",
"530 131 OFFCURVE",
"375 131 CURVE SMOOTH",
"266 131 LINE"
);
}
);
width = 821;
},
{
layerId = "E86C9AF2-1279-4BB3-9660-79C369E244F4";
paths = (
{
closed = 1;
nodes = (
"359 347 LINE",
"359 393 LINE",
"5 393 LINE",
"5 347 LINE"
);
},
{
closed = 1;
nodes = (
"333 0 LINE SMOOTH",
"562 0 OFFCURVE",
"692 131 OFFCURVE",
"692 365 CURVE SMOOTH",
"692 598 OFFCURVE",
"563 728 OFFCURVE",
"333 728 CURVE SMOOTH",
"103 728 LINE",
"103 0 LINE"
);
},
{
closed = 1;
nodes = (
"157 681 LINE",
"331 681 LINE SMOOTH",
"533 681 OFFCURVE",
"635 574 OFFCURVE",
"635 365 CURVE SMOOTH",
"635 155 OFFCURVE",
"532 48 OFFCURVE",
"331 48 CURVE SMOOTH",
"157 48 LINE"
);
}
);
width = 759;
}
);
leftKerningGroup = H;
rightKerningGroup = O;
rightMetricsKey = O;
unicode = 00D0;
},
{
glyphname = E;
lastChange = "2016-09-21 09:42:29 +0000";
layers = (
{
anchors = (
{
name = bottom;
position = "{342, 0}";
},
{
name = ogonek;
position = "{553, 10}";
},
{
name = top;
position = "{342, 728}";
},
{
name = topleft;
position = "{22, 728}";
}
);
layerId = "440A02D1-6D9B-498A-89D0-C24C9D9BC992";
paths = (
{
closed = 1;
nodes = (
"575 0 LINE",
"575 126 LINE",
"230 126 LINE",
"230 307 LINE",
"555 307 LINE",
"555 433 LINE",
"230 433 LINE",
"230 602 LINE",
"575 602 LINE",
"575 728 LINE",
"72 728 LINE",
"72 0 LINE"
);
}
);
width = 613;
},
{
anchors = (
{
name = bottom;
position = "{332, 0}";
},
{
name = ogonek;
position = "{521, 10}";
},
{
name = top;
position = "{332, 728}";
},
{
name = topleft;
position = "{27, 728}";
}
);
layerId = "E86C9AF2-1279-4BB3-9660-79C369E244F4";
paths = (
{
closed = 1;
nodes = (
"540 0 LINE",
"540 49 LINE",
"150 49 LINE",
"150 346 LINE",
"520 346 LINE",
"520 394 LINE",
"150 394 LINE",
"150 681 LINE",
"540 681 LINE",
"540 728 LINE",
"96 728 LINE",
"96 0 LINE"
);
}
);
width = 597;
}
);
leftKerningGroup = H;
leftMetricsKey = H;
rightKerningGroup = E;
unicode = 0045;
userData = {
anchors = (
);
b = {
};
com.typemytype.robofont.layerData = {
b = {
anchors = (
);
components = (
);
contours = (
);
lib = {
};
name = E;
unicodes = (
);
width = 1234;
};
};
components = (
);
contours = (
);
lib = {
};
name = E;
unicodes = (
);
width = 1258;
};
},
{
glyphname = Eogonek;
lastChange = "2016-09-21 09:42:29 +0000";
layers = (
{
anchors = (
{
name = top;
position = "{342, 728}";
}
);
layerId = "440A02D1-6D9B-498A-89D0-C24C9D9BC992";
paths = (
{
closed = 1;
nodes = (
"578 -118 OFFCURVE",
"559 -122 OFFCURVE",
"541 -122 CURVE SMOOTH",
"502 -122 OFFCURVE",
"480 -103 OFFCURVE",
"480 -67 CURVE SMOOTH",
"480 -26 OFFCURVE",
"508 0 OFFCURVE",
"553 0 CURVE SMOOTH",
"575 0 LINE",
"575 126 LINE",
"230 126 LINE",
"230 307 LINE",
"555 307 LINE",
"555 433 LINE",
"230 433 LINE",
"230 602 LINE",
"575 602 LINE",
"575 728 LINE",
"72 728 LINE",
"72 0 LINE",
"467 0 LINE",
"448 21 LINE",
"403 -5 OFFCURVE",
"380 -43 OFFCURVE",
"380 -90 CURVE SMOOTH",
"380 -156 OFFCURVE",
"434 -204 OFFCURVE",
"511 -204 CURVE SMOOTH",
"549 -204 OFFCURVE",
"585 -196 OFFCURVE",
"615 -183 CURVE",
"597 -109 LINE"
);
}
);
width = 613;
},
{
anchors = (
{
name = top;
position = "{332, 728}";
}
);
layerId = "E86C9AF2-1279-4BB3-9660-79C369E244F4";
paths = (
{
closed = 1;
nodes = (
"535 -148 OFFCURVE",
"512 -154 OFFCURVE",
"496 -154 CURVE SMOOTH",
"455 -154 OFFCURVE",
"426 -130 OFFCURVE",
"426 -85 CURVE SMOOTH",
"426 -37 OFFCURVE",
"459 0 OFFCURVE",
"528 0 CURVE SMOOTH",
"540 0 LINE",
"540 49 LINE",
"150 49 LINE",
"150 346 LINE",
"520 346 LINE",
"520 394 LINE",
"150 394 LINE",
"150 681 LINE",
"540 681 LINE",
"540 728 LINE",
"96 728 LINE",
"96 0 LINE",
"463 0 LINE",
"446 20 LINE",
"400 -5 OFFCURVE",
"375 -43 OFFCURVE",
"375 -91 CURVE SMOOTH",
"375 -153 OFFCURVE",
"421 -197 OFFCURVE",
"492 -197 CURVE SMOOTH",
"526 -197 OFFCURVE",
"554 -187 OFFCURVE",
"573 -174 CURVE",
"557 -134 LINE"
);
}
);
width = 597;
}
);
leftKerningGroup = H;
leftMetricsKey = E;
widthMetricsKey = E;
rightKerningGroup = E;
unicode = 0118;
userData = {
com.typemytype.robofont.layerData = {
b = {
anchors = (
);
components = (
);
contours = (
);
lib = {
};
name = Eogonek;
unicodes = (
);
width = 1234;
};
};
};
},
{
glyphname = F;
lastChange = "2016-09-21 09:42:29 +0000";
layers = (
{
anchors = (
{
name = bottom;
position = "{326, 0}";
},
{
name = top;
position = "{298, 728}";
}
);
layerId = "440A02D1-6D9B-498A-89D0-C24C9D9BC992";
paths = (
{
closed = 1;
nodes = (
"233 0 LINE",
"233 307 LINE",
"544 307 LINE",
"544 434 LINE",
"233 434 LINE",
"233 600 LINE",
"565 600 LINE",
"565 728 LINE",
"72 728 LINE",
"72 0 LINE"
);
}
);
width = 591;
},
{
anchors = (
{
name = bottom;
position = "{316, 0}";
},
{
name = top;
position = "{294, 728}";
}
);
layerId = "E86C9AF2-1279-4BB3-9660-79C369E244F4";
paths = (
{
closed = 1;
nodes = (
"150 0 LINE",
"150 346 LINE",
"509 346 LINE",
"509 394 LINE",
"150 394 LINE",
"150 681 LINE",
"530 681 LINE",
"530 728 LINE",
"96 728 LINE",
"96 0 LINE"
);
}
);
width = 569;
}
);
leftKerningGroup = H;
leftMetricsKey = H;
rightKerningGroup = F;
unicode = 0046;
userData = {
anchors = (
);
b = {
};
com.typemytype.robofont.layerData = {
b = {
anchors = (
);
components = (
);
contours = (
{
points = (
{
segmentType = curve;
smooth = 1;
x = 266;
y = 0;
},
{
segmentType = line;
smooth = 1;
x = 1035;
y = 0;
},
{
smooth = 0;
x = 1084;
y = 0;
},
{
smooth = 0;
x = 1108;
y = 34;
},
{
segmentType = curve;
smooth = 1;
x = 1108;
y = 71;
},
{
smooth = 0;
x = 1108;
y = 107;
},
{
smooth = 0;
x = 1084;
y = 141;
},
{
segmentType = curve;
smooth = 1;
x = 1035;
y = 141;
},
{
segmentType = line;
smooth = 0;
x = 353;
y = 141;
},
{
segmentType = line;
smooth = 0;
x = 353;
y = 665;
},
{
segmentType = line;
smooth = 1;
x = 975;
y = 665;
},
{
smooth = 0;
x = 1024;
y = 665;
},
{
smooth = 0;
x = 1049;
y = 698;
},
{
segmentType = curve;
smooth = 1;
x = 1049;
y = 734;
},
{
smooth = 0;
x = 1049;
y = 770;
},
{
smooth = 0;
x = 1026;
y = 803;
},
{
segmentType = curve;
smooth = 1;
x = 975;
y = 803;
},
{
segmentType = line;
smooth = 0;
x = 353;
y = 803;
},
{
segmentType = line;
smooth = 0;
x = 353;
y = 1285;
},
{
segmentType = line;
smooth = 1;
x = 1007;
y = 1285;
},
{
smooth = 0;
x = 1056;
y = 1285;
},
{
smooth = 0;
x = 1080;
y = 1319;
},
{
segmentType = curve;
smooth = 1;
x = 1080;
y = 1356;
},
{
smooth = 0;
x = 1080;
y = 1392;
},
{
smooth = 0;
x = 1056;
y = 1426;
},
{
segmentType = curve;
smooth = 1;
x = 1007;
y = 1426;
},
{
segmentType = line;
smooth = 1;
x = 261;
y = 1426;
},
{
smooth = 0;
x = 213;
y = 1426;
},
{
smooth = 0;
x = 178;
y = 1383;
},
{
segmentType = curve;
smooth = 1;
x = 178;
y = 1340;
},
{
segmentType = line;
smooth = 1;
x = 178;
y = 86;
},
{
smooth = 0;
x = 178;
y = 41;
},
{
smooth = 0;
x = 222;
y = 0;
}
);
}
);
lib = {
};
name = F;
unicodes = (
);
width = 1142;
};
};
components = (
);
contours = (
);
lib = {
};
name = F;
unicodes = (
);
width = 1175;
};
},
{
glyphname = G;
lastChange = "2016-09-21 09:42:29 +0000";
layers = (
{
anchors = (
{
name = bottom;
position = "{428, 0}";
},
{
name = top;
position = "{420, 728}";
}
);
layerId = "440A02D1-6D9B-498A-89D0-C24C9D9BC992";
paths = (
{
closed = 1;
nodes = (
"527 -9 OFFCURVE",
"627 10 OFFCURVE",
"698 45 CURVE",
"698 403 LINE",
"411 403 LINE",
"411 289 LINE",
"554 289 LINE",
"554 89 LINE",
"589 142 LINE",
"539 124 OFFCURVE",
"486 116 OFFCURVE",
"435 116 CURVE SMOOTH",
"288 116 OFFCURVE",
"215 197 OFFCURVE",
"215 365 CURVE SMOOTH",
"215 528 OFFCURVE",
"286 608 OFFCURVE",
"426 608 CURVE SMOOTH",
"499 608 OFFCURVE",
"560 589 OFFCURVE",
"628 540 CURVE",
"680 656 LINE",
"621 708 OFFCURVE",
"525 738 OFFCURVE",
"420 738 CURVE SMOOTH",
"195 738 OFFCURVE",
"52 594 OFFCURVE",
"52 365 CURVE SMOOTH",
"52 131 OFFCURVE",
"194 -9 OFFCURVE",
"428 -9 CURVE SMOOTH"
);
}
);
width = 762;
},
{
anchors = (
{
name = bottom;
position = "{406, 0}";
},
{
name = top;
position = "{399, 728}";
}
);
layerId = "E86C9AF2-1279-4BB3-9660-79C369E244F4";
paths = (
{
closed = 1;
nodes = (
"499 -8 OFFCURVE",
"600 12 OFFCURVE",
"653 41 CURVE",
"653 370 LINE",
"407 370 LINE",
"407 322 LINE",
"603 322 LINE",
"603 41 LINE",
"618 82 LINE",
"562 57 OFFCURVE",
"484 41 OFFCURVE",
"405 41 CURVE SMOOTH",
"224 41 OFFCURVE",
"124 155 OFFCURVE",
"124 365 CURVE SMOOTH",
"124 570 OFFCURVE",
"224 687 OFFCURVE",
"398 687 CURVE SMOOTH",
"486 687 OFFCURVE",
"552 661 OFFCURVE",
"623 596 CURVE",
"647 640 LINE",
"584 705 OFFCURVE",
"500 737 OFFCURVE",
"401 737 CURVE SMOOTH",
"194 737 OFFCURVE",
"67 599 OFFCURVE",
"67 365 CURVE SMOOTH",
"67 130 OFFCURVE",
"193 -8 OFFCURVE",
"406 -8 CURVE SMOOTH"
);
}
);
width = 742;
}
);
leftKerningGroup = O;
leftMetricsKey = O;
rightKerningGroup = G;
unicode = 0047;
userData = {
anchors = (
);
b = {
};
com.typemytype.robofont.layerData = {
b = {
anchors = (
);
components = (
);
contours = (
{
points = (
{
segmentType = curve;
smooth = 1;
x = 783;
y = "-22";
},
{
smooth = 0;
x = 965;
y = "-22";
},
{
smooth = 0;
x = 1086;
y = 34;
},
{
segmentType = curve;
smooth = 1;
x = 1166;
y = 86;
},
{
smooth = 0;
x = 1270;
y = 154;
},
{
smooth = 0;
x = 1186;
y = 258;
},
{
segmentType = curve;
smooth = 1;
x = 1112;
y = 214;
},
{
smooth = 0;
x = 1024;
y = 162;
},
{
smooth = 0;
x = 939;
y = 120;
},
{
segmentType = curve;
smooth = 1;
x = 806;
y = 120;
},
{
smooth = 0;
x = 446;
y = 120;
},
{
smooth = 0;
x = 316;
y = 406;
},
{
segmentType = curve;
smooth = 1;
x = 316;
y = 706;
},
{
smooth = 0;
x = 316;
y = 1005;
},
{
smooth = 0;
x = 450;
y = 1296;
},
{
segmentType = curve;
smooth = 1;
x = 801;
y = 1296;
},
{
smooth = 0;
x = 980;
y = 1296;
},
{
smooth = 0;
x = 1053;
y = 1246;
},
{
segmentType = curve;
smooth = 1;
x = 1094;
y = 1225;
},
{
smooth = 0;
x = 1174;
y = 1184;
},
{
smooth = 0;
x = 1231;
y = 1300;
},
{
segmentType = curve;
smooth = 1;
x = 1156;
y = 1343;
},
{
smooth = 0;
x = 1106;
y = 1372;
},
{
smooth = 0;
x = 995;
y = 1438;
},
{
segmentType = curve;
smooth = 1;
x = 797;
y = 1438;
},
{
smooth = 0;
x = 359;
y = 1438;
},
{
smooth = 0;
x = 128;
y = 1093;
},
{
segmentType = curve;
smooth = 1;
x = 128;
y = 704;
},
{
smooth = 0;
x = 128;
y = 307;
},
{
smooth = 0;
x = 350;
y = "-22";
}
);
}
);
lib = {
};
name = G;
unicodes = (
);
width = 1448;
};
};
components = (
);
contours = (
);
lib = {
};
name = G;
unicodes = (
);
width = 1538;
};
},
{
glyphname = H;
lastChange = "2016-09-21 09:42:29 +0000";
layers = (
{
anchors = (
{
name = bottom;
position = "{399, 0}";
},
{
name = center;
position = "{399, 370}";
},
{
name = top;
position = "{399, 728}";
},
{
name = topleft;
position = "{22, 728}";
}
);
layerId = "440A02D1-6D9B-498A-89D0-C24C9D9BC992";
paths = (
{
closed = 1;
nodes = (
"724 0 LINE",
"724 728 LINE",
"565 728 LINE",
"565 0 LINE"
);
},
{
closed = 1;
nodes = (
"231 0 LINE",
"231 728 LINE",
"72 728 LINE",
"72 0 LINE"
);
},
{
closed = 1;
nodes = (
"660 306 LINE",
"660 434 LINE",
"124 434 LINE",
"124 306 LINE"
);
}
);
width = 796;
},
{
anchors = (
{
name = bottom;
position = "{389, 0}";
},
{
name = center;
position = "{389, 370}";
},
{
name = top;
position = "{388, 728}";
},
{
name = topleft;
position = "{27, 728}";
}
);
layerId = "E86C9AF2-1279-4BB3-9660-79C369E244F4";
paths = (
{
closed = 1;
nodes = (
"681 0 LINE",
"681 728 LINE",
"627 728 LINE",
"627 0 LINE"
);
},
{
closed = 1;
nodes = (
"150 0 LINE",
"150 728 LINE",
"96 728 LINE",
"96 0 LINE"
);
},
{
closed = 1;
nodes = (
"635 346 LINE",
"635 394 LINE",
"131 394 LINE",
"131 346 LINE"
);
}
);
width = 778;
}
);
leftKerningGroup = H;
rightKerningGroup = H;
unicode = 0048;
userData = {
anchors = (
);
b = {
};
com.typemytype.robofont.layerData = {
b = {
anchors = (
);
components = (
);
contours = (
);
lib = {
};
name = H;
unicodes = (
);
width = 1464;
};
};
components = (
);
contours = (
);
lib = {
};
name = H;
unicodes = (
);
width = 1524;
};
},
{
glyphname = Hbar;
lastChange = "2016-09-21 09:42:29 +0000";
layers = (
{
layerId = "440A02D1-6D9B-498A-89D0-C24C9D9BC992";
paths = (
{
closed = 1;
nodes = (
"844 525 LINE",
"844 644 LINE",
"15 644 LINE",
"15 525 LINE"
);
},
{
closed = 1;
nodes = (
"755 0 LINE",
"755 728 LINE",
"596 728 LINE",
"596 0 LINE"
);
},
{
closed = 1;
nodes = (
"263 0 LINE",
"263 728 LINE",
"103 728 LINE",
"103 0 LINE"
);
},
{
closed = 1;
nodes = (
"691 306 LINE",
"691 434 LINE",
"155 434 LINE",
"155 306 LINE"
);
}
);
width = 859;
},
{
layerId = "E86C9AF2-1279-4BB3-9660-79C369E244F4";
paths = (
{
closed = 1;
nodes = (
"786 542 LINE",
"786 589 LINE",
"5 589 LINE",
"5 542 LINE"
);
},
{
closed = 1;
nodes = (
"688 0 LINE",
"688 728 LINE",
"634 728 LINE",
"634 0 LINE"
);
},
{
closed = 1;
nodes = (
"157 0 LINE",
"157 728 LINE",
"103 728 LINE",
"103 0 LINE"
);
},
{
closed = 1;
nodes = (
"643 346 LINE",
"643 394 LINE",
"139 394 LINE",
"139 346 LINE"
);
}
);
width = 791;
}
);
leftKerningGroup = H;
rightKerningGroup = H;
unicode = 0126;
userData = {
com.typemytype.robofont.layerData = {
b = {
anchors = (
);
components = (
);
contours = (
);
lib = {
};
name = Hbar;
unicodes = (
);
width = 1464;
};
};
};
},
{
glyphname = I;
lastChange = "2016-09-21 09:42:29 +0000";
layers = (
{
anchors = (
{
name = bottom;
position = "{153, 0}";
},
{
name = ogonek;
position = "{205, 10}";
},
{
name = top;
position = "{153, 728}";
},
{
name = topleft;
position = "{22, 728}";
}
);
layerId = "440A02D1-6D9B-498A-89D0-C24C9D9BC992";
paths = (
{
closed = 1;
nodes = (
"235 0 LINE",
"235 728 LINE",
"72 728 LINE",
"72 0 LINE"
);
}
);
width = 307;
},
{
anchors = (
{
name = bottom;
position = "{123, 0}";
},
{
name = ogonek;
position = "{148, 10}";
},
{
name = top;
position = "{123, 728}";
},
{
name = topleft;
position = "{27, 728}";
}
);
layerId = "E86C9AF2-1279-4BB3-9660-79C369E244F4";
paths = (
{
closed = 1;
nodes = (
"150 0 LINE",
"150 728 LINE",
"96 728 LINE",
"96 0 LINE"
);
}
);
width = 247;
}
);
leftKerningGroup = H;
leftMetricsKey = H;
rightKerningGroup = H;
rightMetricsKey = H;
unicode = 0049;
userData = {
anchors = (
);
b = {
};
com.typemytype.robofont.layerData = {
b = {
anchors = (
);
components = (
);
contours = (
);
lib = {
};
name = I;
unicodes = (
);
width = 592;
};
};
components = (
);
contours = (
);
lib = {
};
name = I;
unicodes = (
);
width = 637;
};
},
{
glyphname = Iogonek;
lastChange = "2016-09-21 09:42:29 +0000";
layers = (
{
layerId = "440A02D1-6D9B-498A-89D0-C24C9D9BC992";
paths = (
{
closed = 1;
nodes = (
"202 -204 OFFCURVE",
"238 -196 OFFCURVE",
"268 -183 CURVE",
"250 -109 LINE",
"230 -118 OFFCURVE",
"212 -122 OFFCURVE",
"194 -122 CURVE SMOOTH",
"155 -122 OFFCURVE",
"133 -103 OFFCURVE",
"133 -67 CURVE SMOOTH",
"133 -28 OFFCURVE",
"166 0 OFFCURVE",
"219 0 CURVE SMOOTH",
"235 0 LINE",
"235 728 LINE",
"72 728 LINE",
"72 0 LINE",
"118 0 LINE",
"131 38 LINE",
"64 12 OFFCURVE",
"33 -36 OFFCURVE",
"33 -88 CURVE SMOOTH",
"33 -159 OFFCURVE",
"90 -204 OFFCURVE",
"164 -204 CURVE SMOOTH"
);
}
);
width = 307;
},
{
layerId = "E86C9AF2-1279-4BB3-9660-79C369E244F4";
paths = (
{
closed = 1;
nodes = (
"151 -197 OFFCURVE",
"180 -187 OFFCURVE",
"199 -174 CURVE",
"183 -134 LINE",
"161 -148 OFFCURVE",
"138 -154 OFFCURVE",
"122 -154 CURVE SMOOTH",
"81 -154 OFFCURVE",
"51 -130 OFFCURVE",
"51 -85 CURVE SMOOTH",
"51 -39 OFFCURVE",
"85 0 OFFCURVE",
"147 0 CURVE SMOOTH",
"150 0 LINE",
"150 728 LINE",
"96 728 LINE",
"96 0 LINE",
"114 0 LINE",
"134 39 LINE",
"48 25 OFFCURVE",
"0 -28 OFFCURVE",
"0 -91 CURVE SMOOTH",
"0 -153 OFFCURVE",
"47 -197 OFFCURVE",
"117 -197 CURVE SMOOTH"
);
}
);
width = 247;
}
);
leftKerningGroup = H;
rightKerningGroup = H;
unicode = 012E;
},
{
glyphname = J;
lastChange = "2016-09-21 09:42:29 +0000";
layers = (
{
anchors = (
{
name = bottom;
position = "{237, 0}";
},
{
name = top;
position = "{237, 728}";
}
);
layerId = "440A02D1-6D9B-498A-89D0-C24C9D9BC992";
paths = (
{
closed = 1;
nodes = (
"243 -219 OFFCURVE",
"318 -146 OFFCURVE",
"318 44 CURVE SMOOTH",
"318 728 LINE",
"155 728 LINE",
"155 42 LINE SMOOTH",
"155 -56 OFFCURVE",
"129 -68 OFFCURVE",
"0 -53 CURVE",
"0 -183 LINE"
);
}
);
width = 390;
},
{
anchors = (
{
name = bottom;
position = "{191, 0}";
},
{
name = top;
position = "{191, 728}";
}
);
layerId = "E86C9AF2-1279-4BB3-9660-79C369E244F4";
paths = (
{
closed = 1;
nodes = (
"153 -211 OFFCURVE",
"218 -165 OFFCURVE",
"218 -3 CURVE SMOOTH",
"218 728 LINE",
"164 728 LINE",
"164 -1 LINE SMOOTH",
"164 -132 OFFCURVE",
"120 -158 OFFCURVE",
"-7 -133 CURVE",
"-7 -182 LINE"
);
}
);
width = 315;
}
);
leftKerningGroup = J;
rightKerningGroup = J;
rightMetricsKey = H;
unicode = 004A;
userData = {
anchors = (
);
b = {
};
com.typemytype.robofont.layerData = {
b = {
anchors = (
);
components = (
);
contours = (
);
lib = {
};
name = J;
unicodes = (
);
width = 1003;
};
};
components = (
);
contours = (
);
lib = {
};
name = J;
unicodes = (
);
width = 1126;
};
},
{
glyphname = K;
lastChange = "2016-09-21 09:42:29 +0000";
layers = (
{
anchors = (
{
name = bottom;
position = "{353, 0}";
},
{
name = top;
position = "{353, 728}";
}
);
layerId = "440A02D1-6D9B-498A-89D0-C24C9D9BC992";
paths = (
{
closed = 1;
nodes = (
"744 0 LINE",
"359 417 LINE",
"347 333 LINE",
"730 728 LINE",
"539 728 LINE",
"199 372 LINE",
"550 0 LINE"
);
},
{
closed = 1;
nodes = (
"235 0 LINE",
"235 728 LINE",
"72 728 LINE",
"72 0 LINE"
);
}
);
width = 702;
},
{
anchors = (
{
name = bottom;
position = "{315, 0}";
},
{
name = top;
position = "{314, 728}";
}
);
layerId = "E86C9AF2-1279-4BB3-9660-79C369E244F4";
paths = (
{
closed = 1;
nodes = (
"625 0 LINE",
"182 392 LINE",
"180 350 LINE",
"602 728 LINE",
"529 728 LINE",
"128 369 LINE",
"550 0 LINE"
);
},
{
closed = 1;
nodes = (
"150 0 LINE",
"150 728 LINE",
"96 728 LINE",
"96 0 LINE"
);
}
);
width = 627;
}
);
leftKerningGroup = H;
leftMetricsKey = H;
rightKerningGroup = K;
unicode = 004B;
userData = {
anchors = (
);
b = {
};
com.typemytype.robofont.layerData = {
b = {
anchors = (
);
components = (
);
contours = (
);
lib = {
};
name = K;
unicodes = (
);
width = 1210;
};
};
components = (
);
contours = (
);
lib = {
};
name = K;
unicodes = (
);
width = 1329;
};
},
{
glyphname = L;
lastChange = "2016-09-21 09:42:29 +0000";
layers = (
{
anchors = (
{
name = bottom;
position = "{323, 0}";
},
{
name = center;
position = "{405, 365}";
},
{
name = top;
position = "{153, 728}";
},
{
name = topright;
position = "{328, 728}";
}
);
layerId = "440A02D1-6D9B-498A-89D0-C24C9D9BC992";
paths = (
{
closed = 1;
nodes = (
"559 0 LINE",
"559 132 LINE",
"235 132 LINE",
"235 728 LINE",
"72 728 LINE",
"72 0 LINE"
);
}
);
width = 583;
},
{
anchors = (
{
name = bottom;
position = "{317, 0}";
},
{
name = center;
position = "{344, 365}";
},
{
name = top;
position = "{123, 728}";
},
{
name = topright;
position = "{243, 728}";
}
);
layerId = "E86C9AF2-1279-4BB3-9660-79C369E244F4";
paths = (
{
closed = 1;
nodes = (
"531 0 LINE",
"531 48 LINE",
"150 48 LINE",
"150 728 LINE",
"96 728 LINE",
"96 0 LINE"
);
}
);
width = 548;
}
);
leftKerningGroup = H;
leftMetricsKey = H;
rightKerningGroup = L;
unicode = 004C;
userData = {
anchors = (
);
b = {
};
com.typemytype.robofont.layerData = {
b = {
anchors = (
);
components = (
);
contours = (
{
points = (
{
segmentType = curve;
smooth = 1;
x = 266;
y = 0;
},
{
segmentType = line;
smooth = 1;
x = 1035;
y = 0;
},
{
smooth = 0;
x = 1084;
y = 0;
},
{
smooth = 0;
x = 1108;
y = 34;
},
{
segmentType = curve;
smooth = 1;
x = 1108;
y = 71;
},
{
smooth = 0;
x = 1108;
y = 107;
},
{
smooth = 0;
x = 1084;
y = 141;
},
{
segmentType = curve;
smooth = 1;
x = 1035;
y = 141;
},
{
segmentType = line;
smooth = 0;
x = 356;
y = 141;
},
{
segmentType = line;
smooth = 0;
x = 356;
y = 665;
},
{
segmentType = line;
smooth = 1;
x = 975;
y = 665;
},
{
smooth = 0;
x = 1024;
y = 665;
},
{
smooth = 0;
x = 1049;
y = 698;
},
{
segmentType = curve;
smooth = 1;
x = 1049;
y = 734;
},
{
smooth = 0;
x = 1049;
y = 770;
},
{
smooth = 0;
x = 1026;
y = 803;
},
{
segmentType = curve;
smooth = 1;
x = 975;
y = 803;
},
{
segmentType = line;
smooth = 0;
x = 356;
y = 803;
},
{
segmentType = line;
smooth = 0;
x = 356;
y = 1285;
},
{
segmentType = line;
smooth = 1;
x = 1007;
y = 1285;
},
{
smooth = 0;
x = 1056;
y = 1285;
},
{
smooth = 0;
x = 1080;
y = 1319;
},
{
segmentType = curve;
smooth = 1;
x = 1080;
y = 1356;
},
{
smooth = 0;
x = 1080;
y = 1392;
},
{
smooth = 0;
x = 1056;
y = 1426;
},
{
segmentType = curve;
smooth = 1;
x = 1007;
y = 1426;
},
{
segmentType = line;
smooth = 1;
x = 261;
y = 1426;
},
{
smooth = 0;
x = 213;
y = 1426;
},
{
smooth = 0;
x = 178;
y = 1383;
},
{
segmentType = curve;
smooth = 1;
x = 178;
y = 1340;
},
{
segmentType = line;
smooth = 1;
x = 178;
y = 86;
},
{
smooth = 0;
x = 178;
y = 41;
},
{
smooth = 0;
x = 222;
y = 0;
}
);
}
);
lib = {
};
name = L;
unicodes = (
);
width = 1095;
};
};
components = (
);
contours = (
);
lib = {
};
name = L;
unicodes = (
);
width = 1169;
};
},
{
glyphname = LJ;
lastChange = "2016-09-21 09:42:29 +0000";
layers = (
{
layerId = "440A02D1-6D9B-498A-89D0-C24C9D9BC992";
paths = (
{
closed = 1;
nodes = (
"528 0 LINE",
"528 132 LINE",
"235 132 LINE",
"235 728 LINE",
"72 728 LINE",
"72 0 LINE"
);
},
{
closed = 1;
nodes = (
"776 -219 OFFCURVE",
"851 -146 OFFCURVE",
"851 44 CURVE SMOOTH",
"851 728 LINE",
"688 728 LINE",
"688 42 LINE SMOOTH",
"688 -56 OFFCURVE",
"662 -68 OFFCURVE",
"533 -53 CURVE",
"533 -183 LINE"
);
}
);
width = 923;
},
{
layerId = "E86C9AF2-1279-4BB3-9660-79C369E244F4";
paths = (
{
closed = 1;
nodes = (
"500 0 LINE",
"500 48 LINE",
"150 48 LINE",
"150 728 LINE",
"96 728 LINE",
"96 0 LINE"
);
},
{
closed = 1;
nodes = (
"611 -211 OFFCURVE",
"676 -165 OFFCURVE",
"676 -3 CURVE SMOOTH",
"676 728 LINE",
"622 728 LINE",
"622 -1 LINE SMOOTH",
"622 -132 OFFCURVE",
"576 -158 OFFCURVE",
"449 -133 CURVE",
"449 -182 LINE"
);
}
);
width = 773;
}
);
leftKerningGroup = H;
leftMetricsKey = L;
rightKerningGroup = J;
rightMetricsKey = J;
unicode = 01C7;
},
{
glyphname = Lslash;
lastChange = "2016-09-21 09:42:29 +0000";
layers = (
{
layerId = "440A02D1-6D9B-498A-89D0-C24C9D9BC992";
paths = (
{
closed = 1;
nodes = (
"455 454 LINE",
"455 592 LINE",
"10 337 LINE",
"10 198 LINE"
);
},
{
closed = 1;
nodes = (
"590 0 LINE",
"590 132 LINE",
"266 132 LINE",
"266 728 LINE",
"103 728 LINE",
"103 0 LINE"
);
}
);
width = 614;
},
{
layerId = "E86C9AF2-1279-4BB3-9660-79C369E244F4";
paths = (
{
closed = 1;
nodes = (
"352 469 LINE",
"352 525 LINE",
"8 326 LINE",
"8 271 LINE"
);
},
{
closed = 1;
nodes = (
"538 0 LINE",
"538 48 LINE",
"157 48 LINE",
"157 728 LINE",
"103 728 LINE",
"103 0 LINE"
);
}
);
width = 555;
}
);
leftKerningGroup = L;
rightKerningGroup = L;
rightMetricsKey = L;
unicode = 0141;
},
{
glyphname = M;
lastChange = "2016-09-21 09:42:29 +0000";
layers = (
{
anchors = (
{
name = bottom;
position = "{435, 0}";
},
{
name = top;
position = "{435, 728}";
}
);
layerId = "440A02D1-6D9B-498A-89D0-C24C9D9BC992";
leftMetricsKey = "=H+2";
rightMetricsKey = "=H+2";
paths = (
{
closed = 1;
nodes = (
"216 0 LINE",
"216 487 LINE",
"178 478 LINE",
"382 0 LINE",
"488 0 LINE",
"689 478 LINE",
"654 487 LINE",
"654 0 LINE",
"795 0 LINE",
"795 728 LINE",
"669 728 LINE",
"408 130 LINE",
"465 130 LINE",
"203 728 LINE",
"74 728 LINE",
"74 0 LINE"
);
}
);
width = 869;
},
{
anchors = (
{
name = bottom;
position = "{434, 0}";
},
{
name = top;
position = "{434, 728}";
}
);
layerId = "E86C9AF2-1279-4BB3-9660-79C369E244F4";
paths = (
{
closed = 1;
nodes = (
"149 0 LINE",
"148 671 LINE",
"116 669 LINE",
"414 0 LINE",
"456 0 LINE",
"749 668 LINE",
"720 671 LINE",
"719 0 LINE",
"772 0 LINE",
"772 728 LINE",
"725 728 LINE",
"419 27 LINE",
"452 27 LINE",
"143 728 LINE",
"96 728 LINE",
"96 0 LINE"
);
}
);
width = 869;
}
);
leftKerningGroup = H;
leftMetricsKey = H;
rightKerningGroup = H;
rightMetricsKey = H;
unicode = 004D;
userData = {
anchors = (
);
b = {
};
com.typemytype.robofont.layerData = {
b = {
anchors = (
);
components = (
);
contours = (
);
lib = {
};
name = M;
unicodes = (
);
width = 1899;
};
};
components = (
);
contours = (
);
lib = {
};
name = M;
unicodes = (
);
width = 1984;
};
},
{
glyphname = N;
lastChange = "2016-09-21 09:42:29 +0000";
layers = (
{
anchors = (
{
name = bottom;
position = "{389, 0}";
},
{
name = top;
position = "{388, 728}";
}
);
layerId = "440A02D1-6D9B-498A-89D0-C24C9D9BC992";
paths = (
{
closed = 1;
nodes = (
"223 0 LINE",
"223 517 LINE",
"195 497 LINE",
"584 0 LINE",
"705 0 LINE",
"705 728 LINE",
"553 728 LINE",
"553 211 LINE",
"582 231 LINE",
"191 728 LINE",
"72 728 LINE",
"72 0 LINE"
);
}
);
width = 777;
},
{
anchors = (
{
name = bottom;
position = "{379, 0}";
},
{
name = top;
position = "{379, 728}";
}
);
layerId = "E86C9AF2-1279-4BB3-9660-79C369E244F4";
paths = (
{
closed = 1;
nodes = (
"148 0 LINE",
"148 668 LINE",
"125 667 LINE",
"619 0 LINE",
"661 0 LINE",
"661 728 LINE",
"610 728 LINE",
"610 60 LINE",
"634 61 LINE",
"141 728 LINE",
"96 728 LINE",
"96 0 LINE"
);
}
);
width = 758;
}
);
leftKerningGroup = H;
leftMetricsKey = H;
rightKerningGroup = H;
rightMetricsKey = H;
unicode = 004E;
userData = {
anchors = (
);
b = {
};
com.typemytype.robofont.layerData = {
b = {
anchors = (
);
components = (
);
contours = (
);
lib = {
};
name = N;
unicodes = (
);
width = 1499;
};
};
components = (
);
contours = (
);
lib = {
};
name = N;
unicodes = (
);
width = 1557;
};
},
{
glyphname = Eng;
lastChange = "2016-09-21 09:42:29 +0000";
layers = (
{
layerId = "440A02D1-6D9B-498A-89D0-C24C9D9BC992";
paths = (
{
closed = 1;
nodes = (
"553 211 LINE",
"582 231 LINE",
"191 728 LINE",
"72 728 LINE",
"72 0 LINE",
"223 0 LINE",
"223 517 LINE",
"195 497 LINE",
"579 7 LINE",
"552 92 LINE",
"552 24 LINE SMOOTH",
"552 -30 OFFCURVE",
"519 -64 OFFCURVE",
"461 -67 CURVE SMOOTH",
"382 -72 LINE",
"392 -194 LINE",
"488 -189 LINE SMOOTH",
"632 -181 OFFCURVE",
"705 -107 OFFCURVE",
"705 29 CURVE SMOOTH",
"705 728 LINE",
"553 728 LINE"
);
}
);
width = 777;
},
{
layerId = "E86C9AF2-1279-4BB3-9660-79C369E244F4";
paths = (
{
closed = 1;
nodes = (
"610 60 LINE",
"634 61 LINE",
"141 728 LINE",
"96 728 LINE",
"96 0 LINE",
"148 0 LINE",
"148 668 LINE",
"125 667 LINE",
"619 0 LINE",
"610 38 LINE",
"610 -14 LINE SMOOTH",
"610 -94 OFFCURVE",
"567 -134 OFFCURVE",
"489 -140 CURVE SMOOTH",
"434 -145 LINE",
"438 -192 LINE",
"494 -188 LINE SMOOTH",
"614 -180 OFFCURVE",
"661 -112 OFFCURVE",
"661 -10 CURVE SMOOTH",
"661 728 LINE",
"610 728 LINE"
);
}
);
width = 758;
}
);
leftKerningGroup = H;
leftMetricsKey = H;
rightKerningGroup = H;
rightMetricsKey = H;
unicode = 014A;
userData = {
com.typemytype.robofont.layerData = {
b = {
anchors = (
);
components = (
);
contours = (
);
lib = {
};
name = Eng;
unicodes = (
);
width = 1495;
};
};
};
},
{
glyphname = O;
lastChange = "2016-09-21 09:42:29 +0000";
layers = (
{
anchors = (
{
name = bottom;
position = "{407, 0}";
},
{
name = center;
position = "{407, 365}";
},
{
name = ogonek;
position = "{529, 10}";
},
{
name = top;
position = "{406, 728}";
},
{
name = topleft;
position = "{23, 728}";
},
{
name = topright;
position = "{438, 728}";
}
);
layerId = "440A02D1-6D9B-498A-89D0-C24C9D9BC992";
paths = (
{
closed = 1;
nodes = (
"627 -9 OFFCURVE",
"762 136 OFFCURVE",
"762 365 CURVE SMOOTH",
"762 593 OFFCURVE",
"627 738 OFFCURVE",
"407 738 CURVE SMOOTH",
"188 738 OFFCURVE",
"52 593 OFFCURVE",
"52 365 CURVE SMOOTH",
"52 136 OFFCURVE",
"188 -9 OFFCURVE",
"407 -9 CURVE SMOOTH"
);
},
{
closed = 1;
nodes = (
"287 117 OFFCURVE",
"214 200 OFFCURVE",
"214 365 CURVE SMOOTH",
"214 529 OFFCURVE",
"287 611 OFFCURVE",
"407 611 CURVE SMOOTH",
"527 611 OFFCURVE",
"601 528 OFFCURVE",
"601 365 CURVE SMOOTH",
"601 202 OFFCURVE",
"527 117 OFFCURVE",
"407 117 CURVE SMOOTH"
);
}
);
width = 814;
},
{
anchors = (
{
name = bottom;
position = "{389, 0}";
},
{
name = center;
position = "{390, 365}";
},
{
name = ogonek;
position = "{497, 10}";
},
{
name = top;
position = "{389, 728}";
},
{
name = topleft;
position = "{27, 728}";
},
{
name = topright;
position = "{420, 728}";
}
);
layerId = "E86C9AF2-1279-4BB3-9660-79C369E244F4";
paths = (
{
closed = 1;
nodes = (
"588 -8 OFFCURVE",
"712 134 OFFCURVE",
"712 365 CURVE SMOOTH",
"712 595 OFFCURVE",
"589 737 OFFCURVE",
"389 737 CURVE SMOOTH",
"189 737 OFFCURVE",
"67 595 OFFCURVE",
"67 364 CURVE SMOOTH",
"67 134 OFFCURVE",
"191 -8 OFFCURVE",
"389 -8 CURVE SMOOTH"
);
},
{
closed = 1;
nodes = (
"222 42 OFFCURVE",
"124 160 OFFCURVE",
"124 365 CURVE SMOOTH",
"124 569 OFFCURVE",
"222 686 OFFCURVE",
"389 686 CURVE SMOOTH",
"559 686 OFFCURVE",
"655 570 OFFCURVE",
"655 365 CURVE SMOOTH",
"655 159 OFFCURVE",
"558 42 OFFCURVE",
"389 42 CURVE SMOOTH"
);
}
);
width = 779;
}
);
leftKerningGroup = O;
rightKerningGroup = O;
unicode = 004F;
userData = {
anchors = (
);
b = {
};
com.typemytype.robofont.guides = (
);
com.typemytype.robofont.layerData = {
b = {
anchors = (
);
components = (
);
contours = (
);
lib = {
};
name = O;
unicodes = (
);
width = 1597;
};
};
components = (
);
contours = (
);
lib = {
};
name = O;
unicodes = (
);
width = 1604;
};
},
{
glyphname = Ohorn;
lastChange = "2016-09-21 09:42:29 +0000";
layers = (
{
anchors = (
{
name = bottom;
position = "{407, 0}";
},
{
name = top;
position = "{406, 728}";
}
);
layerId = "440A02D1-6D9B-498A-89D0-C24C9D9BC992";
paths = (
{
closed = 1;
nodes = (
"626 -9 OFFCURVE",
"762 136 OFFCURVE",
"762 365 CURVE SMOOTH",
"762 504 OFFCURVE",
"715 610 OFFCURVE",
"621 673 CURVE",
"605 652 LINE",
"697 652 OFFCURVE",
"762 719 OFFCURVE",
"762 814 CURVE SMOOTH",
"762 853 LINE",
"627 853 LINE",
"627 833 LINE SMOOTH",
"627 756 OFFCURVE",
"603 728 OFFCURVE",
"537 728 CURVE SMOOTH",
"492 728 OFFCURVE",
"459 738 OFFCURVE",
"409 738 CURVE SMOOTH",
"188 738 OFFCURVE",
"52 593 OFFCURVE",
"52 365 CURVE SMOOTH",
"52 136 OFFCURVE",
"188 -9 OFFCURVE",
"407 -9 CURVE SMOOTH"
);
},
{
closed = 1;
nodes = (
"287 117 OFFCURVE",
"214 200 OFFCURVE",
"214 365 CURVE SMOOTH",
"214 529 OFFCURVE",
"287 611 OFFCURVE",
"407 611 CURVE SMOOTH",
"527 611 OFFCURVE",
"601 528 OFFCURVE",
"601 365 CURVE SMOOTH",
"601 202 OFFCURVE",
"527 117 OFFCURVE",
"407 117 CURVE SMOOTH"
);
}
);
width = 814;
},
{
anchors = (
{
name = bottom;
position = "{390, 0}";
},
{
name = top;
position = "{389, 728}";
}
);
layerId = "E86C9AF2-1279-4BB3-9660-79C369E244F4";
paths = (
{
closed = 1;
nodes = (
"587 -8 OFFCURVE",
"712 134 OFFCURVE",
"712 365 CURVE SMOOTH",
"712 525 OFFCURVE",
"653 642 OFFCURVE",
"545 698 CURVE",
"552 686 LINE",
"653 686 OFFCURVE",
"712 741 OFFCURVE",
"712 836 CURVE SMOOTH",
"712 858 LINE",
"662 858 LINE",
"662 845 LINE SMOOTH",
"662 761 OFFCURVE",
"628 729 OFFCURVE",
"539 728 CURVE SMOOTH",
"498 728 OFFCURVE",
"443 737 OFFCURVE",
"394 737 CURVE SMOOTH",
"189 737 OFFCURVE",
"67 595 OFFCURVE",
"67 364 CURVE SMOOTH",
"67 134 OFFCURVE",
"192 -8 OFFCURVE",
"389 -8 CURVE SMOOTH"
);
},
{
closed = 1;
nodes = (
"222 42 OFFCURVE",
"124 160 OFFCURVE",
"124 365 CURVE SMOOTH",
"124 569 OFFCURVE",
"222 686 OFFCURVE",
"389 686 CURVE SMOOTH",
"559 686 OFFCURVE",
"655 570 OFFCURVE",
"655 365 CURVE SMOOTH",
"655 159 OFFCURVE",
"558 42 OFFCURVE",
"389 42 CURVE SMOOTH"
);
}
);
width = 779;
}
);
leftKerningGroup = O;
leftMetricsKey = O;
widthMetricsKey = O;
rightKerningGroup = O;
unicode = 01A0;
},
{
glyphname = Oogonek;
lastChange = "2016-09-21 09:42:29 +0000";
layers = (
{
anchors = (
{
name = top;
position = "{406, 728}";
}
);
layerId = "440A02D1-6D9B-498A-89D0-C24C9D9BC992";
paths = (
{
closed = 1;
nodes = (
"675 51 OFFCURVE",
"762 181 OFFCURVE",
"762 365 CURVE SMOOTH",
"762 593 OFFCURVE",
"627 738 OFFCURVE",
"407 738 CURVE SMOOTH",
"188 738 OFFCURVE",
"52 593 OFFCURVE",
"52 365 CURVE SMOOTH",
"52 129 OFFCURVE",
"196 -17 OFFCURVE",
"425 -9 CURVE",
"411 12 LINE",
"376 -11 OFFCURVE",
"356 -50 OFFCURVE",
"356 -90 CURVE SMOOTH",
"356 -156 OFFCURVE",
"411 -204 OFFCURVE",
"488 -204 CURVE SMOOTH",
"525 -204 OFFCURVE",
"561 -196 OFFCURVE",
"591 -183 CURVE",
"573 -109 LINE",
"554 -118 OFFCURVE",
"535 -122 OFFCURVE",
"518 -122 CURVE SMOOTH",
"478 -122 OFFCURVE",
"457 -103 OFFCURVE",
"457 -67 CURVE SMOOTH",
"457 -32 OFFCURVE",
"478 -8 OFFCURVE",
"522 5 CURVE SMOOTH"
);
},
{
closed = 1;
nodes = (
"214 529 OFFCURVE",
"287 611 OFFCURVE",
"407 611 CURVE SMOOTH",
"527 611 OFFCURVE",
"601 528 OFFCURVE",
"601 365 CURVE SMOOTH",
"601 202 OFFCURVE",
"527 117 OFFCURVE",
"407 117 CURVE SMOOTH",
"287 117 OFFCURVE",
"214 200 OFFCURVE",
"214 365 CURVE SMOOTH"
);
}
);
width = 814;
},
{
anchors = (
{
name = top;
position = "{389, 728}";
}
);
layerId = "E86C9AF2-1279-4BB3-9660-79C369E244F4";
paths = (
{
closed = 1;
nodes = (
"628 44 OFFCURVE",
"712 174 OFFCURVE",
"712 365 CURVE SMOOTH",
"712 595 OFFCURVE",
"588 737 OFFCURVE",
"389 737 CURVE SMOOTH",
"190 737 OFFCURVE",
"67 595 OFFCURVE",
"67 364 CURVE SMOOTH",
"67 123 OFFCURVE",
"205 -22 OFFCURVE",
"417 -7 CURVE",
"409 11 LINE",
"373 -11 OFFCURVE",
"351 -50 OFFCURVE",
"351 -91 CURVE SMOOTH",
"351 -154 OFFCURVE",
"399 -197 OFFCURVE",
"468 -197 CURVE SMOOTH",
"500 -197 OFFCURVE",
"528 -189 OFFCURVE",
"550 -174 CURVE",
"533 -134 LINE",
"511 -147 OFFCURVE",
"490 -154 OFFCURVE",
"472 -154 CURVE SMOOTH",
"429 -154 OFFCURVE",
"402 -127 OFFCURVE",
"402 -85 CURVE SMOOTH",
"402 -41 OFFCURVE",
"429 -11 OFFCURVE",
"480 3 CURVE SMOOTH"
);
},
{
closed = 1;
nodes = (
"124 569 OFFCURVE",
"222 686 OFFCURVE",
"389 686 CURVE SMOOTH",
"559 686 OFFCURVE",
"655 570 OFFCURVE",
"655 365 CURVE SMOOTH",
"655 159 OFFCURVE",
"558 42 OFFCURVE",
"389 42 CURVE SMOOTH",
"222 42 OFFCURVE",
"124 160 OFFCURVE",
"124 365 CURVE SMOOTH"
);
}
);
width = 779;
}
);
leftKerningGroup = O;
leftMetricsKey = O;
rightKerningGroup = O;
rightMetricsKey = O;
unicode = 01EA;
},
{
glyphname = Oslash;
lastChange = "2016-09-21 09:42:29 +0000";
layers = (
{
anchors = (
{
name = bottom;
position = "{407, 0}";
},
{
name = top;
position = "{406, 728}";
}
);
layerId = "440A02D1-6D9B-498A-89D0-C24C9D9BC992";
paths = (
{
closed = 1;
nodes = (
"627 -9 OFFCURVE",
"762 136 OFFCURVE",
"762 365 CURVE SMOOTH",
"762 593 OFFCURVE",
"627 738 OFFCURVE",
"407 738 CURVE SMOOTH",
"188 738 OFFCURVE",
"52 593 OFFCURVE",
"52 365 CURVE SMOOTH",
"52 136 OFFCURVE",
"188 -9 OFFCURVE",
"407 -9 CURVE SMOOTH"
);
},
{
closed = 1;
nodes = (
"693 737 LINE",
"590 799 LINE",
"121 -8 LINE",
"223 -70 LINE"
);
},
{
closed = 1;
nodes = (
"287 117 OFFCURVE",
"214 200 OFFCURVE",
"214 365 CURVE SMOOTH",
"214 529 OFFCURVE",
"287 611 OFFCURVE",
"407 611 CURVE SMOOTH",
"527 611 OFFCURVE",
"601 528 OFFCURVE",
"601 365 CURVE SMOOTH",
"601 202 OFFCURVE",
"527 117 OFFCURVE",
"407 117 CURVE SMOOTH"
);
}
);
width = 814;
},
{
anchors = (
{
name = bottom;
position = "{389, 0}";
},
{
name = top;
position = "{389, 728}";
}
);
layerId = "E86C9AF2-1279-4BB3-9660-79C369E244F4";
paths = (
{
closed = 1;
nodes = (
"588 -8 OFFCURVE",
"712 134 OFFCURVE",
"712 365 CURVE SMOOTH",
"712 595 OFFCURVE",
"589 737 OFFCURVE",
"389 737 CURVE SMOOTH",
"189 737 OFFCURVE",
"67 595 OFFCURVE",
"67 364 CURVE SMOOTH",
"67 134 OFFCURVE",
"191 -8 OFFCURVE",
"389 -8 CURVE SMOOTH"
);
},
{
closed = 1;
nodes = (
"638 745 LINE",
"598 768 LINE",
"140 -17 LINE",
"181 -39 LINE"
);
},
{
closed = 1;
nodes = (
"222 42 OFFCURVE",
"124 160 OFFCURVE",
"124 365 CURVE SMOOTH",
"124 569 OFFCURVE",
"222 686 OFFCURVE",
"389 686 CURVE SMOOTH",
"559 686 OFFCURVE",
"655 570 OFFCURVE",
"655 365 CURVE SMOOTH",
"655 159 OFFCURVE",
"558 42 OFFCURVE",
"389 42 CURVE SMOOTH"
);
}
);
width = 779;
}
);
leftKerningGroup = O;
leftMetricsKey = O;
rightKerningGroup = O;
rightMetricsKey = O;
unicode = 00D8;
userData = {
com.typemytype.robofont.layerData = {
b = {
anchors = (
);
components = (
);
contours = (
);
lib = {
};
name = Oslash;
unicodes = (
);
width = 1597;
};
};
};
},
{
glyphname = OE;
lastChange = "2016-09-21 09:42:29 +0000";
layers = (
{
anchors = (
{
name = bottom;
position = "{546, 0}";
},
{
name = top;
position = "{546, 728}";
}
);
layerId = "440A02D1-6D9B-498A-89D0-C24C9D9BC992";
paths = (
{
closed = 1;
nodes = (
"1040 0 LINE",
"1040 126 LINE",
"696 126 LINE",
"696 307 LINE",
"1020 307 LINE",
"1020 433 LINE",
"696 433 LINE",
"696 602 LINE",
"1040 602 LINE",
"1040 728 LINE",
"547 728 LINE",
"547 647 LINE",
"538 628 LINE",
"538 113 LINE",
"547 79 LINE",
"547 0 LINE"
);
},
{
closed = 1;
nodes = (
"572 669 LINE",
"535 714 OFFCURVE",
"471 738 OFFCURVE",
"387 738 CURVE SMOOTH",
"189 738 OFFCURVE",
"52 584 OFFCURVE",
"52 365 CURVE SMOOTH",
"52 145 OFFCURVE",
"189 -9 OFFCURVE",
"387 -9 CURVE SMOOTH",
"472 -9 OFFCURVE",
"535 15 OFFCURVE",
"572 62 CURVE",
"572 187 LINE",
"540 141 OFFCURVE",
"483 117 OFFCURVE",
"407 117 CURVE SMOOTH",
"284 117 OFFCURVE",
"214 206 OFFCURVE",
"214 365 CURVE SMOOTH",
"214 523 OFFCURVE",
"283 611 OFFCURVE",
"407 611 CURVE SMOOTH",
"483 611 OFFCURVE",
"540 588 OFFCURVE",
"572 541 CURVE"
);
}
);
width = 1078;
},
{
anchors = (
{
name = bottom;
position = "{550, 0}";
},
{
name = top;
position = "{549, 728}";
}
);
layerId = "E86C9AF2-1279-4BB3-9660-79C369E244F4";
paths = (
{
closed = 1;
nodes = (
"1025 0 LINE",
"1025 49 LINE",
"634 49 LINE",
"634 346 LINE",
"1004 346 LINE",
"1004 394 LINE",
"634 394 LINE",
"634 681 LINE",
"1025 681 LINE",
"1025 728 LINE",
"582 728 LINE",
"582 660 LINE",
"581 644 LINE",
"581 88 LINE",
"582 68 LINE",
"582 0 LINE"
);
},
{
closed = 1;
nodes = (
"597 666 LINE",
"542 713 OFFCURVE",
"472 737 OFFCURVE",
"389 737 CURVE SMOOTH",
"189 737 OFFCURVE",
"67 595 OFFCURVE",
"67 364 CURVE SMOOTH",
"67 134 OFFCURVE",
"191 -8 OFFCURVE",
"389 -8 CURVE SMOOTH",
"473 -8 OFFCURVE",
"542 15 OFFCURVE",
"597 63 CURVE",
"597 127 LINE",
"551 71 OFFCURVE",
"479 42 OFFCURVE",
"389 42 CURVE SMOOTH",
"222 42 OFFCURVE",
"124 160 OFFCURVE",
"124 365 CURVE SMOOTH",
"124 568 OFFCURVE",
"221 686 OFFCURVE",
"389 686 CURVE SMOOTH",
"479 686 OFFCURVE",
"551 657 OFFCURVE",
"597 602 CURVE"
);
}
);
width = 1082;
}
);
leftKerningGroup = O;
leftMetricsKey = O;
rightKerningGroup = E;
rightMetricsKey = E;
unicode = 0152;
},
{
glyphname = P;
lastChange = "2016-09-21 09:42:29 +0000";
layers = (
{
anchors = (
{
name = bottom;
position = "{348, 0}";
},
{
name = top;
position = "{347, 728}";
}
);
layerId = "440A02D1-6D9B-498A-89D0-C24C9D9BC992";
paths = (
{
closed = 1;
nodes = (
"235 0 LINE",
"235 293 LINE",
"404 293 LINE SMOOTH",
"565 293 OFFCURVE",
"659 379 OFFCURVE",
"659 511 CURVE SMOOTH",
"659 644 OFFCURVE",
"566 728 OFFCURVE",
"404 728 CURVE SMOOTH",
"72 728 LINE",
"72 0 LINE"
);
},
{
closed = 1;
nodes = (
"235 604 LINE",
"382 604 LINE SMOOTH",
"468 604 OFFCURVE",
"507 570 OFFCURVE",
"507 510 CURVE SMOOTH",
"507 450 OFFCURVE",
"467 417 OFFCURVE",
"382 417 CURVE SMOOTH",
"235 417 LINE"
);
}
);
width = 691;
},
{
anchors = (
{
name = bottom;
position = "{328, 0}";
},
{
name = top;
position = "{328, 728}";
}
);
layerId = "E86C9AF2-1279-4BB3-9660-79C369E244F4";
paths = (
{
closed = 1;
nodes = (
"150 0 LINE",
"150 331 LINE",
"371 331 LINE SMOOTH",
"516 331 OFFCURVE",
"603 407 OFFCURVE",
"603 530 CURVE SMOOTH",
"603 654 OFFCURVE",
"517 728 OFFCURVE",
"371 728 CURVE SMOOTH",
"96 728 LINE",
"96 0 LINE"
);
},
{
closed = 1;
nodes = (
"150 680 LINE",
"369 680 LINE SMOOTH",
"487 680 OFFCURVE",
"548 626 OFFCURVE",
"548 530 CURVE SMOOTH",
"548 435 OFFCURVE",
"487 378 OFFCURVE",
"369 378 CURVE SMOOTH",
"150 378 LINE"
);
}
);
width = 656;
}
);
leftKerningGroup = H;
leftMetricsKey = H;
rightKerningGroup = P;
unicode = 0050;
userData = {
anchors = (
);
b = {
};
com.typemytype.robofont.layerData = {
b = {
anchors = (
);
components = (
);
contours = (
{
points = (
{
segmentType = curve;
smooth = 1;
x = 266;
y = 0;
},
{
segmentType = line;
smooth = 1;
x = 1035;
y = 0;
},
{
smooth = 0;
x = 1084;
y = 0;
},
{
smooth = 0;
x = 1108;
y = 34;
},
{
segmentType = curve;
smooth = 1;
x = 1108;
y = 71;
},
{
smooth = 0;
x = 1108;
y = 107;
},
{
smooth = 0;
x = 1084;
y = 141;
},
{
segmentType = curve;
smooth = 1;
x = 1035;
y = 141;
},
{
segmentType = line;
smooth = 0;
x = 356;
y = 141;
},
{
segmentType = line;
smooth = 0;
x = 356;
y = 665;
},
{
segmentType = line;
smooth = 1;
x = 975;
y = 665;
},
{
smooth = 0;
x = 1024;
y = 665;
},
{
smooth = 0;
x = 1049;
y = 698;
},
{
segmentType = curve;
smooth = 1;
x = 1049;
y = 734;
},
{
smooth = 0;
x = 1049;
y = 770;
},
{
smooth = 0;
x = 1026;
y = 803;
},
{
segmentType = curve;
smooth = 1;
x = 975;
y = 803;
},
{
segmentType = line;
smooth = 0;
x = 356;
y = 803;
},
{
segmentType = line;
smooth = 0;
x = 356;
y = 1285;
},
{
segmentType = line;
smooth = 1;
x = 1007;
y = 1285;
},
{
smooth = 0;
x = 1056;
y = 1285;
},
{
smooth = 0;
x = 1080;
y = 1319;
},
{
segmentType = curve;
smooth = 1;
x = 1080;
y = 1356;
},
{
smooth = 0;
x = 1080;
y = 1392;
},
{
smooth = 0;
x = 1056;
y = 1426;
},
{
segmentType = curve;
smooth = 1;
x = 1007;
y = 1426;
},
{
segmentType = line;
smooth = 1;
x = 261;
y = 1426;
},
{
smooth = 0;
x = 213;
y = 1426;
},
{
smooth = 0;
x = 178;
y = 1383;
},
{
segmentType = curve;
smooth = 1;
x = 178;
y = 1340;
},
{
segmentType = line;
smooth = 1;
x = 178;
y = 86;
},
{
smooth = 0;
x = 178;
y = 41;
},
{
smooth = 0;
x = 222;
y = 0;
}
);
}
);
lib = {
};
name = P;
unicodes = (
);
width = 1201;
};
};
components = (
);
contours = (
);
lib = {
};
name = P;
unicodes = (
);
width = 1319;
};
},
{
glyphname = Thorn;
lastChange = "2016-09-21 09:42:29 +0000";
layers = (
{
anchors = (
{
name = bottom;
position = "{348, 0}";
},
{
name = top;
position = "{347, 728}";
}
);
layerId = "440A02D1-6D9B-498A-89D0-C24C9D9BC992";
paths = (
{
closed = 1;
nodes = (
"409 158 LINE SMOOTH",
"564 158 OFFCURVE",
"659 238 OFFCURVE",
"659 370 CURVE SMOOTH",
"659 503 OFFCURVE",
"566 582 OFFCURVE",
"409 582 CURVE SMOOTH",
"211 582 LINE",
"211 458 LINE",
"382 458 LINE SMOOTH",
"468 458 OFFCURVE",
"507 431 OFFCURVE",
"507 370 CURVE SMOOTH",
"507 309 OFFCURVE",
"468 282 OFFCURVE",
"382 282 CURVE SMOOTH",
"211 282 LINE",
"211 158 LINE"
);
},
{
closed = 1;
nodes = (
"231 0 LINE",
"231 728 LINE",
"72 728 LINE",
"72 0 LINE"
);
}
);
width = 692;
},
{
anchors = (
{
name = bottom;
position = "{328, 0}";
},
{
name = top;
position = "{328, 728}";
}
);
layerId = "E86C9AF2-1279-4BB3-9660-79C369E244F4";
paths = (
{
closed = 1;
nodes = (
"376 178 LINE SMOOTH",
"520 178 OFFCURVE",
"603 249 OFFCURVE",
"603 372 CURVE SMOOTH",
"603 494 OFFCURVE",
"522 563 OFFCURVE",
"376 563 CURVE SMOOTH",
"139 563 LINE",
"139 514 LINE",
"374 514 LINE SMOOTH",
"492 514 OFFCURVE",
"548 469 OFFCURVE",
"548 372 CURVE SMOOTH",
"548 274 OFFCURVE",
"491 226 OFFCURVE",
"374 226 CURVE SMOOTH",
"139 226 LINE",
"139 178 LINE"
);
},
{
closed = 1;
nodes = (
"150 0 LINE",
"150 728 LINE",
"96 728 LINE",
"96 0 LINE"
);
}
);
width = 656;
}
);
leftKerningGroup = H;
leftMetricsKey = H;
rightKerningGroup = THORN;
unicode = 00DE;
},
{
glyphname = Q;
lastChange = "2016-09-21 09:42:29 +0000";
layers = (
{
anchors = (
{
name = bottom;
position = "{407, 0}";
},
{
name = center;
position = "{407, 365}";
},
{
name = ogonek;
position = "{529, 10}";
},
{
name = top;
position = "{406, 728}";
},
{
name = topleft;
position = "{23, 728}";
},
{
name = topright;
position = "{438, 728}";
}
);
layerId = "440A02D1-6D9B-498A-89D0-C24C9D9BC992";
paths = (
{
closed = 1;
nodes = (
"714 -114 LINE",
"661 -69 OFFCURVE",
"603 -16 OFFCURVE",
"570 52 CURVE",
"430 -4 LINE",
"471 -76 OFFCURVE",
"532 -146 OFFCURVE",
"605 -195 CURVE"
);
},
{
closed = 1;
nodes = (
"627 -9 OFFCURVE",
"762 136 OFFCURVE",
"762 365 CURVE SMOOTH",
"762 593 OFFCURVE",
"627 738 OFFCURVE",
"407 738 CURVE SMOOTH",
"188 738 OFFCURVE",
"52 593 OFFCURVE",
"52 365 CURVE SMOOTH",
"52 136 OFFCURVE",
"188 -9 OFFCURVE",
"407 -9 CURVE SMOOTH"
);
},
{
closed = 1;
nodes = (
"287 117 OFFCURVE",
"214 200 OFFCURVE",
"214 365 CURVE SMOOTH",
"214 529 OFFCURVE",
"287 611 OFFCURVE",
"407 611 CURVE SMOOTH",
"527 611 OFFCURVE",
"601 528 OFFCURVE",
"601 365 CURVE SMOOTH",
"601 202 OFFCURVE",
"527 117 OFFCURVE",
"407 117 CURVE SMOOTH"
);
}
);
width = 814;
},
{
anchors = (
{
name = bottom;
position = "{389, 0}";
},
{
name = center;
position = "{390, 365}";
},
{
name = ogonek;
position = "{497, 10}";
},
{
name = top;
position = "{389, 728}";
},
{
name = topleft;
position = "{27, 728}";
},
{
name = topright;
position = "{420, 728}";
}
);
layerId = "E86C9AF2-1279-4BB3-9660-79C369E244F4";
paths = (
{
closed = 1;
nodes = (
"623 -154 LINE",
"570 -109 OFFCURVE",
"524 -57 OFFCURVE",
"487 11 CURVE",
"430 -4 LINE",
"471 -76 OFFCURVE",
"532 -154 OFFCURVE",
"586 -195 CURVE"
);
},
{
closed = 1;
nodes = (
"588 -8 OFFCURVE",
"712 134 OFFCURVE",
"712 365 CURVE SMOOTH",
"712 595 OFFCURVE",
"589 737 OFFCURVE",
"389 737 CURVE SMOOTH",
"189 737 OFFCURVE",
"67 595 OFFCURVE",
"67 364 CURVE SMOOTH",
"67 134 OFFCURVE",
"191 -8 OFFCURVE",
"389 -8 CURVE SMOOTH"
);
},
{
closed = 1;
nodes = (
"222 42 OFFCURVE",
"124 160 OFFCURVE",
"124 365 CURVE SMOOTH",
"124 569 OFFCURVE",
"222 686 OFFCURVE",
"389 686 CURVE SMOOTH",
"559 686 OFFCURVE",
"655 570 OFFCURVE",
"655 365 CURVE SMOOTH",
"655 159 OFFCURVE",
"558 42 OFFCURVE",
"389 42 CURVE SMOOTH"
);
}
);
width = 779;
}
);
leftKerningGroup = O;
leftMetricsKey = O;
widthMetricsKey = O;
rightKerningGroup = O;
unicode = 0051;
userData = {
anchors = (
);
b = {
};
com.typemytype.robofont.layerData = {
b = {
anchors = (
);
components = (
);
contours = (
);
lib = {
};
name = Q;
unicodes = (
);
width = 1597;
};
};
components = (
);
contours = (
);
lib = {
};
name = Q;
unicodes = (
);
width = 1604;
};
},
{
glyphname = R;
lastChange = "2016-09-21 09:42:29 +0000";
layers = (
{
anchors = (
{
name = bottom;
position = "{365, 0}";
},
{
name = top;
position = "{364, 728}";
}
);
layerId = "440A02D1-6D9B-498A-89D0-C24C9D9BC992";
paths = (
{
closed = 1;
nodes = (
"233 0 LINE",
"233 292 LINE",
"333 292 LINE SMOOTH",
"375 292 OFFCURVE",
"409 281 OFFCURVE",
"423 243 CURVE SMOOTH",
"516 0 LINE",
"688 0 LINE",
"600 225 LINE SMOOTH",
"576 286 OFFCURVE",
"535 316 OFFCURVE",
"484 316 CURVE",
"400 299 LINE",
"561 299 OFFCURVE",
"656 384 OFFCURVE",
"656 514 CURVE SMOOTH",
"656 651 OFFCURVE",
"568 728 OFFCURVE",
"397 728 CURVE SMOOTH",
"72 728 LINE",
"72 0 LINE"
);
},
{
closed = 1;
nodes = (
"230 604 LINE",
"373 604 LINE SMOOTH",
"465 604 OFFCURVE",
"504 574 OFFCURVE",
"504 510 CURVE SMOOTH",
"504 446 OFFCURVE",
"465 415 OFFCURVE",
"373 415 CURVE SMOOTH",
"230 415 LINE"
);
}
);
width = 724;
},
{
anchors = (
{
name = bottom;
position = "{347, 0}";
},
{
name = top;
position = "{347, 728}";
}
);
layerId = "E86C9AF2-1279-4BB3-9660-79C369E244F4";
paths = (
{
closed = 1;
nodes = (
"150 0 LINE",
"150 328 LINE",
"364 328 LINE SMOOTH",
"440 328 OFFCURVE",
"479 314 OFFCURVE",
"506 243 CURVE SMOOTH",
"596 0 LINE",
"651 0 LINE",
"558 256 LINE SMOOTH",
"534 321 OFFCURVE",
"497 348 OFFCURVE",
"443 348 CURVE",
"371 335 LINE",
"522 335 OFFCURVE",
"610 406 OFFCURVE",
"610 530 CURVE SMOOTH",
"610 659 OFFCURVE",
"523 728 OFFCURVE",
"373 728 CURVE SMOOTH",
"96 728 LINE",
"96 0 LINE"
);
},
{
closed = 1;
nodes = (
"150 680 LINE",
"371 680 LINE SMOOTH",
"496 680 OFFCURVE",
"555 630 OFFCURVE",
"555 531 CURVE SMOOTH",
"555 430 OFFCURVE",
"494 376 OFFCURVE",
"371 376 CURVE SMOOTH",
"150 376 LINE"
);
}
);
width = 702;
}
);
leftKerningGroup = H;
leftMetricsKey = H;
rightKerningGroup = R;
unicode = 0052;
userData = {
anchors = (
);
b = {
};
com.typemytype.robofont.guides = (
);
com.typemytype.robofont.layerData = {
b = {
anchors = (
);
components = (
);
contours = (
{
points = (
{
segmentType = curve;
smooth = 1;
x = 267;
y = 0;
},
{
smooth = 0;
x = 311;
y = 0;
},
{
smooth = 0;
x = 356;
y = 27;
},
{
segmentType = curve;
smooth = 1;
x = 356;
y = 84;
},
{
segmentType = line;
smooth = 0;
x = 356;
y = 628;
},
{
segmentType = line;
smooth = 1;
x = 669;
y = 628;
},
{
smooth = 0;
x = 962;
y = 628;
},
{
smooth = 0;
x = 1182;
y = 722;
},
{
segmentType = curve;
smooth = 1;
x = 1182;
y = 1026;
},
{
smooth = 0;
x = 1182;
y = 1324;
},
{
smooth = 0;
x = 993;
y = 1426;
},
{
segmentType = curve;
smooth = 1;
x = 684;
y = 1426;
},
{
segmentType = line;
smooth = 1;
x = 268;
y = 1426;
},
{
smooth = 0;
x = 217;
y = 1426;
},
{
smooth = 0;
x = 178;
y = 1387;
},
{
segmentType = curve;
smooth = 1;
x = 178;
y = 1339;
},
{
segmentType = line;
smooth = 1;
x = 178;
y = 84;
},
{
smooth = 0;
x = 178;
y = 28;
},
{
smooth = 0;
x = 222;
y = 0;
}
);
},
{
points = (
{
segmentType = line;
smooth = 0;
x = 356;
y = 764;
},
{
segmentType = line;
smooth = 0;
x = 356;
y = 1285;
},
{
segmentType = line;
smooth = 1;
x = 684;
y = 1285;
},
{
smooth = 0;
x = 914;
y = 1285;
},
{
smooth = 0;
x = 1008;
y = 1210;
},
{
segmentType = curve;
smooth = 1;
x = 1008;
y = 1026;
},
{
smooth = 0;
x = 1008;
y = 838;
},
{
smooth = 0;
x = 901;
y = 764;
},
{
segmentType = curve;
smooth = 1;
x = 670;
y = 764;
}
);
}
);
lib = {
};
name = R;
unicodes = (
);
width = 1363;
};
};
components = (
);
contours = (
);
lib = {
};
name = R;
unicodes = (
);
width = 1408;
};
},
{
glyphname = S;
lastChange = "2016-09-21 09:42:29 +0000";
layers = (
{
anchors = (
{
name = bottom;
position = "{335, 0}";
},
{
name = top;
position = "{340, 728}";
}
);
layerId = "440A02D1-6D9B-498A-89D0-C24C9D9BC992";
paths = (
{
closed = 1;
nodes = (
"519 -9 OFFCURVE",
"630 76 OFFCURVE",
"630 213 CURVE SMOOTH",
"630 327 OFFCURVE",
"553 386 OFFCURVE",
"366 427 CURVE SMOOTH",
"249 453 OFFCURVE",
"214 474 OFFCURVE",
"214 521 CURVE SMOOTH",
"214 576 OFFCURVE",
"266 611 OFFCURVE",
"348 611 CURVE SMOOTH",
"421 611 OFFCURVE",
"493 588 OFFCURVE",
"559 538 CURVE",
"611 654 LINE",
"554 706 OFFCURVE",
"450 738 OFFCURVE",
"347 738 CURVE SMOOTH",
"171 738 OFFCURVE",
"55 641 OFFCURVE",
"55 509 CURVE SMOOTH",
"55 390 OFFCURVE",
"128 332 OFFCURVE",
"318 291 CURVE SMOOTH",
"431 268 OFFCURVE",
"471 246 OFFCURVE",
"471 199 CURVE SMOOTH",
"471 148 OFFCURVE",
"421 117 OFFCURVE",
"330 117 CURVE SMOOTH",
"244 117 OFFCURVE",
"164 141 OFFCURVE",
"93 190 CURVE",
"41 74 LINE",
"108 22 OFFCURVE",
"219 -9 OFFCURVE",
"327 -9 CURVE SMOOTH"
);
}
);
width = 673;
},
{
anchors = (
{
name = bottom;
position = "{317, 0}";
},
{
name = top;
position = "{311, 728}";
}
);
layerId = "E86C9AF2-1279-4BB3-9660-79C369E244F4";
paths = (
{
closed = 1;
nodes = (
"473 -8 OFFCURVE",
"573 72 OFFCURVE",
"573 191 CURVE SMOOTH",
"573 336 OFFCURVE",
"424 355 OFFCURVE",
"298 386 CURVE SMOOTH",
"203 409 OFFCURVE",
"119 439 OFFCURVE",
"119 532 CURVE SMOOTH",
"119 629 OFFCURVE",
"193 686 OFFCURVE",
"319 686 CURVE SMOOTH",
"406 686 OFFCURVE",
"473 659 OFFCURVE",
"542 596 CURVE",
"566 640 LINE",
"504 703 OFFCURVE",
"418 737 OFFCURVE",
"319 737 CURVE SMOOTH",
"163 737 OFFCURVE",
"64 655 OFFCURVE",
"64 532 CURVE SMOOTH",
"64 386 OFFCURVE",
"202 356 OFFCURVE",
"324 328 CURVE SMOOTH",
"426 305 OFFCURVE",
"519 281 OFFCURVE",
"519 192 CURVE SMOOTH",
"519 96 OFFCURVE",
"445 42 OFFCURVE",
"319 42 CURVE SMOOTH",
"215 42 OFFCURVE",
"150 66 OFFCURVE",
"76 132 CURVE",
"52 88 LINE",
"121 22 OFFCURVE",
"206 -8 OFFCURVE",
"319 -8 CURVE SMOOTH"
);
}
);
width = 623;
}
);
leftKerningGroup = S;
rightKerningGroup = S;
unicode = 0053;
userData = {
anchors = (
);
b = {
};
com.typemytype.robofont.layerData = {
b = {
anchors = (
);
components = (
);
contours = (
);
lib = {
};
name = S;
unicodes = (
);
width = 1274;
};
};
components = (
);
contours = (
);
lib = {
};
name = S;
unicodes = (
);
width = 1317;
};
},
{
glyphname = Germandbls;
lastChange = "2016-09-21 09:42:29 +0000";
layers = (
{
layerId = "440A02D1-6D9B-498A-89D0-C24C9D9BC992";
paths = (
{
closed = 1;
nodes = (
"231 0 LINE",
"231 459 LINE SMOOTH",
"231 557 OFFCURVE",
"282 609 OFFCURVE",
"376 609 CURVE SMOOTH",
"446 609 OFFCURVE",
"491 574 OFFCURVE",
"491 518 CURVE SMOOTH",
"491 462 OFFCURVE",
"455 432 OFFCURVE",
"386 432 CURVE SMOOTH",
"303 432 LINE",
"303 306 LINE",
"405 306 LINE SMOOTH",
"504 306 OFFCURVE",
"542 277 OFFCURVE",
"542 210 CURVE SMOOTH",
"542 150 OFFCURVE",
"509 114 OFFCURVE",
"456 114 CURVE SMOOTH",
"414 114 OFFCURVE",
"369 130 OFFCURVE",
"313 166 CURVE",
"271 52 LINE",
"325 11 OFFCURVE",
"385 -6 OFFCURVE",
"465 -6 CURVE SMOOTH",
"598 -6 OFFCURVE",
"696 83 OFFCURVE",
"696 204 CURVE SMOOTH",
"696 304 OFFCURVE",
"629 372 OFFCURVE",
"519 384 CURVE",
"518 370 LINE",
"594 393 OFFCURVE",
"642 453 OFFCURVE",
"642 531 CURVE SMOOTH",
"642 656 OFFCURVE",
"539 735 OFFCURVE",
"380 735 CURVE SMOOTH",
"185 735 OFFCURVE",
"72 634 OFFCURVE",
"72 457 CURVE SMOOTH",
"72 0 LINE"
);
}
);
width = 734;
},
{
layerId = "E86C9AF2-1279-4BB3-9660-79C369E244F4";
paths = (
{
closed = 1;
nodes = (
"150 0 LINE",
"150 470 LINE SMOOTH",
"150 618 OFFCURVE",
"216 685 OFFCURVE",
"357 685 CURVE SMOOTH",
"465 685 OFFCURVE",
"530 632 OFFCURVE",
"530 543 CURVE SMOOTH",
"530 448 OFFCURVE",
"465 394 OFFCURVE",
"353 394 CURVE SMOOTH",
"248 394 LINE",
"248 346 LINE",
"390 346 LINE SMOOTH",
"511 346 OFFCURVE",
"577 295 OFFCURVE",
"577 199 CURVE SMOOTH",
"577 103 OFFCURVE",
"513 45 OFFCURVE",
"407 43 CURVE SMOOTH",
"352 42 OFFCURVE",
"304 61 OFFCURVE",
"247 107 CURVE",
"223 61 LINE",
"273 17 OFFCURVE",
"341 -7 OFFCURVE",
"410 -7 CURVE SMOOTH",
"543 -7 OFFCURVE",
"632 75 OFFCURVE",
"632 198 CURVE SMOOTH",
"632 300 OFFCURVE",
"571 366 OFFCURVE",
"461 382 CURVE",
"451 371 LINE",
"536 390 OFFCURVE",
"585 455 OFFCURVE",
"585 544 CURVE SMOOTH",
"585 662 OFFCURVE",
"497 735 OFFCURVE",
"357 735 CURVE SMOOTH",
"183 735 OFFCURVE",
"96 650 OFFCURVE",
"96 477 CURVE SMOOTH",
"96 0 LINE"
);
}
);
width = 702;
}
);
leftKerningGroup = H;
leftMetricsKey = B;
rightKerningGroup = Germandbls;
rightMetricsKey = B;
unicode = 1E9E;
},
{
glyphname = Schwa;
lastChange = "2016-09-21 09:42:29 +0000";
layers = (
{
anchors = (
{
name = bottom;
position = "{397, 0}";
},
{
name = top;
position = "{396, 728}";
}
);
layerId = "440A02D1-6D9B-498A-89D0-C24C9D9BC992";
paths = (
{
closed = 1;
nodes = (
"607 -9 OFFCURVE",
"742 146 OFFCURVE",
"742 365 CURVE SMOOTH",
"742 593 OFFCURVE",
"598 738 OFFCURVE",
"372 738 CURVE SMOOTH",
"273 738 OFFCURVE",
"166 706 OFFCURVE",
"102 654 CURVE",
"154 538 LINE",
"217 586 OFFCURVE",
"289 608 OFFCURVE",
"367 608 CURVE SMOOTH",
"505 608 OFFCURVE",
"580 526 OFFCURVE",
"580 365 CURVE SMOOTH",
"580 200 OFFCURVE",
"520 117 OFFCURVE",
"402 117 CURVE SMOOTH",
"279 117 OFFCURVE",
"209 200 OFFCURVE",
"214 365 CURVE",
"173 306 LINE",
"642 306 LINE",
"642 431 LINE",
"52 431 LINE",
"52 368 LINE SMOOTH",
"52 126 OFFCURVE",
"186 -9 OFFCURVE",
"407 -9 CURVE SMOOTH"
);
}
);
width = 794;
},
{
anchors = (
{
name = bottom;
position = "{378, 0}";
},
{
name = top;
position = "{378, 728}";
}
);
layerId = "E86C9AF2-1279-4BB3-9660-79C369E244F4";
paths = (
{
closed = 1;
nodes = (
"568 -8 OFFCURVE",
"688 134 OFFCURVE",
"688 365 CURVE SMOOTH",
"688 596 OFFCURVE",
"561 737 OFFCURVE",
"355 737 CURVE SMOOTH",
"254 737 OFFCURVE",
"158 701 OFFCURVE",
"97 640 CURVE",
"121 596 LINE",
"188 658 OFFCURVE",
"265 688 OFFCURVE",
"356 688 CURVE SMOOTH",
"532 688 OFFCURVE",
"632 570 OFFCURVE",
"632 365 CURVE SMOOTH",
"632 160 OFFCURVE",
"538 42 OFFCURVE",
"378 42 CURVE SMOOTH",
"218 42 OFFCURVE",
"123 161 OFFCURVE",
"123 365 CURVE",
"108 345 LINE",
"663 345 LINE",
"663 395 LINE",
"67 395 LINE",
"67 361 LINE SMOOTH",
"67 133 OFFCURVE",
"187 -8 OFFCURVE",
"377 -8 CURVE SMOOTH"
);
}
);
width = 755;
}
);
leftKerningGroup = O;
leftMetricsKey = O;
rightKerningGroup = O;
rightMetricsKey = O;
unicode = 018F;
},
{
glyphname = T;
lastChange = "2016-09-21 09:42:29 +0000";
layers = (
{
anchors = (
{
name = bottom;
position = "{321, 0}";
},
{
name = center;
position = "{321, 365}";
},
{
name = top;
position = "{321, 728}";
}
);
layerId = "440A02D1-6D9B-498A-89D0-C24C9D9BC992";
paths = (
{
closed = 1;
nodes = (
"403 0 LINE",
"403 596 LINE",
"631 596 LINE",
"631 728 LINE",
"12 728 LINE",
"12 596 LINE",
"240 596 LINE",
"240 0 LINE"
);
}
);
width = 644;
},
{
anchors = (
{
name = bottom;
position = "{304, 0}";
},
{
name = center;
position = "{304, 365}";
},
{
name = top;
position = "{304, 728}";
}
);
layerId = "E86C9AF2-1279-4BB3-9660-79C369E244F4";
paths = (
{
closed = 1;
nodes = (
"331 0 LINE",
"331 681 LINE",
"594 681 LINE",
"594 728 LINE",
"12 728 LINE",
"12 681 LINE",
"277 681 LINE",
"277 0 LINE"
);
}
);
width = 606;
}
);
leftKerningGroup = T;
rightKerningGroup = T;
unicode = 0054;
userData = {
anchors = (
);
b = {
};
com.typemytype.robofont.layerData = {
b = {
anchors = (
);
components = (
);
contours = (
{
points = (
{
segmentType = curve;
smooth = 1;
x = 581;
y = 0;
},
{
segmentType = line;
smooth = 1;
x = 1350;
y = 0;
},
{
smooth = 0;
x = 1399;
y = 0;
},
{
smooth = 0;
x = 1423;
y = 34;
},
{
segmentType = curve;
smooth = 1;
x = 1423;
y = 71;
},
{
smooth = 0;
x = 1423;
y = 107;
},
{
smooth = 0;
x = 1399;
y = 141;
},
{
segmentType = curve;
smooth = 1;
x = 1350;
y = 141;
},
{
segmentType = line;
smooth = 0;
x = 671;
y = 141;
},
{
segmentType = line;
smooth = 0;
x = 671;
y = 665;
},
{
segmentType = line;
smooth = 1;
x = 1290;
y = 665;
},
{
smooth = 0;
x = 1339;
y = 665;
},
{
smooth = 0;
x = 1364;
y = 698;
},
{
segmentType = curve;
smooth = 1;
x = 1364;
y = 734;
},
{
smooth = 0;
x = 1364;
y = 770;
},
{
smooth = 0;
x = 1341;
y = 803;
},
{
segmentType = curve;
smooth = 1;
x = 1290;
y = 803;
},
{
segmentType = line;
smooth = 0;
x = 671;
y = 803;
},
{
segmentType = line;
smooth = 0;
x = 671;
y = 1285;
},
{
segmentType = line;
smooth = 1;
x = 1322;
y = 1285;
},
{
smooth = 0;
x = 1371;
y = 1285;
},
{
smooth = 0;
x = 1395;
y = 1319;
},
{
segmentType = curve;
smooth = 1;
x = 1395;
y = 1356;
},
{
smooth = 0;
x = 1395;
y = 1392;
},
{
smooth = 0;
x = 1371;
y = 1426;
},
{
segmentType = curve;
smooth = 1;
x = 1322;
y = 1426;
},
{
segmentType = line;
smooth = 1;
x = 576;
y = 1426;
},
{
smooth = 0;
x = 528;
y = 1426;
},
{
smooth = 0;
x = 493;
y = 1383;
},
{
segmentType = curve;
smooth = 1;
x = 493;
y = 1340;
},
{
segmentType = line;
smooth = 1;
x = 493;
y = 86;
},
{
smooth = 0;
x = 493;
y = 41;
},
{
smooth = 0;
x = 537;
y = 0;
}
);
}
);
lib = {
};
name = T;
unicodes = (
);
width = 1158;
};
};
components = (
);
contours = (
);
lib = {
};
name = T;
unicodes = (
);
width = 1199;
};
},
{
glyphname = Tbar;
lastChange = "2016-09-21 09:42:29 +0000";
layers = (
{
layerId = "440A02D1-6D9B-498A-89D0-C24C9D9BC992";
paths = (
{
closed = 1;
nodes = (
"543 307 LINE",
"543 430 LINE",
"100 430 LINE",
"100 307 LINE"
);
},
{
closed = 1;
nodes = (
"403 0 LINE",
"403 596 LINE",
"631 596 LINE",
"631 728 LINE",
"12 728 LINE",
"12 596 LINE",
"240 596 LINE",
"240 0 LINE"
);
}
);
width = 644;
},
{
layerId = "E86C9AF2-1279-4BB3-9660-79C369E244F4";
paths = (
{
closed = 1;
nodes = (
"480 347 LINE",
"480 393 LINE",
"127 393 LINE",
"127 347 LINE"
);
},
{
closed = 1;
nodes = (
"331 0 LINE",
"331 681 LINE",
"594 681 LINE",
"594 728 LINE",
"12 728 LINE",
"12 681 LINE",
"277 681 LINE",
"277 0 LINE"
);
}
);
width = 606;
}
);
leftKerningGroup = T;
leftMetricsKey = T;
rightKerningGroup = T;
rightMetricsKey = T;
unicode = 0166;
userData = {
com.typemytype.robofont.layerData = {
b = {
anchors = (
);
components = (
);
contours = (
);
lib = {
};
name = Tbar;
unicodes = (
);
width = 1158;
};
};
};
},
{
glyphname = U;
lastChange = "2016-09-21 09:42:29 +0000";
layers = (
{
anchors = (
{
name = bottom;
position = "{382, 0}";
},
{
name = ogonek;
position = "{507, 10}";
},
{
name = top;
position = "{382, 728}";
},
{
name = topright;
position = "{616, 728}";
}
);
layerId = "440A02D1-6D9B-498A-89D0-C24C9D9BC992";
paths = (
{
closed = 1;
nodes = (
"586 -9 OFFCURVE",
"695 100 OFFCURVE",
"695 301 CURVE SMOOTH",
"695 728 LINE",
"536 728 LINE",
"536 293 LINE SMOOTH",
"536 180 OFFCURVE",
"481 117 OFFCURVE",
"382 117 CURVE SMOOTH",
"281 117 OFFCURVE",
"227 179 OFFCURVE",
"227 293 CURVE SMOOTH",
"227 728 LINE",
"68 728 LINE",
"68 301 LINE SMOOTH",
"68 98 OFFCURVE",
"176 -9 OFFCURVE",
"382 -9 CURVE SMOOTH"
);
}
);
width = 763;
},
{
anchors = (
{
name = bottom;
position = "{371, 0}";
},
{
name = ogonek;
position = "{487, 10}";
},
{
name = top;
position = "{371, 728}";
},
{
name = topright;
position = "{623, 728}";
}
);
layerId = "E86C9AF2-1279-4BB3-9660-79C369E244F4";
paths = (
{
closed = 1;
nodes = (
"554 -8 OFFCURVE",
"650 90 OFFCURVE",
"650 279 CURVE SMOOTH",
"650 728 LINE",
"596 728 LINE",
"596 272 LINE SMOOTH",
"596 119 OFFCURVE",
"520 42 OFFCURVE",
"371 42 CURVE SMOOTH",
"221 42 OFFCURVE",
"145 119 OFFCURVE",
"145 272 CURVE SMOOTH",
"145 728 LINE",
"91 728 LINE",
"91 279 LINE SMOOTH",
"91 90 OFFCURVE",
"187 -8 OFFCURVE",
"371 -8 CURVE SMOOTH"
);
}
);
width = 742;
}
);
leftKerningGroup = U;
rightKerningGroup = U;
unicode = 0055;
userData = {
anchors = (
);
b = {
};
com.typemytype.robofont.layerData = {
b = {
anchors = (
);
components = (
);
contours = (
);
lib = {
};
name = U;
unicodes = (
);
width = 1490;
};
};
components = (
);
contours = (
);
lib = {
};
name = U;
unicodes = (
);
width = 1513;
};
},
{
glyphname = Uhorn;
lastChange = "2016-09-21 09:42:29 +0000";
layers = (
{
anchors = (
{
name = bottom;
position = "{382, 0}";
},
{
name = top;
position = "{382, 728}";
}
);
layerId = "440A02D1-6D9B-498A-89D0-C24C9D9BC992";
paths = (
{
closed = 1;
nodes = (
"677 833 LINE SMOOTH",
"677 755 OFFCURVE",
"652 728 OFFCURVE",
"583 728 CURVE SMOOTH",
"536 728 LINE",
"536 293 LINE SMOOTH",
"536 180 OFFCURVE",
"481 117 OFFCURVE",
"382 117 CURVE SMOOTH",
"281 117 OFFCURVE",
"227 179 OFFCURVE",
"227 293 CURVE SMOOTH",
"227 728 LINE",
"68 728 LINE",
"68 301 LINE SMOOTH",
"68 98 OFFCURVE",
"176 -9 OFFCURVE",
"382 -9 CURVE SMOOTH",
"586 -9 OFFCURVE",
"695 100 OFFCURVE",
"695 301 CURVE SMOOTH",
"695 697 LINE",
"662 653 LINE",
"752 658 OFFCURVE",
"812 723 OFFCURVE",
"812 814 CURVE SMOOTH",
"812 853 LINE",
"677 853 LINE"
);
}
);
width = 763;
},
{
anchors = (
{
name = bottom;
position = "{371, 0}";
},
{
name = top;
position = "{371, 728}";
}
);
layerId = "E86C9AF2-1279-4BB3-9660-79C369E244F4";
paths = (
{
closed = 1;
nodes = (
"723 845 LINE SMOOTH",
"723 762 OFFCURVE",
"691 729 OFFCURVE",
"613 728 CURVE SMOOTH",
"596 728 LINE",
"596 272 LINE SMOOTH",
"596 119 OFFCURVE",
"520 42 OFFCURVE",
"371 42 CURVE SMOOTH",
"221 42 OFFCURVE",
"145 119 OFFCURVE",
"145 272 CURVE SMOOTH",
"145 728 LINE",
"91 728 LINE",
"91 279 LINE SMOOTH",
"91 90 OFFCURVE",
"187 -8 OFFCURVE",
"371 -8 CURVE SMOOTH",
"554 -8 OFFCURVE",
"650 90 OFFCURVE",
"650 279 CURVE SMOOTH",
"650 714 LINE",
"613 686 LINE",
"715 687 OFFCURVE",
"773 740 OFFCURVE",
"773 836 CURVE SMOOTH",
"773 858 LINE",
"723 858 LINE"
);
}
);
width = 742;
}
);
leftKerningGroup = U;
leftMetricsKey = U;
widthMetricsKey = U;
rightKerningGroup = Uhorn;
unicode = 01AF;
},
{
glyphname = Uogonek;
lastChange = "2016-09-21 09:42:29 +0000";
layers = (
{
layerId = "440A02D1-6D9B-498A-89D0-C24C9D9BC992";
paths = (
{
closed = 1;
nodes = (
"536 293 LINE SMOOTH",
"536 180 OFFCURVE",
"481 117 OFFCURVE",
"382 117 CURVE SMOOTH",
"281 117 OFFCURVE",
"227 179 OFFCURVE",
"227 293 CURVE SMOOTH",
"227 728 LINE",
"68 728 LINE",
"68 301 LINE SMOOTH",
"68 98 OFFCURVE",
"176 -9 OFFCURVE",
"383 -9 CURVE SMOOTH",
"406 -9 LINE",
"396 11 LINE",
"356 -11 OFFCURVE",
"335 -50 OFFCURVE",
"335 -90 CURVE SMOOTH",
"335 -156 OFFCURVE",
"389 -204 OFFCURVE",
"467 -204 CURVE SMOOTH",
"503 -204 OFFCURVE",
"539 -196 OFFCURVE",
"570 -183 CURVE",
"553 -109 LINE",
"533 -118 OFFCURVE",
"514 -122 OFFCURVE",
"497 -122 CURVE SMOOTH",
"457 -122 OFFCURVE",
"435 -103 OFFCURVE",
"435 -67 CURVE SMOOTH",
"435 -33 OFFCURVE",
"457 -6 OFFCURVE",
"498 5 CURVE SMOOTH",
"628 41 OFFCURVE",
"695 143 OFFCURVE",
"695 301 CURVE SMOOTH",
"695 728 LINE",
"536 728 LINE"
);
}
);
width = 763;
},
{
layerId = "E86C9AF2-1279-4BB3-9660-79C369E244F4";
paths = (
{
closed = 1;
nodes = (
"596 272 LINE SMOOTH",
"596 119 OFFCURVE",
"520 42 OFFCURVE",
"371 42 CURVE SMOOTH",
"221 42 OFFCURVE",
"145 119 OFFCURVE",
"145 272 CURVE SMOOTH",
"145 728 LINE",
"91 728 LINE",
"91 279 LINE SMOOTH",
"91 90 OFFCURVE",
"187 -8 OFFCURVE",
"371 -8 CURVE SMOOTH",
"426 -8 LINE",
"413 11 LINE",
"365 -9 OFFCURVE",
"340 -43 OFFCURVE",
"340 -91 CURVE SMOOTH",
"340 -154 OFFCURVE",
"387 -197 OFFCURVE",
"457 -197 CURVE SMOOTH",
"489 -197 OFFCURVE",
"518 -189 OFFCURVE",
"538 -174 CURVE",
"522 -134 LINE",
"500 -147 OFFCURVE",
"478 -154 OFFCURVE",
"461 -154 CURVE SMOOTH",
"417 -154 OFFCURVE",
"391 -127 OFFCURVE",
"391 -85 CURVE SMOOTH",
"391 -41 OFFCURVE",
"417 -13 OFFCURVE",
"481 6 CURVE SMOOTH",
"592 41 OFFCURVE",
"650 132 OFFCURVE",
"650 279 CURVE SMOOTH",
"650 728 LINE",
"596 728 LINE"
);
}
);
width = 742;
}
);
leftKerningGroup = U;
leftMetricsKey = U;
rightKerningGroup = U;
rightMetricsKey = U;
unicode = 0172;
},
{
glyphname = V;
lastChange = "2016-09-21 09:42:29 +0000";
layers = (
{
anchors = (
{
name = bottom;
position = "{377, 0}";
},
{
name = top;
position = "{376, 728}";
}
);
layerId = "440A02D1-6D9B-498A-89D0-C24C9D9BC992";
paths = (
{
closed = 1;
nodes = (
"441 0 LINE",
"770 728 LINE",
"605 728 LINE",
"354 148 LINE",
"402 148 LINE",
"152 728 LINE",
"-17 728 LINE",
"311 0 LINE"
);
}
);
width = 753;
},
{
anchors = (
{
name = bottom;
position = "{349, 0}";
},
{
name = top;
position = "{348, 728}";
}
);
layerId = "E86C9AF2-1279-4BB3-9660-79C369E244F4";
paths = (
{
closed = 1;
nodes = (
"374 0 LINE",
"688 728 LINE",
"633 728 LINE",
"336 36 LINE",
"363 36 LINE",
"65 728 LINE",
"10 728 LINE",
"323 0 LINE"
);
}
);
width = 697;
}
);
leftKerningGroup = V;
rightKerningGroup = V;
unicode = 0056;
userData = {
anchors = (
);
b = {
};
com.typemytype.robofont.guides = (
);
com.typemytype.robofont.layerData = {
b = {
anchors = (
);
components = (
);
contours = (
{
points = (
{
segmentType = curve;
smooth = 1;
x = 644;
y = "-5";
},
{
smooth = 0;
x = 712;
y = "-5";
},
{
smooth = 0;
x = 764;
y = 38;
},
{
segmentType = curve;
smooth = 1;
x = 793;
y = 117;
},
{
segmentType = line;
smooth = 1;
x = 1243;
y = 1324;
},
{
smooth = 0;
x = 1247;
y = 1335;
},
{
smooth = 0;
x = 1248;
y = 1342;
},
{
segmentType = curve;
smooth = 1;
x = 1248;
y = 1351;
},
{
smooth = 0;
x = 1248;
y = 1395;
},
{
smooth = 0;
x = 1203;
y = 1427;
},
{
segmentType = curve;
smooth = 1;
x = 1160;
y = 1427;
},
{
smooth = 0;
x = 1125;
y = 1427;
},
{
smooth = 0;
x = 1090;
y = 1408;
},
{
segmentType = curve;
smooth = 1;
x = 1076;
y = 1369;
},
{
segmentType = line;
smooth = 0;
x = 651;
y = 192;
},
{
segmentType = line;
smooth = 0;
x = 650;
y = 190;
},
{
segmentType = line;
smooth = 1;
x = 214;
y = 1370;
},
{
smooth = 0;
x = 200;
y = 1407;
},
{
smooth = 0;
x = 170;
y = 1427;
},
{
segmentType = curve;
smooth = 1;
x = 135;
y = 1427;
},
{
smooth = 0;
x = 90;
y = 1427;
},
{
smooth = 0;
x = 43;
y = 1392;
},
{
segmentType = curve;
smooth = 1;
x = 43;
y = 1344;
},
{
smooth = 0;
x = 43;
y = 1336;
},
{
smooth = 0;
x = 44;
y = 1326;
},
{
segmentType = curve;
smooth = 0;
x = 48;
y = 1318;
},
{
segmentType = line;
smooth = 1;
x = 501;
y = 117;
},
{
smooth = 0;
x = 532;
y = 35;
},
{
smooth = 0;
x = 581;
y = "-5";
}
);
}
);
lib = {
};
name = V;
unicodes = (
);
width = 1289;
};
};
components = (
);
contours = (
);
lib = {
};
name = V;
unicodes = (
);
width = 1365;
};
},
{
glyphname = W;
lastChange = "2016-09-21 09:42:29 +0000";
layers = (
{
anchors = (
{
name = bottom;
position = "{576, 0}";
},
{
name = top;
position = "{576, 728}";
}
);
layerId = "440A02D1-6D9B-498A-89D0-C24C9D9BC992";
paths = (
{
closed = 1;
nodes = (
"407 0 LINE",
"589 514 LINE",
"565 514 LINE",
"745 0 LINE",
"875 0 LINE",
"1133 728 LINE",
"979 728 LINE",
"789 168 LINE",
"825 168 LINE",
"637 728 LINE",
"525 728 LINE",
"327 168 LINE",
"369 168 LINE",
"183 728 LINE",
"19 728 LINE",
"277 0 LINE"
);
}
);
width = 1152;
},
{
anchors = (
{
name = bottom;
position = "{566, 0}";
},
{
name = top;
position = "{565, 728}";
}
);
layerId = "E86C9AF2-1279-4BB3-9660-79C369E244F4";
paths = (
{
closed = 1;
nodes = (
"342 0 LINE",
"576 673 LINE",
"555 673 LINE",
"789 0 LINE",
"837 0 LINE",
"1090 728 LINE",
"1036 728 LINE",
"796 33 LINE",
"827 33 LINE",
"588 727 LINE",
"543 728 LINE",
"304 33 LINE",
"333 33 LINE",
"94 728 LINE",
"40 728 LINE",
"293 0 LINE"
);
}
);
width = 1131;
}
);
leftKerningGroup = V;
rightKerningGroup = V;
unicode = 0057;
userData = {
anchors = (
);
b = {
};
com.typemytype.robofont.layerData = {
b = {
anchors = (
);
components = (
);
contours = (
);
lib = {
};
name = W;
unicodes = (
);
width = 2126;
};
};
components = (
);
contours = (
);
lib = {
};
name = W;
unicodes = (
);
width = 2070;
};
},
{
glyphname = X;
lastChange = "2016-09-21 09:42:29 +0000";
layers = (
{
anchors = (
{
name = bottom;
position = "{349, 0}";
},
{
name = top;
position = "{348, 728}";
}
);
layerId = "440A02D1-6D9B-498A-89D0-C24C9D9BC992";
paths = (
{
closed = 1;
nodes = (
"348 250 LINE",
"440 369 LINE",
"711 728 LINE",
"523 728 LINE",
"348 487 LINE",
"257 369 LINE",
"-21 0 LINE",
"167 0 LINE"
);
},
{
closed = 1;
nodes = (
"718 0 LINE",
"440 369 LINE",
"348 487 LINE",
"175 728 LINE",
"-13 728 LINE",
"257 369 LINE",
"348 250 LINE",
"529 0 LINE"
);
}
);
width = 697;
},
{
anchors = (
{
name = bottom;
position = "{328, 0}";
},
{
name = top;
position = "{328, 728}";
}
);
layerId = "E86C9AF2-1279-4BB3-9660-79C369E244F4";
paths = (
{
closed = 1;
nodes = (
"328 333 LINE",
"359 373 LINE",
"620 728 LINE",
"558 728 LINE",
"330 415 LINE",
"297 374 LINE",
"21 0 LINE",
"85 0 LINE"
);
},
{
closed = 1;
nodes = (
"634 0 LINE",
"359 373 LINE",
"330 415 LINE",
"100 728 LINE",
"36 728 LINE",
"297 374 LINE",
"328 333 LINE",
"571 0 LINE"
);
}
);
width = 655;
}
);
leftKerningGroup = X;
rightKerningGroup = X;
unicode = 0058;
userData = {
anchors = (
);
b = {
};
com.typemytype.robofont.layerData = {
b = {
anchors = (
);
components = (
);
contours = (
{
points = (
{
segmentType = curve;
smooth = 1;
x = 151;
y = 0;
},
{
smooth = 0;
x = 176;
y = 0;
},
{
smooth = 0;
x = 201;
y = 12;
},
{
segmentType = curve;
smooth = 1;
x = 222;
y = 41;
},
{
segmentType = line;
smooth = 0;
x = 641;
y = 616;
},
{
segmentType = line;
smooth = 0;
x = 746;
y = 734;
},
{
segmentType = line;
smooth = 1;
x = 1175;
y = 1310;
},
{
smooth = 0;
x = 1186;
y = 1325;
},
{
smooth = 0;
x = 1190;
y = 1338;
},
{
segmentType = curve;
smooth = 1;
x = 1190;
y = 1353;
},
{
smooth = 0;
x = 1190;
y = 1393;
},
{
smooth = 0;
x = 1153;
y = 1426;
},
{
segmentType = curve;
smooth = 1;
x = 1110;
y = 1426;
},
{
smooth = 0;
x = 1083;
y = 1426;
},
{
smooth = 0;
x = 1058;
y = 1414;
},
{
segmentType = curve;
smooth = 1;
x = 1037;
y = 1385;
},
{
segmentType = line;
smooth = 0;
x = 648;
y = 844;
},
{
segmentType = line;
smooth = 0;
x = 542;
y = 732;
},
{
segmentType = line;
smooth = 1;
x = 84;
y = 121;
},
{
smooth = 0;
x = 73;
y = 106;
},
{
smooth = 0;
x = 68;
y = 91;
},
{
segmentType = curve;
smooth = 1;
x = 68;
y = 76;
},
{
smooth = 0;
x = 68;
y = 35;
},
{
smooth = 0;
x = 108;
y = 0;
}
);
},
{
points = (
{
segmentType = curve;
smooth = 1;
x = 1104;
y = 0;
},
{
smooth = 0;
x = 1151;
y = 0;
},
{
smooth = 0;
x = 1200;
y = 40;
},
{
segmentType = curve;
smooth = 1;
x = 1200;
y = 85;
},
{
smooth = 0;
x = 1200;
y = 98;
},
{
smooth = 0;
x = 1195;
y = 113;
},
{
segmentType = curve;
smooth = 0;
x = 1186;
y = 126;
},
{
segmentType = line;
smooth = 0;
x = 272;
y = 1385;
},
{
smooth = 0;
x = 252;
y = 1414;
},
{
smooth = 0;
x = 225;
y = 1426;
},
{
segmentType = curve;
smooth = 1;
x = 197;
y = 1426;
},
{
smooth = 0;
x = 149;
y = 1426;
},
{
smooth = 0;
x = 100;
y = 1388;
},
{
segmentType = curve;
smooth = 1;
x = 100;
y = 1343;
},
{
smooth = 0;
x = 100;
y = 1328;
},
{
smooth = 0;
x = 105;
y = 1315;
},
{
segmentType = curve;
smooth = 0;
x = 114;
y = 1303;
},
{
segmentType = line;
smooth = 0;
x = 1033;
y = 40;
},
{
smooth = 0;
x = 1052;
y = 13;
},
{
smooth = 0;
x = 1076;
y = 0;
}
);
}
);
lib = {
};
name = X;
unicodes = (
);
width = 1274;
};
};
components = (
);
contours = (
);
lib = {
};
name = X;
unicodes = (
);
width = 1322;
};
},
{
glyphname = Y;
lastChange = "2016-09-21 09:42:29 +0000";
layers = (
{
anchors = (
{
name = bottom;
position = "{330, 0}";
},
{
name = top;
position = "{329, 728}";
},
{
name = topleft;
position = "{20, 728}";
}
);
layerId = "440A02D1-6D9B-498A-89D0-C24C9D9BC992";
paths = (
{
closed = 1;
nodes = (
"410 0 LINE",
"410 327 LINE",
"377 234 LINE",
"712 728 LINE",
"528 728 LINE",
"306 384 LINE",
"350 384 LINE",
"130 728 LINE",
"-53 728 LINE",
"281 234 LINE",
"248 327 LINE",
"248 0 LINE"
);
}
);
width = 658;
},
{
anchors = (
{
name = bottom;
position = "{302, 0}";
},
{
name = top;
position = "{302, 728}";
},
{
name = topleft;
position = "{20, 728}";
}
);
layerId = "E86C9AF2-1279-4BB3-9660-79C369E244F4";
paths = (
{
closed = 1;
nodes = (
"329 0 LINE",
"329 327 LINE",
"317 282 LINE",
"609 728 LINE",
"547 728 LINE",
"292 334 LINE",
"315 334 LINE",
"59 728 LINE",
"-4 728 LINE",
"288 282 LINE",
"276 327 LINE",
"276 0 LINE"
);
}
);
width = 605;
}
);
leftKerningGroup = Y;
rightKerningGroup = Y;
unicode = 0059;
userData = {
anchors = (
);
b = {
};
com.typemytype.robofont.guides = (
);
com.typemytype.robofont.layerData = {
b = {
anchors = (
);
components = (
);
contours = (
{
points = (
{
segmentType = curve;
smooth = 1;
x = 641;
y = 0;
},
{
smooth = 0;
x = 685;
y = 0;
},
{
smooth = 0;
x = 730;
y = 29;
},
{
segmentType = curve;
smooth = 1;
x = 730;
y = 85;
},
{
segmentType = line;
smooth = 0;
x = 730;
y = 1285;
},
{
segmentType = line;
smooth = 1;
x = 1115;
y = 1285;
},
{
smooth = 0;
x = 1164;
y = 1285;
},
{
smooth = 0;
x = 1190;
y = 1319;
},
{
segmentType = curve;
smooth = 1;
x = 1190;
y = 1355;
},
{
smooth = 0;
x = 1190;
y = 1392;
},
{
smooth = 0;
x = 1166;
y = 1426;
},
{
segmentType = curve;
smooth = 1;
x = 1115;
y = 1426;
},
{
segmentType = line;
smooth = 1;
x = 160;
y = 1426;
},
{
smooth = 0;
x = 111;
y = 1426;
},
{
smooth = 0;
x = 86;
y = 1392;
},
{
segmentType = curve;
smooth = 1;
x = 86;
y = 1355;
},
{
smooth = 0;
x = 86;
y = 1319;
},
{
smooth = 0;
x = 111;
y = 1285;
},
{
segmentType = curve;
smooth = 1;
x = 160;
y = 1285;
},
{
segmentType = line;
smooth = 0;
x = 552;
y = 1285;
},
{
segmentType = line;
smooth = 1;
x = 552;
y = 85;
},
{
smooth = 0;
x = 552;
y = 29;
},
{
smooth = 0;
x = 596;
y = 0;
}
);
}
);
lib = {
};
name = Y;
unicodes = (
);
width = 1278;
};
};
components = (
);
contours = (
);
lib = {
};
name = Y;
unicodes = (
);
width = 1321;
};
},
{
glyphname = Z;
lastChange = "2016-09-21 09:42:29 +0000";
layers = (
{
anchors = (
{
name = bottom;
position = "{313, 0}";
},
{
name = top;
position = "{316, 728}";
}
);
layerId = "440A02D1-6D9B-498A-89D0-C24C9D9BC992";
paths = (
{
closed = 1;
nodes = (
"594 0 LINE",
"594 128 LINE",
"201 128 LINE",
"199 83 LINE",
"583 611 LINE",
"583 728 LINE",
"52 728 LINE",
"52 600 LINE",
"432 600 LINE",
"433 646 LINE",
"52 119 LINE",
"52 0 LINE"
);
}
);
width = 630;
},
{
anchors = (
{
name = bottom;
position = "{308, 0}";
},
{
name = top;
position = "{300, 728}";
}
);
layerId = "E86C9AF2-1279-4BB3-9660-79C369E244F4";
paths = (
{
closed = 1;
nodes = (
"562 0 LINE",
"562 48 LINE",
"82 48 LINE",
"80 6 LINE",
"552 688 LINE",
"552 728 LINE",
"44 728 LINE",
"44 681 LINE",
"515 681 LINE",
"517 722 LINE",
"44 39 LINE",
"44 0 LINE"
);
}
);
width = 600;
}
);
leftKerningGroup = Z;
rightKerningGroup = Z;
unicode = 005A;
userData = {
anchors = (
);
b = {
};
com.typemytype.robofont.layerData = {
b = {
anchors = (
);
components = (
);
contours = (
{
points = (
{
segmentType = curve;
smooth = 1;
x = 266;
y = 0;
},
{
segmentType = line;
smooth = 1;
x = 1035;
y = 0;
},
{
smooth = 0;
x = 1084;
y = 0;
},
{
smooth = 0;
x = 1108;
y = 34;
},
{
segmentType = curve;
smooth = 1;
x = 1108;
y = 71;
},
{
smooth = 0;
x = 1108;
y = 107;
},
{
smooth = 0;
x = 1084;
y = 141;
},
{
segmentType = curve;
smooth = 1;
x = 1035;
y = 141;
},
{
segmentType = line;
smooth = 0;
x = 356;
y = 141;
},
{
segmentType = line;
smooth = 0;
x = 356;
y = 665;
},
{
segmentType = line;
smooth = 1;
x = 975;
y = 665;
},
{
smooth = 0;
x = 1024;
y = 665;
},
{
smooth = 0;
x = 1049;
y = 698;
},
{
segmentType = curve;
smooth = 1;
x = 1049;
y = 734;
},
{
smooth = 0;
x = 1049;
y = 770;
},
{
smooth = 0;
x = 1026;
y = 803;
},
{
segmentType = curve;
smooth = 1;
x = 975;
y = 803;
},
{
segmentType = line;
smooth = 0;
x = 356;
y = 803;
},
{
segmentType = line;
smooth = 0;
x = 356;
y = 1285;
},
{
segmentType = line;
smooth = 1;
x = 1007;
y = 1285;
},
{
smooth = 0;
x = 1056;
y = 1285;
},
{
smooth = 0;
x = 1080;
y = 1319;
},
{
segmentType = curve;
smooth = 1;
x = 1080;
y = 1356;
},
{
smooth = 0;
x = 1080;
y = 1392;
},
{
smooth = 0;
x = 1056;
y = 1426;
},
{
segmentType = curve;
smooth = 1;
x = 1007;
y = 1426;
},
{
segmentType = line;
smooth = 1;
x = 261;
y = 1426;
},
{
smooth = 0;
x = 213;
y = 1426;
},
{
smooth = 0;
x = 178;
y = 1383;
},
{
segmentType = curve;
smooth = 1;
x = 178;
y = 1340;
},
{
segmentType = line;
smooth = 1;
x = 178;
y = 86;
},
{
smooth = 0;
x = 178;
y = 41;
},
{
smooth = 0;
x = 222;
y = 0;
}
);
}
);
lib = {
};
name = Z;
unicodes = (
);
width = 1165;
};
};
components = (
);
contours = (
);
lib = {
};
name = Z;
unicodes = (
);
width = 1222;
};
},
{
color = 3;
glyphname = a;
lastChange = "2016-09-21 09:42:29 +0000";
layers = (
{
anchors = (
{
name = bottom;
position = "{316, 0}";
},
{
name = ogonek;
position = "{548, 10}";
},
{
name = top;
position = "{316, 511}";
}
);
layerId = "440A02D1-6D9B-498A-89D0-C24C9D9BC992";
paths = (
{
closed = 1;
nodes = (
"340 -8 OFFCURVE",
"407 33 OFFCURVE",
"430 100 CURVE",
"418 102 LINE",
"418 0 LINE",
"573 0 LINE",
"573 507 LINE",
"418 507 LINE",
"418 403 LINE",
"430 411 LINE",
"407 477 OFFCURVE",
"340 520 OFFCURVE",
"259 520 CURVE SMOOTH",
"128 520 OFFCURVE",
"35 412 OFFCURVE",
"35 253 CURVE SMOOTH",
"35 94 OFFCURVE",
"127 -8 OFFCURVE",
"259 -8 CURVE SMOOTH"
);
},
{
closed = 1;
nodes = (
"232 111 OFFCURVE",
"191 161 OFFCURVE",
"191 253 CURVE SMOOTH",
"191 346 OFFCURVE",
"234 400 OFFCURVE",
"305 400 CURVE SMOOTH",
"377 400 OFFCURVE",
"418 349 OFFCURVE",
"418 255 CURVE SMOOTH",
"418 162 OFFCURVE",
"377 111 OFFCURVE",
"305 111 CURVE SMOOTH"
);
}
);
width = 633;
},
{
anchors = (
{
name = bottom;
position = "{295, 0}";
},
{
name = ogonek;
position = "{500, 10}";
},
{
name = top;
position = "{295, 506}";
}
);
layerId = "E86C9AF2-1279-4BB3-9660-79C369E244F4";
paths = (
{
closed = 1;
nodes = (
"371 -7 OFFCURVE",
"438 42 OFFCURVE",
"461 132 CURVE",
"449 140 LINE",
"449 0 LINE",
"503 0 LINE",
"503 501 LINE",
"449 501 LINE",
"449 366 LINE",
"461 375 LINE",
"438 464 OFFCURVE",
"371 513 OFFCURVE",
"275 513 CURVE SMOOTH",
"142 513 OFFCURVE",
"52 409 OFFCURVE",
"52 251 CURVE SMOOTH",
"52 94 OFFCURVE",
"140 -7 OFFCURVE",
"275 -7 CURVE SMOOTH"
);
},
{
closed = 1;
nodes = (
"173 42 OFFCURVE",
"109 118 OFFCURVE",
"109 251 CURVE SMOOTH",
"109 385 OFFCURVE",
"173 464 OFFCURVE",
"280 464 CURVE SMOOTH",
"388 464 OFFCURVE",
"449 388 OFFCURVE",
"449 253 CURVE SMOOTH",
"449 119 OFFCURVE",
"388 42 OFFCURVE",
"281 42 CURVE SMOOTH"
);
}
);
width = 588;
}
);
leftKerningGroup = o;
leftMetricsKey = o;
rightKerningGroup = u;
unicode = 0061;
userData = {
anchors = (
);
b = {
};
com.typemytype.robofont.layerData = {
b = {
anchors = (
);
components = (
);
contours = (
);
lib = {
};
name = p;
unicodes = (
);
width = 1181;
};
};
components = (
);
contours = (
);
lib = {
};
name = p;
unicodes = (
);
width = 1207;
};
},
{
color = 3;
glyphname = aogonek;
lastChange = "2016-09-21 09:42:29 +0000";
layers = (
{
layerId = "440A02D1-6D9B-498A-89D0-C24C9D9BC992";
paths = (
{
closed = 1;
nodes = (
"573 507 LINE",
"418 507 LINE",
"418 403 LINE",
"430 411 LINE",
"407 477 OFFCURVE",
"340 520 OFFCURVE",
"259 520 CURVE SMOOTH",
"127 520 OFFCURVE",
"35 410 OFFCURVE",
"35 253 CURVE SMOOTH",
"35 96 OFFCURVE",
"125 -8 OFFCURVE",
"259 -8 CURVE SMOOTH",
"340 -8 OFFCURVE",
"407 33 OFFCURVE",
"430 100 CURVE",
"418 103 LINE",
"418 0 LINE",
"462 0 LINE",
"475 38 LINE",
"413 13 OFFCURVE",
"377 -32 OFFCURVE",
"377 -88 CURVE SMOOTH",
"377 -156 OFFCURVE",
"432 -204 OFFCURVE",
"508 -204 CURVE SMOOTH",
"545 -204 OFFCURVE",
"582 -196 OFFCURVE",
"613 -183 CURVE",
"595 -109 LINE",
"575 -118 OFFCURVE",
"557 -122 OFFCURVE",
"539 -122 CURVE SMOOTH",
"499 -122 OFFCURVE",
"477 -103 OFFCURVE",
"477 -67 CURVE SMOOTH",
"477 -27 OFFCURVE",
"512 0 OFFCURVE",
"564 0 CURVE SMOOTH",
"573 0 LINE"
);
},
{
closed = 1;
nodes = (
"232 111 OFFCURVE",
"191 161 OFFCURVE",
"191 253 CURVE SMOOTH",
"191 346 OFFCURVE",
"234 400 OFFCURVE",
"305 400 CURVE SMOOTH",
"377 400 OFFCURVE",
"418 349 OFFCURVE",
"418 255 CURVE SMOOTH",
"418 162 OFFCURVE",
"377 111 OFFCURVE",
"305 111 CURVE SMOOTH"
);
}
);
width = 633;
},
{
layerId = "E86C9AF2-1279-4BB3-9660-79C369E244F4";
paths = (
{
closed = 1;
nodes = (
"503 501 LINE",
"449 501 LINE",
"449 366 LINE",
"461 375 LINE",
"438 464 OFFCURVE",
"371 513 OFFCURVE",
"275 513 CURVE SMOOTH",
"142 513 OFFCURVE",
"52 409 OFFCURVE",
"52 251 CURVE SMOOTH",
"52 94 OFFCURVE",
"140 -7 OFFCURVE",
"275 -7 CURVE SMOOTH",
"371 -7 OFFCURVE",
"438 42 OFFCURVE",
"461 132 CURVE",
"449 114 LINE",
"449 0 LINE",
"466 0 LINE",
"487 39 LINE",
"404 26 OFFCURVE",
"353 -24 OFFCURVE",
"353 -91 CURVE SMOOTH",
"353 -154 OFFCURVE",
"400 -197 OFFCURVE",
"469 -197 CURVE SMOOTH",
"501 -197 OFFCURVE",
"530 -189 OFFCURVE",
"552 -174 CURVE",
"535 -134 LINE",
"513 -147 OFFCURVE",
"492 -154 OFFCURVE",
"474 -154 CURVE SMOOTH",
"431 -154 OFFCURVE",
"404 -127 OFFCURVE",
"404 -85 CURVE SMOOTH",
"404 -35 OFFCURVE",
"443 0 OFFCURVE",
"499 0 CURVE SMOOTH",
"503 0 LINE"
);
},
{
closed = 1;
nodes = (
"173 42 OFFCURVE",
"109 118 OFFCURVE",
"109 251 CURVE SMOOTH",
"109 385 OFFCURVE",
"173 464 OFFCURVE",
"280 464 CURVE SMOOTH",
"388 464 OFFCURVE",
"449 388 OFFCURVE",
"449 253 CURVE SMOOTH",
"449 119 OFFCURVE",
"388 42 OFFCURVE",
"281 42 CURVE SMOOTH"
);
}
);
width = 588;
}
);
leftKerningGroup = o;
leftMetricsKey = o;
widthMetricsKey = a;
rightKerningGroup = u;
unicode = 0105;
userData = {
com.typemytype.robofont.layerData = {
b = {
anchors = (
);
components = (
);
contours = (
);
lib = {
};
name = aogonek;
unicodes = (
);
width = 1040;
};
};
};
},
{
color = 3;
glyphname = aringacute;
lastChange = "2016-09-21 09:42:29 +0000";
layers = (
{
layerId = "440A02D1-6D9B-498A-89D0-C24C9D9BC992";
paths = (
{
closed = 1;
nodes = (
"340 -8 OFFCURVE",
"407 33 OFFCURVE",
"430 100 CURVE",
"418 102 LINE",
"418 0 LINE",
"573 0 LINE",
"573 507 LINE",
"418 507 LINE",
"418 403 LINE",
"430 411 LINE",
"407 477 OFFCURVE",
"340 520 OFFCURVE",
"259 520 CURVE SMOOTH",
"128 520 OFFCURVE",
"35 412 OFFCURVE",
"35 253 CURVE SMOOTH",
"35 94 OFFCURVE",
"127 -8 OFFCURVE",
"259 -8 CURVE SMOOTH"
);
},
{
closed = 1;
nodes = (
"232 111 OFFCURVE",
"191 161 OFFCURVE",
"191 253 CURVE SMOOTH",
"191 346 OFFCURVE",
"234 400 OFFCURVE",
"305 400 CURVE SMOOTH",
"377 400 OFFCURVE",
"418 349 OFFCURVE",
"418 255 CURVE SMOOTH",
"418 162 OFFCURVE",
"377 111 OFFCURVE",
"305 111 CURVE SMOOTH"
);
},
{
closed = 1;
nodes = (
"379 568 OFFCURVE",
"430 617 OFFCURVE",
"430 680 CURVE SMOOTH",
"430 742 OFFCURVE",
"379 790 OFFCURVE",
"316 790 CURVE SMOOTH",
"253 790 OFFCURVE",
"204 742 OFFCURVE",
"204 680 CURVE SMOOTH",
"204 617 OFFCURVE",
"253 568 OFFCURVE",
"316 568 CURVE SMOOTH"
);
},
{
closed = 1;
nodes = (
"290 632 OFFCURVE",
"272 654 OFFCURVE",
"272 680 CURVE SMOOTH",
"272 706 OFFCURVE",
"290 726 OFFCURVE",
"316 726 CURVE SMOOTH",
"342 726 OFFCURVE",
"361 706 OFFCURVE",
"361 680 CURVE SMOOTH",
"361 654 OFFCURVE",
"342 632 OFFCURVE",
"316 632 CURVE SMOOTH"
);
},
{
closed = 1;
nodes = (
"569 876 LINE",
"433 882 LINE",
"351 767 LINE",
"410 717 LINE"
);
}
);
width = 633;
},
{
layerId = "E86C9AF2-1279-4BB3-9660-79C369E244F4";
paths = (
{
closed = 1;
nodes = (
"371 -7 OFFCURVE",
"438 42 OFFCURVE",
"461 132 CURVE",
"449 140 LINE",
"449 0 LINE",
"503 0 LINE",
"503 501 LINE",
"449 501 LINE",
"449 366 LINE",
"461 375 LINE",
"438 464 OFFCURVE",
"371 513 OFFCURVE",
"275 513 CURVE SMOOTH",
"142 513 OFFCURVE",
"52 409 OFFCURVE",
"52 251 CURVE SMOOTH",
"52 94 OFFCURVE",
"140 -7 OFFCURVE",
"275 -7 CURVE SMOOTH"
);
},
{
closed = 1;
nodes = (
"173 42 OFFCURVE",
"109 118 OFFCURVE",
"109 251 CURVE SMOOTH",
"109 385 OFFCURVE",
"173 464 OFFCURVE",
"280 464 CURVE SMOOTH",
"388 464 OFFCURVE",
"449 388 OFFCURVE",
"449 253 CURVE SMOOTH",
"449 119 OFFCURVE",
"388 42 OFFCURVE",
"281 42 CURVE SMOOTH"
);
},
{
closed = 1;
nodes = (
"350 573 OFFCURVE",
"396 617 OFFCURVE",
"396 672 CURVE SMOOTH",
"396 728 OFFCURVE",
"350 772 OFFCURVE",
"295 772 CURVE SMOOTH",
"240 772 OFFCURVE",
"194 728 OFFCURVE",
"194 672 CURVE SMOOTH",
"194 617 OFFCURVE",
"240 573 OFFCURVE",
"295 573 CURVE SMOOTH"
);
},
{
closed = 1;
nodes = (
"265 619 OFFCURVE",
"243 643 OFFCURVE",
"243 672 CURVE SMOOTH",
"243 702 OFFCURVE",
"265 726 OFFCURVE",
"295 726 CURVE SMOOTH",
"325 726 OFFCURVE",
"347 702 OFFCURVE",
"347 672 CURVE SMOOTH",
"347 643 OFFCURVE",
"325 619 OFFCURVE",
"295 619 CURVE SMOOTH"
);
},
{
closed = 1;
nodes = (
"370 718 LINE",
"506 876 LINE",
"436 878 LINE",
"329 721 LINE"
);
}
);
width = 588;
}
);
leftKerningGroup = o;
leftMetricsKey = o;
widthMetricsKey = a;
rightKerningGroup = u;
unicode = 01FB;
},
{
color = 3;
glyphname = ae;
lastChange = "2016-09-21 09:42:29 +0000";
layers = (
{
anchors = (
{
name = bottom;
position = "{431, 0}";
},
{
name = top;
position = "{431, 511}";
}
);
layerId = "440A02D1-6D9B-498A-89D0-C24C9D9BC992";
paths = (
{
closed = 1;
nodes = (
"697 -8 OFFCURVE",
"774 15 OFFCURVE",
"822 54 CURVE",
"781 159 LINE",
"736 127 OFFCURVE",
"683 109 OFFCURVE",
"636 109 CURVE SMOOTH",
"542 109 OFFCURVE",
"505 166 OFFCURVE",
"505 251 CURVE SMOOTH",
"505 365 OFFCURVE",
"542 411 OFFCURVE",
"609 411 CURVE SMOOTH",
"667 411 OFFCURVE",
"699 367 OFFCURVE",
"698 286 CURVE",
"737 317 LINE",
"495 317 LINE",
"494 240 LINE",
"831 240 LINE",
"831 262 LINE SMOOTH",
"831 416 OFFCURVE",
"743 520 OFFCURVE",
"613 520 CURVE SMOOTH",
"471 520 OFFCURVE",
"376 413 OFFCURVE",
"376 255 CURVE SMOOTH",
"377 87 OFFCURVE",
"467 -8 OFFCURVE",
"626 -8 CURVE SMOOTH"
);
},
{
closed = 1;
nodes = (
"359 -8 OFFCURVE",
"439 67 OFFCURVE",
"439 198 CURVE",
"490 208 LINE",
"490 300 LINE SMOOTH",
"490 450 OFFCURVE",
"425 520 OFFCURVE",
"284 520 CURVE SMOOTH",
"211 520 OFFCURVE",
"117 493 OFFCURVE",
"60 457 CURVE",
"101 351 LINE",
"156 383 OFFCURVE",
"220 402 OFFCURVE",
"275 402 CURVE SMOOTH",
"333 402 OFFCURVE",
"356 378 OFFCURVE",
"356 320 CURVE SMOOTH",
"356 209 LINE SMOOTH",
"356 148 OFFCURVE",
"325 100 OFFCURVE",
"263 100 CURVE SMOOTH",
"220 100 OFFCURVE",
"191 125 OFFCURVE",
"191 165 CURVE SMOOTH",
"191 215 OFFCURVE",
"229 242 OFFCURVE",
"328 242 CURVE SMOOTH",
"363 242 LINE",
"363 317 LINE",
"319 317 LINE SMOOTH",
"117 317 OFFCURVE",
"39 269 OFFCURVE",
"39 159 CURVE SMOOTH",
"39 59 OFFCURVE",
"125 -8 OFFCURVE",
"242 -8 CURVE SMOOTH"
);
}
);
width = 865;
},
{
anchors = (
{
name = bottom;
position = "{436, 0}";
},
{
name = top;
position = "{436, 506}";
}
);
layerId = "E86C9AF2-1279-4BB3-9660-79C369E244F4";
paths = (
{
closed = 1;
nodes = (
"714 -7 OFFCURVE",
"787 21 OFFCURVE",
"829 62 CURVE",
"808 105 LINE",
"755 63 OFFCURVE",
"701 42 OFFCURVE",
"646 42 CURVE SMOOTH",
"529 42 OFFCURVE",
"463 117 OFFCURVE",
"463 254 CURVE SMOOTH",
"463 385 OFFCURVE",
"529 467 OFFCURVE",
"634 467 CURVE SMOOTH",
"735 467 OFFCURVE",
"791 395 OFFCURVE",
"788 264 CURVE",
"808 304 LINE",
"442 304 LINE",
"443 259 LINE",
"838 259 LINE",
"838 270 LINE SMOOTH",
"838 422 OFFCURVE",
"762 513 OFFCURVE",
"634 513 CURVE SMOOTH",
"501 513 OFFCURVE",
"409 405 OFFCURVE",
"414 249 CURVE SMOOTH",
"419 87 OFFCURVE",
"505 -7 OFFCURVE",
"647 -7 CURVE SMOOTH"
);
},
{
closed = 1;
nodes = (
"357 -7 OFFCURVE",
"430 64 OFFCURVE",
"442 177 CURVE",
"461 176 LINE",
"461 331 LINE",
"461 451 OFFCURVE",
"402 513 OFFCURVE",
"283 513 CURVE SMOOTH",
"215 513 OFFCURVE",
"139 490 OFFCURVE",
"90 452 CURVE",
"112 409 LINE",
"171 446 OFFCURVE",
"226 464 OFFCURVE",
"287 464 CURVE SMOOTH",
"373 464 OFFCURVE",
"408 422 OFFCURVE",
"408 324 CURVE SMOOTH",
"408 215 LINE SMOOTH",
"408 113 OFFCURVE",
"342 42 OFFCURVE",
"251 42 CURVE SMOOTH",
"179 42 OFFCURVE",
"127 85 OFFCURVE",
"127 152 CURVE SMOOTH",
"127 228 OFFCURVE",
"183 259 OFFCURVE",
"368 259 CURVE SMOOTH",
"419 259 LINE",
"419 304 LINE",
"366 304 LINE SMOOTH",
"145 304 OFFCURVE",
"68 258 OFFCURVE",
"69 147 CURVE SMOOTH",
"70 56 OFFCURVE",
"147 -7 OFFCURVE",
"248 -7 CURVE SMOOTH"
);
}
);
width = 887;
}
);
leftKerningGroup = a;
rightKerningGroup = e;
rightMetricsKey = e;
unicode = 00E6;
userData = {
com.typemytype.robofont.layerData = {
b = {
anchors = (
);
components = (
);
contours = (
);
lib = {
};
name = ae;
unicodes = (
);
width = 1734;
};
};
};
},
{
color = 3;
glyphname = b;
lastChange = "2016-09-21 09:42:29 +0000";
layers = (
{
anchors = (
{
name = bottom;
position = "{318, 0}";
},
{
name = top;
position = "{375, 511}";
}
);
layerId = "440A02D1-6D9B-498A-89D0-C24C9D9BC992";
paths = (
{
closed = 1;
nodes = (
"215 0 LINE",
"215 123 LINE",
"204 100 LINE",
"226 33 OFFCURVE",
"293 -8 OFFCURVE",
"375 -8 CURVE SMOOTH",
"506 -8 OFFCURVE",
"599 99 OFFCURVE",
"599 258 CURVE SMOOTH",
"599 417 OFFCURVE",
"507 520 OFFCURVE",
"375 520 CURVE SMOOTH",
"293 520 OFFCURVE",
"226 477 OFFCURVE",
"204 411 CURVE",
"217 392 LINE",
"217 728 LINE",
"60 728 LINE",
"60 0 LINE"
);
},
{
closed = 1;
nodes = (
"256 111 OFFCURVE",
"215 162 OFFCURVE",
"215 256 CURVE SMOOTH",
"215 348 OFFCURVE",
"256 400 OFFCURVE",
"329 400 CURVE SMOOTH",
"402 400 OFFCURVE",
"442 349 OFFCURVE",
"442 258 CURVE SMOOTH",
"442 164 OFFCURVE",
"401 111 OFFCURVE",
"329 111 CURVE SMOOTH"
);
}
);
width = 634;
},
{
anchors = (
{
name = bottom;
position = "{311, 0}";
},
{
name = top;
position = "{313, 506}";
}
);
layerId = "E86C9AF2-1279-4BB3-9660-79C369E244F4";
paths = (
{
closed = 1;
nodes = (
"139 0 LINE",
"139 139 LINE",
"128 132 LINE",
"151 42 OFFCURVE",
"218 -7 OFFCURVE",
"313 -7 CURVE SMOOTH",
"446 -7 OFFCURVE",
"536 97 OFFCURVE",
"536 255 CURVE SMOOTH",
"536 412 OFFCURVE",
"447 513 OFFCURVE",
"313 513 CURVE SMOOTH",
"218 513 OFFCURVE",
"151 464 OFFCURVE",
"128 374 CURVE",
"138 367 LINE",
"138 728 LINE",
"85 728 LINE",
"85 0 LINE"
);
},
{
closed = 1;
nodes = (
"199 42 OFFCURVE",
"139 119 OFFCURVE",
"139 253 CURVE SMOOTH",
"139 387 OFFCURVE",
"199 464 OFFCURVE",
"308 464 CURVE SMOOTH",
"415 464 OFFCURVE",
"479 388 OFFCURVE",
"479 255 CURVE SMOOTH",
"479 121 OFFCURVE",
"415 42 OFFCURVE",
"309 42 CURVE SMOOTH"
);
}
);
width = 588;
}
);
leftKerningGroup = h;
rightKerningGroup = o;
rightMetricsKey = o;
unicode = 0062;
userData = {
anchors = (
);
b = {
};
com.typemytype.robofont.layerData = {
b = {
anchors = (
);
components = (
);
contours = (
{
points = (
{
segmentType = curve;
smooth = 1;
x = 238;
y = 1425;
},
{
smooth = 0;
x = 198;
y = 1425;
},
{
smooth = 0;
x = 158;
y = 1400;
},
{
segmentType = curve;
smooth = 1;
x = 158;
y = 1351;
},
{
segmentType = line;
smooth = 1;
x = 158;
y = 76;
},
{
smooth = 0;
x = 158;
y = 27;
},
{
smooth = 0;
x = 197;
y = 3;
},
{
segmentType = curve;
smooth = 1;
x = 237;
y = 3;
},
{
smooth = 0;
x = 297;
y = 3;
},
{
smooth = 0;
x = 318;
y = 38;
},
{
segmentType = curve;
smooth = 1;
x = 318;
y = 76;
},
{
segmentType = line;
smooth = 0;
x = 318;
y = 183;
},
{
smooth = 0;
x = 384;
y = 46;
},
{
smooth = 0;
x = 516;
y = "-20";
},
{
segmentType = curve;
smooth = 1;
x = 666;
y = "-20";
},
{
smooth = 0;
x = 957;
y = "-20";
},
{
smooth = 0;
x = 1095;
y = 225;
},
{
segmentType = curve;
smooth = 1;
x = 1095;
y = 502;
},
{
smooth = 0;
x = 1095;
y = 777;
},
{
smooth = 0;
x = 939;
y = 1013;
},
{
segmentType = curve;
smooth = 1;
x = 650;
y = 1013;
},
{
smooth = 0;
x = 503;
y = 1013;
},
{
smooth = 0;
x = 376;
y = 942;
},
{
segmentType = curve;
smooth = 0;
x = 318;
y = 814;
},
{
segmentType = line;
smooth = 1;
x = 318;
y = 1351;
},
{
smooth = 0;
x = 318;
y = 1400;
},
{
smooth = 0;
x = 278;
y = 1425;
}
);
},
{
points = (
{
segmentType = curve;
smooth = 1;
x = 632;
y = 903;
},
{
smooth = 0;
x = 859;
y = 903;
},
{
smooth = 0;
x = 935;
y = 685;
},
{
segmentType = curve;
smooth = 1;
x = 935;
y = 496;
},
{
smooth = 0;
x = 935;
y = 316;
},
{
smooth = 0;
x = 869;
y = 93;
},
{
segmentType = curve;
smooth = 0;
x = 645;
y = 90;
},
{
smooth = 0;
x = 395;
y = 90;
},
{
smooth = 0;
x = 319;
y = 279;
},
{
segmentType = curve;
smooth = 1;
x = 319;
y = 501;
},
{
smooth = 0;
x = 319;
y = 701;
},
{
smooth = 0;
x = 407;
y = 903;
}
);
}
);
lib = {
};
name = b;
unicodes = (
);
width = 1181;
};
};
components = (
);
contours = (
);
lib = {
};
name = b;
unicodes = (
);
width = 1203;
};
},
{
color = 3;
glyphname = c;
lastChange = "2016-09-21 09:42:29 +0000";
layers = (
{
anchors = (
{
name = bottom;
position = "{295, 0}";
},
{
name = top;
position = "{304, 511}";
}
);
layerId = "440A02D1-6D9B-498A-89D0-C24C9D9BC992";
paths = (
{
closed = 1;
nodes = (
"380 -8 OFFCURVE",
"456 15 OFFCURVE",
"500 54 CURVE",
"459 162 LINE",
"420 130 OFFCURVE",
"369 112 OFFCURVE",
"324 112 CURVE SMOOTH",
"243 112 OFFCURVE",
"196 160 OFFCURVE",
"196 256 CURVE SMOOTH",
"196 351 OFFCURVE",
"244 399 OFFCURVE",
"324 399 CURVE SMOOTH",
"369 399 OFFCURVE",
"420 380 OFFCURVE",
"459 349 CURVE",
"500 458 LINE",
"458 496 OFFCURVE",
"382 520 OFFCURVE",
"309 520 CURVE SMOOTH",
"144 520 OFFCURVE",
"35 413 OFFCURVE",
"35 253 CURVE SMOOTH",
"35 93 OFFCURVE",
"135 -8 OFFCURVE",
"302 -8 CURVE SMOOTH"
);
}
);
width = 510;
},
{
anchors = (
{
name = bottom;
position = "{282, 0}";
},
{
name = top;
position = "{284, 506}";
}
);
layerId = "E86C9AF2-1279-4BB3-9660-79C369E244F4";
paths = (
{
closed = 1;
nodes = (
"350 -7 OFFCURVE",
"417 19 OFFCURVE",
"459 60 CURVE",
"437 103 LINE",
"384 61 OFFCURVE",
"339 42 OFFCURVE",
"287 42 CURVE SMOOTH",
"177 42 OFFCURVE",
"109 119 OFFCURVE",
"109 251 CURVE SMOOTH",
"109 384 OFFCURVE",
"178 464 OFFCURVE",
"288 464 CURVE SMOOTH",
"339 464 OFFCURVE",
"384 445 OFFCURVE",
"437 403 CURVE",
"459 446 LINE",
"419 488 OFFCURVE",
"353 513 OFFCURVE",
"287 513 CURVE SMOOTH",
"144 513 OFFCURVE",
"52 408 OFFCURVE",
"52 251 CURVE SMOOTH",
"52 96 OFFCURVE",
"143 -7 OFFCURVE",
"285 -7 CURVE SMOOTH"
);
}
);
width = 489;
}
);
leftKerningGroup = o;
leftMetricsKey = o;
rightKerningGroup = c;
unicode = 0063;
userData = {
anchors = (
);
b = {
};
com.typemytype.robofont.layerData = {
b = {
anchors = (
);
components = (
);
contours = (
);
lib = {
};
name = c;
unicodes = (
);
width = 956.1410;
};
};
components = (
);
contours = (
);
lib = {
};
name = c;
unicodes = (
);
width = 992;
};
},
{
color = 3;
glyphname = d;
lastChange = "2016-09-21 09:42:29 +0000";
layers = (
{
anchors = (
{
name = bottom;
position = "{317, 0}";
},
{
name = center;
position = "{317, 256}";
},
{
name = top;
position = "{317, 511}";
},
{
name = topright;
position = "{600, 728}";
}
);
layerId = "440A02D1-6D9B-498A-89D0-C24C9D9BC992";
paths = (
{
closed = 1;
nodes = (
"573 728 LINE",
"416 728 LINE",
"416 392 LINE",
"430 411 LINE",
"407 477 OFFCURVE",
"340 520 OFFCURVE",
"259 520 CURVE SMOOTH",
"127 520 OFFCURVE",
"35 417 OFFCURVE",
"35 258 CURVE SMOOTH",
"35 99 OFFCURVE",
"128 -8 OFFCURVE",
"259 -8 CURVE SMOOTH",
"340 -8 OFFCURVE",
"407 33 OFFCURVE",
"430 100 CURVE",
"418 123 LINE",
"418 0 LINE",
"573 0 LINE"
);
},
{
closed = 1;
nodes = (
"234 111 OFFCURVE",
"191 164 OFFCURVE",
"191 258 CURVE SMOOTH",
"191 349 OFFCURVE",
"232 400 OFFCURVE",
"305 400 CURVE SMOOTH",
"377 400 OFFCURVE",
"418 348 OFFCURVE",
"418 256 CURVE SMOOTH",
"418 162 OFFCURVE",
"377 111 OFFCURVE",
"305 111 CURVE SMOOTH"
);
}
);
width = 633;
},
{
anchors = (
{
name = bottom;
position = "{296, 0}";
},
{
name = center;
position = "{296, 253}";
},
{
name = top;
position = "{296, 506}";
},
{
name = topright;
position = "{544, 728}";
}
);
layerId = "E86C9AF2-1279-4BB3-9660-79C369E244F4";
paths = (
{
closed = 1;
nodes = (
"503 728 LINE",
"449 728 LINE",
"449 367 LINE",
"461 374 LINE",
"438 464 OFFCURVE",
"371 513 OFFCURVE",
"275 513 CURVE SMOOTH",
"140 513 OFFCURVE",
"52 412 OFFCURVE",
"52 255 CURVE SMOOTH",
"52 97 OFFCURVE",
"142 -7 OFFCURVE",
"275 -7 CURVE SMOOTH",
"371 -7 OFFCURVE",
"438 42 OFFCURVE",
"461 132 CURVE",
"449 139 LINE",
"449 0 LINE",
"503 0 LINE"
);
},
{
closed = 1;
nodes = (
"173 42 OFFCURVE",
"109 121 OFFCURVE",
"109 255 CURVE SMOOTH",
"109 388 OFFCURVE",
"173 464 OFFCURVE",
"281 464 CURVE SMOOTH",
"388 464 OFFCURVE",
"449 387 OFFCURVE",
"449 253 CURVE SMOOTH",
"449 119 OFFCURVE",
"388 42 OFFCURVE",
"280 42 CURVE SMOOTH"
);
}
);
width = 588;
}
);
leftKerningGroup = o;
leftMetricsKey = o;
rightKerningGroup = l;
unicode = 0064;
userData = {
anchors = (
);
b = {
};
com.typemytype.robofont.layerData = {
b = {
anchors = (
);
components = (
);
contours = (
);
lib = {
};
name = d;
unicodes = (
);
width = 1181;
};
};
components = (
);
contours = (
);
lib = {
};
name = d;
unicodes = (
);
width = 1207;
};
},
{
color = 3;
glyphname = eth;
lastChange = "2016-09-21 09:42:29 +0000";
layers = (
{
layerId = "440A02D1-6D9B-498A-89D0-C24C9D9BC992";
paths = (
{
closed = 1;
nodes = (
"478 -8 OFFCURVE",
"580 106 OFFCURVE",
"580 307 CURVE SMOOTH",
"580 500 OFFCURVE",
"444 704 OFFCURVE",
"187 740 CURVE",
"152 632 LINE",
"308 610 OFFCURVE",
"433 498 OFFCURVE",
"433 336 CURVE",
"474 331 LINE",
"448 424 OFFCURVE",
"385 470 OFFCURVE",
"283 470 CURVE SMOOTH",
"137 470 OFFCURVE",
"35 372 OFFCURVE",
"35 232 CURVE SMOOTH",
"35 89 OFFCURVE",
"142 -8 OFFCURVE",
"298 -8 CURVE SMOOTH"
);
},
{
closed = 1;
nodes = (
"230 111 OFFCURVE",
"191 152 OFFCURVE",
"191 232 CURVE SMOOTH",
"191 312 OFFCURVE",
"230 354 OFFCURVE",
"304 354 CURVE SMOOTH",
"377 354 OFFCURVE",
"416 312 OFFCURVE",
"416 232 CURVE SMOOTH",
"416 154 OFFCURVE",
"376 111 OFFCURVE",
"304 111 CURVE SMOOTH"
);
},
{
closed = 1;
nodes = (
"574 592 LINE",
"554 672 LINE",
"152 563 LINE",
"174 483 LINE"
);
}
);
width = 615;
},
{
layerId = "E86C9AF2-1279-4BB3-9660-79C369E244F4";
paths = (
{
closed = 1;
nodes = (
"431 -7 OFFCURVE",
"510 95 OFFCURVE",
"510 293 CURVE SMOOTH",
"510 519 OFFCURVE",
"397 668 OFFCURVE",
"181 734 CURVE",
"165 691 LINE",
"357 633 OFFCURVE",
"460 497 OFFCURVE",
"457 300 CURVE",
"483 298 LINE",
"461 410 OFFCURVE",
"390 470 OFFCURVE",
"280 470 CURVE SMOOTH",
"143 470 OFFCURVE",
"52 376 OFFCURVE",
"52 231 CURVE SMOOTH",
"52 87 OFFCURVE",
"142 -7 OFFCURVE",
"279 -7 CURVE SMOOTH"
);
},
{
closed = 1;
nodes = (
"170 42 OFFCURVE",
"109 110 OFFCURVE",
"109 231 CURVE SMOOTH",
"109 351 OFFCURVE",
"173 420 OFFCURVE",
"280 420 CURVE SMOOTH",
"386 420 OFFCURVE",
"450 351 OFFCURVE",
"450 231 CURVE SMOOTH",
"450 113 OFFCURVE",
"385 42 OFFCURVE",
"279 42 CURVE SMOOTH"
);
},
{
closed = 1;
nodes = (
"508 653 LINE",
"493 694 LINE",
"173 566 LINE",
"188 525 LINE"
);
}
);
width = 562;
}
);
leftKerningGroup = o;
leftMetricsKey = o;
rightKerningGroup = o;
rightMetricsKey = o;
unicode = 00F0;
userData = {
com.typemytype.robofont.layerData = {
b = {
anchors = (
);
components = (
);
contours = (
);
lib = {
};
name = eth;
unicodes = (
);
width = 1230;
};
};
};
},
{
color = 3;
glyphname = dcaron;
lastChange = "2016-09-21 09:42:29 +0000";
layers = (
{
components = (
{
name = d;
}
);
layerId = "440A02D1-6D9B-498A-89D0-C24C9D9BC992";
paths = (
{
closed = 1;
nodes = (
"681 728 LINE",
"600 728 LINE",
"600 528 LINE",
"654 528 LINE"
);
}
);
width = 633;
},
{
components = (
{
name = d;
}
);
layerId = "E86C9AF2-1279-4BB3-9660-79C369E244F4";
paths = (
{
closed = 1;
nodes = (
"600 728 LINE",
"540 728 LINE",
"540 533 LINE",
"573 533 LINE"
);
}
);
width = 588;
}
);
leftKerningGroup = o;
leftMetricsKey = d;
widthMetricsKey = d;
rightKerningGroup = lcaron;
unicode = 010F;
},
{
color = 3;
glyphname = dcroat;
lastChange = "2016-09-21 09:42:29 +0000";
layers = (
{
layerId = "440A02D1-6D9B-498A-89D0-C24C9D9BC992";
paths = (
{
closed = 1;
nodes = (
"662 550 LINE",
"662 659 LINE",
"225 659 LINE",
"225 550 LINE"
);
},
{
closed = 1;
nodes = (
"573 728 LINE",
"416 728 LINE",
"416 392 LINE",
"430 411 LINE",
"407 477 OFFCURVE",
"340 520 OFFCURVE",
"259 520 CURVE SMOOTH",
"127 520 OFFCURVE",
"35 417 OFFCURVE",
"35 258 CURVE SMOOTH",
"35 99 OFFCURVE",
"128 -8 OFFCURVE",
"259 -8 CURVE SMOOTH",
"340 -8 OFFCURVE",
"407 33 OFFCURVE",
"430 100 CURVE",
"418 123 LINE",
"418 0 LINE",
"573 0 LINE"
);
},
{
closed = 1;
nodes = (
"234 111 OFFCURVE",
"191 164 OFFCURVE",
"191 258 CURVE SMOOTH",
"191 349 OFFCURVE",
"232 400 OFFCURVE",
"305 400 CURVE SMOOTH",
"377 400 OFFCURVE",
"418 348 OFFCURVE",
"418 256 CURVE SMOOTH",
"418 162 OFFCURVE",
"377 111 OFFCURVE",
"305 111 CURVE SMOOTH"
);
}
);
width = 633;
},
{
layerId = "E86C9AF2-1279-4BB3-9660-79C369E244F4";
paths = (
{
closed = 1;
nodes = (
"601 583 LINE",
"601 627 LINE",
"247 627 LINE",
"247 583 LINE"
);
},
{
closed = 1;
nodes = (
"503 728 LINE",
"449 728 LINE",
"449 367 LINE",
"461 374 LINE",
"438 464 OFFCURVE",
"371 513 OFFCURVE",
"275 513 CURVE SMOOTH",
"140 513 OFFCURVE",
"52 412 OFFCURVE",
"52 255 CURVE SMOOTH",
"52 97 OFFCURVE",
"142 -7 OFFCURVE",
"275 -7 CURVE SMOOTH",
"371 -7 OFFCURVE",
"438 42 OFFCURVE",
"461 132 CURVE",
"449 139 LINE",
"449 0 LINE",
"503 0 LINE"
);
},
{
closed = 1;
nodes = (
"173 42 OFFCURVE",
"109 121 OFFCURVE",
"109 255 CURVE SMOOTH",
"109 388 OFFCURVE",
"173 464 OFFCURVE",
"281 464 CURVE SMOOTH",
"388 464 OFFCURVE",
"449 387 OFFCURVE",
"449 253 CURVE SMOOTH",
"449 119 OFFCURVE",
"388 42 OFFCURVE",
"280 42 CURVE SMOOTH"
);
}
);
width = 588;
}
);
leftKerningGroup = o;
leftMetricsKey = d;
widthMetricsKey = d;
rightKerningGroup = l;
unicode = 0111;
userData = {
com.typemytype.robofont.layerData = {
b = {
anchors = (
);
components = (
);
contours = (
);
lib = {
};
name = dcroat;
unicodes = (
);
width = 1181;
};
};
};
},
{
color = 3;
glyphname = e;
lastChange = "2016-09-21 09:42:29 +0000";
layers = (
{
anchors = (
{
name = bottom;
position = "{307, 0}";
},
{
name = ogonek;
position = "{410, 10}";
},
{
name = top;
position = "{285, 511}";
}
);
layerId = "440A02D1-6D9B-498A-89D0-C24C9D9BC992";
paths = (
{
closed = 1;
nodes = (
"467 159 LINE",
"424 127 OFFCURVE",
"370 109 OFFCURVE",
"318 109 CURVE SMOOTH",
"227 109 OFFCURVE",
"185 156 OFFCURVE",
"185 268 CURVE SMOOTH",
"185 362 OFFCURVE",
"222 411 OFFCURVE",
"289 411 CURVE SMOOTH",
"351 411 OFFCURVE",
"384 369 OFFCURVE",
"384 286 CURVE",
"423 317 LINE",
"175 317 LINE",
"174 240 LINE",
"517 240 LINE",
"517 262 LINE SMOOTH",
"517 421 OFFCURVE",
"428 520 OFFCURVE",
"285 520 CURVE SMOOTH",
"138 520 OFFCURVE",
"35 411 OFFCURVE",
"35 255 CURVE SMOOTH",
"35 93 OFFCURVE",
"139 -8 OFFCURVE",
"311 -8 CURVE SMOOTH",
"382 -8 OFFCURVE",
"459 15 OFFCURVE",
"508 54 CURVE"
);
}
);
width = 551;
},
{
anchors = (
{
name = bottom;
position = "{296, 0}";
},
{
name = ogonek;
position = "{389, 10}";
},
{
name = top;
position = "{285, 506}";
}
);
layerId = "E86C9AF2-1279-4BB3-9660-79C369E244F4";
paths = (
{
closed = 1;
nodes = (
"462 105 LINE",
"409 62 OFFCURVE",
"356 42 OFFCURVE",
"295 42 CURVE SMOOTH",
"175 42 OFFCURVE",
"110 117 OFFCURVE",
"110 254 CURVE SMOOTH",
"110 386 OFFCURVE",
"176 467 OFFCURVE",
"285 467 CURVE SMOOTH",
"390 467 OFFCURVE",
"446 394 OFFCURVE",
"442 264 CURVE",
"463 304 LINE",
"99 304 LINE",
"100 259 LINE",
"493 259 LINE",
"493 272 LINE SMOOTH",
"493 424 OFFCURVE",
"415 513 OFFCURVE",
"285 513 CURVE SMOOTH",
"147 513 OFFCURVE",
"52 408 OFFCURVE",
"52 252 CURVE SMOOTH",
"52 90 OFFCURVE",
"145 -7 OFFCURVE",
"296 -7 CURVE SMOOTH",
"368 -7 OFFCURVE",
"441 20 OFFCURVE",
"484 62 CURVE"
);
}
);
width = 542;
}
);
leftKerningGroup = o;
leftMetricsKey = o;
rightKerningGroup = e;
unicode = 0065;
userData = {
anchors = (
);
b = {
};
com.typemytype.robofont.layerData = {
b = {
anchors = (
);
components = (
);
contours = (
);
lib = {
};
name = e;
unicodes = (
);
width = 1132;
};
};
components = (
);
contours = (
);
lib = {
};
name = e;
unicodes = (
);
width = 1132;
};
},
{
color = 3;
glyphname = eogonek;
lastChange = "2016-09-21 09:42:29 +0000";
layers = (
{
anchors = (
{
name = top;
position = "{285, 511}";
}
);
layerId = "440A02D1-6D9B-498A-89D0-C24C9D9BC992";
paths = (
{
closed = 1;
nodes = (
"441 -204 OFFCURVE",
"476 -196 OFFCURVE",
"507 -183 CURVE",
"490 -109 LINE",
"470 -118 OFFCURVE",
"451 -122 OFFCURVE",
"434 -122 CURVE SMOOTH",
"395 -122 OFFCURVE",
"373 -103 OFFCURVE",
"373 -67 CURVE SMOOTH",
"373 -31 OFFCURVE",
"394 -7 OFFCURVE",
"449 21 CURVE SMOOTH",
"486 38 OFFCURVE",
"498 45 OFFCURVE",
"508 54 CURVE",
"467 159 LINE",
"424 127 OFFCURVE",
"370 109 OFFCURVE",
"318 109 CURVE SMOOTH",
"227 109 OFFCURVE",
"185 156 OFFCURVE",
"185 268 CURVE SMOOTH",
"185 358 OFFCURVE",
"222 411 OFFCURVE",
"289 411 CURVE SMOOTH",
"351 411 OFFCURVE",
"384 369 OFFCURVE",
"384 286 CURVE",
"423 317 LINE",
"175 317 LINE",
"174 240 LINE",
"517 240 LINE",
"517 262 LINE SMOOTH",
"517 421 OFFCURVE",
"428 520 OFFCURVE",
"285 520 CURVE SMOOTH",
"138 520 OFFCURVE",
"35 411 OFFCURVE",
"35 255 CURVE SMOOTH",
"35 93 OFFCURVE",
"139 -8 OFFCURVE",
"311 -8 CURVE SMOOTH",
"327 -8 OFFCURVE",
"343 -6 OFFCURVE",
"364 -3 CURVE",
"335 13 LINE",
"294 -10 OFFCURVE",
"272 -48 OFFCURVE",
"272 -90 CURVE SMOOTH",
"272 -156 OFFCURVE",
"326 -204 OFFCURVE",
"404 -204 CURVE SMOOTH"
);
}
);
width = 551;
},
{
anchors = (
{
name = top;
position = "{285, 506}";
}
);
layerId = "E86C9AF2-1279-4BB3-9660-79C369E244F4";
paths = (
{
closed = 1;
nodes = (
"434 -197 OFFCURVE",
"463 -189 OFFCURVE",
"484 -174 CURVE",
"468 -134 LINE",
"446 -147 OFFCURVE",
"424 -154 OFFCURVE",
"406 -154 CURVE SMOOTH",
"363 -154 OFFCURVE",
"336 -127 OFFCURVE",
"336 -85 CURVE SMOOTH",
"336 -43 OFFCURVE",
"362 -12 OFFCURVE",
"434 28 CURVE SMOOTH",
"467 46 OFFCURVE",
"475 53 OFFCURVE",
"484 63 CURVE",
"462 105 LINE",
"409 62 OFFCURVE",
"356 42 OFFCURVE",
"295 42 CURVE SMOOTH",
"175 42 OFFCURVE",
"110 117 OFFCURVE",
"110 254 CURVE SMOOTH",
"110 387 OFFCURVE",
"176 467 OFFCURVE",
"285 467 CURVE SMOOTH",
"390 467 OFFCURVE",
"446 394 OFFCURVE",
"442 264 CURVE",
"463 304 LINE",
"99 304 LINE",
"100 259 LINE",
"493 259 LINE",
"493 272 LINE SMOOTH",
"493 424 OFFCURVE",
"415 513 OFFCURVE",
"285 513 CURVE SMOOTH",
"147 513 OFFCURVE",
"52 408 OFFCURVE",
"52 252 CURVE SMOOTH",
"52 90 OFFCURVE",
"145 -7 OFFCURVE",
"296 -7 CURVE SMOOTH",
"321 -7 OFFCURVE",
"336 -4 OFFCURVE",
"363 5 CURVE",
"349 13 LINE",
"308 -11 OFFCURVE",
"285 -48 OFFCURVE",
"285 -91 CURVE SMOOTH",
"285 -154 OFFCURVE",
"333 -197 OFFCURVE",
"402 -197 CURVE SMOOTH"
);
}
);
width = 542;
}
);
leftKerningGroup = o;
leftMetricsKey = e;
widthMetricsKey = e;
rightKerningGroup = e;
unicode = 0119;
},
{
color = 3;
glyphname = schwa;
lastChange = "2016-09-21 09:42:29 +0000";
layers = (
{
layerId = "440A02D1-6D9B-498A-89D0-C24C9D9BC992";
paths = (
{
closed = 1;
nodes = (
"84 352 LINE",
"140 385 OFFCURVE",
"191 402 OFFCURVE",
"240 402 CURVE SMOOTH",
"327 402 OFFCURVE",
"366 357 OFFCURVE",
"368 250 CURVE SMOOTH",
"371 152 OFFCURVE",
"335 100 OFFCURVE",
"267 100 CURVE SMOOTH",
"203 100 OFFCURVE",
"170 144 OFFCURVE",
"170 225 CURVE",
"127 193 LINE",
"376 193 LINE",
"376 272 LINE",
"34 272 LINE",
"34 248 LINE SMOOTH",
"34 88 OFFCURVE",
"126 -8 OFFCURVE",
"274 -8 CURVE SMOOTH",
"417 -8 OFFCURVE",
"516 98 OFFCURVE",
"516 256 CURVE SMOOTH",
"516 417 OFFCURVE",
"411 520 OFFCURVE",
"251 520 CURVE SMOOTH",
"173 520 OFFCURVE",
"94 497 OFFCURVE",
"42 457 CURVE"
);
}
);
width = 551;
},
{
layerId = "E86C9AF2-1279-4BB3-9660-79C369E244F4";
paths = (
{
closed = 1;
nodes = (
"80 401 LINE",
"138 444 OFFCURVE",
"192 464 OFFCURVE",
"250 464 CURVE SMOOTH",
"367 464 OFFCURVE",
"433 388 OFFCURVE",
"433 252 CURVE SMOOTH",
"433 117 OFFCURVE",
"371 39 OFFCURVE",
"262 39 CURVE SMOOTH",
"156 39 OFFCURVE",
"98 112 OFFCURVE",
"102 242 CURVE",
"79 202 LINE",
"442 202 LINE",
"441 247 LINE",
"49 247 LINE",
"49 237 LINE SMOOTH",
"49 83 OFFCURVE",
"128 -7 OFFCURVE",
"262 -7 CURVE SMOOTH",
"401 -7 OFFCURVE",
"489 94 OFFCURVE",
"489 254 CURVE SMOOTH",
"489 415 OFFCURVE",
"398 513 OFFCURVE",
"249 513 CURVE SMOOTH",
"181 513 OFFCURVE",
"105 487 OFFCURVE",
"57 444 CURVE"
);
}
);
width = 541;
}
);
leftKerningGroup = o;
leftMetricsKey = "=|e";
rightKerningGroup = o;
rightMetricsKey = o;
unicode = 0259;
},
{
color = 3;
glyphname = f;
lastChange = "2016-09-21 09:42:29 +0000";
layers = (
{
anchors = (
{
name = bottom;
position = "{179, 0}";
},
{
name = top;
position = "{179, 511}";
}
);
layerId = "440A02D1-6D9B-498A-89D0-C24C9D9BC992";
paths = (
{
closed = 1;
nodes = (
"257 0 LINE",
"257 525 LINE SMOOTH",
"257 605 OFFCURVE",
"272 618 OFFCURVE",
"355 618 CURVE SMOOTH",
"379 618 LINE",
"379 731 LINE",
"338 731 LINE SMOOTH",
"162 731 OFFCURVE",
"100 681 OFFCURVE",
"100 538 CURVE SMOOTH",
"100 0 LINE"
);
},
{
closed = 1;
nodes = (
"360 390 LINE",
"360 507 LINE",
"4 507 LINE",
"4 390 LINE"
);
}
);
width = 389;
},
{
anchors = (
{
name = bottom;
position = "{134, 0}";
},
{
name = top;
position = "{134, 506}";
}
);
layerId = "E86C9AF2-1279-4BB3-9660-79C369E244F4";
paths = (
{
closed = 1;
nodes = (
"161 0 LINE",
"161 554 LINE SMOOTH",
"161 665 OFFCURVE",
"183 686 OFFCURVE",
"287 686 CURVE SMOOTH",
"312 686 LINE",
"312 731 LINE",
"284 731 LINE SMOOTH",
"152 731 OFFCURVE",
"107 682 OFFCURVE",
"107 570 CURVE SMOOTH",
"107 0 LINE"
);
},
{
closed = 1;
nodes = (
"291 456 LINE",
"291 501 LINE",
"8 501 LINE",
"8 456 LINE"
);
}
);
width = 319;
}
);
leftKerningGroup = f;
rightKerningGroup = f;
unicode = 0066;
userData = {
anchors = (
);
b = {
};
com.typemytype.robofont.layerData = {
b = {
anchors = (
);
components = (
);
contours = (
);
lib = {
};
name = f;
unicodes = (
);
width = 696;
};
};
components = (
);
contours = (
);
lib = {
};
name = f;
unicodes = (
);
width = 723;
};
},
{
color = 3;
glyphname = g;
lastChange = "2016-09-21 09:42:29 +0000";
layers = (
{
anchors = (
{
name = bottom;
position = "{319, 0}";
},
{
name = top;
position = "{319, 511}";
}
);
layerId = "440A02D1-6D9B-498A-89D0-C24C9D9BC992";
paths = (
{
closed = 1;
nodes = (
"482 -194 OFFCURVE",
"578 -108 OFFCURVE",
"578 55 CURVE SMOOTH",
"578 507 LINE",
"422 507 LINE",
"422 400 LINE",
"434 411 LINE",
"411 477 OFFCURVE",
"343 520 OFFCURVE",
"261 520 CURVE SMOOTH",
"129 520 OFFCURVE",
"35 419 OFFCURVE",
"35 267 CURVE SMOOTH",
"35 114 OFFCURVE",
"129 14 OFFCURVE",
"261 14 CURVE SMOOTH",
"343 14 OFFCURVE",
"411 66 OFFCURVE",
"434 121 CURVE",
"422 129 LINE",
"422 43 LINE SMOOTH",
"422 -38 OFFCURVE",
"381 -77 OFFCURVE",
"295 -77 CURVE SMOOTH",
"236 -77 OFFCURVE",
"173 -61 OFFCURVE",
"113 -32 CURVE",
"89 -148 LINE",
"148 -178 OFFCURVE",
"222 -194 OFFCURVE",
"300 -194 CURVE SMOOTH"
);
},
{
closed = 1;
nodes = (
"236 133 OFFCURVE",
"191 184 OFFCURVE",
"191 267 CURVE SMOOTH",
"191 350 OFFCURVE",
"235 400 OFFCURVE",
"307 400 CURVE SMOOTH",
"380 400 OFFCURVE",
"422 349 OFFCURVE",
"422 267 CURVE SMOOTH",
"422 183 OFFCURVE",
"379 133 OFFCURVE",
"307 133 CURVE SMOOTH"
);
}
);
width = 637;
},
{
anchors = (
{
name = bottom;
position = "{299, 0}";
},
{
name = top;
position = "{299, 506}";
}
);
layerId = "E86C9AF2-1279-4BB3-9660-79C369E244F4";
paths = (
{
closed = 1;
nodes = (
"436 -193 OFFCURVE",
"507 -119 OFFCURVE",
"507 26 CURVE SMOOTH",
"507 501 LINE",
"453 501 LINE",
"453 393 LINE",
"465 374 LINE",
"442 464 OFFCURVE",
"375 513 OFFCURVE",
"277 513 CURVE SMOOTH",
"143 513 OFFCURVE",
"52 413 OFFCURVE",
"52 264 CURVE SMOOTH",
"52 116 OFFCURVE",
"143 15 OFFCURVE",
"277 15 CURVE SMOOTH",
"375 15 OFFCURVE",
"442 65 OFFCURVE",
"465 155 CURVE",
"454 134 LINE",
"454 21 LINE SMOOTH",
"454 -87 OFFCURVE",
"401 -144 OFFCURVE",
"300 -144 CURVE SMOOTH",
"226 -144 OFFCURVE",
"179 -128 OFFCURVE",
"116 -90 CURVE",
"105 -138 LINE",
"160 -175 OFFCURVE",
"225 -193 OFFCURVE",
"299 -193 CURVE SMOOTH"
);
},
{
closed = 1;
nodes = (
"175 65 OFFCURVE",
"109 139 OFFCURVE",
"109 264 CURVE SMOOTH",
"109 389 OFFCURVE",
"175 464 OFFCURVE",
"282 464 CURVE SMOOTH",
"389 464 OFFCURVE",
"453 388 OFFCURVE",
"453 264 CURVE SMOOTH",
"453 141 OFFCURVE",
"389 65 OFFCURVE",
"282 65 CURVE SMOOTH"
);
}
);
width = 592;
}
);
leftKerningGroup = o;
leftMetricsKey = o;
rightKerningGroup = u;
unicode = 0067;
userData = {
anchors = (
);
b = {
};
com.typemytype.robofont.layerData = {
b = {
anchors = (
);
components = (
);
contours = (
);
lib = {
};
name = g;
unicodes = (
);
width = 1167;
};
};
components = (
);
contours = (
);
lib = {
};
name = g;
unicodes = (
);
width = 1207;
};
},
{
color = 3;
glyphname = h;
lastChange = "2016-09-21 09:42:29 +0000";
layers = (
{
anchors = (
{
name = bottom;
position = "{309, 0}";
},
{
name = center;
position = "{309, 256}";
},
{
name = top;
position = "{141, 728}";
}
);
layerId = "440A02D1-6D9B-498A-89D0-C24C9D9BC992";
paths = (
{
closed = 1;
nodes = (
"217 0 LINE",
"217 284 LINE SMOOTH",
"217 353 OFFCURVE",
"259 398 OFFCURVE",
"323 398 CURVE SMOOTH",
"376 398 OFFCURVE",
"401 369 OFFCURVE",
"401 299 CURVE SMOOTH",
"401 0 LINE",
"558 0 LINE",
"558 306 LINE SMOOTH",
"558 449 OFFCURVE",
"499 520 OFFCURVE",
"378 520 CURVE SMOOTH",
"298 520 OFFCURVE",
"234 481 OFFCURVE",
"199 411 CURVE",
"217 404 LINE",
"217 728 LINE",
"60 728 LINE",
"60 0 LINE"
);
}
);
width = 615;
},
{
anchors = (
{
name = bottom;
position = "{288, 0}";
},
{
name = center;
position = "{288, 253}";
},
{
name = top;
position = "{112, 728}";
}
);
layerId = "E86C9AF2-1279-4BB3-9660-79C369E244F4";
paths = (
{
closed = 1;
nodes = (
"138 0 LINE",
"138 290 LINE SMOOTH",
"138 397 OFFCURVE",
"206 464 OFFCURVE",
"309 464 CURVE SMOOTH",
"399 464 OFFCURVE",
"439 418 OFFCURVE",
"439 316 CURVE SMOOTH",
"439 0 LINE",
"493 0 LINE",
"493 320 LINE SMOOTH",
"493 448 OFFCURVE",
"432 513 OFFCURVE",
"311 513 CURVE SMOOTH",
"224 513 OFFCURVE",
"152 469 OFFCURVE",
"127 384 CURVE",
"138 400 LINE",
"138 728 LINE",
"85 728 LINE",
"85 0 LINE"
);
}
);
width = 575;
}
);
leftKerningGroup = h;
rightKerningGroup = n;
rightMetricsKey = n;
unicode = 0068;
userData = {
anchors = (
);
b = {
};
com.typemytype.robofont.layerData = {
b = {
anchors = (
);
components = (
);
contours = (
);
lib = {
};
name = h;
unicodes = (
);
width = 1148;
};
};
components = (
);
contours = {
};
lib = {
};
name = h;
points = {
};
segmentType = curve;
unicodes = (
);
width = 1195;
x = 137;
y = 113;
};
},
{
color = 3;
glyphname = hbar;
lastChange = "2016-09-21 09:42:29 +0000";
layers = (
{
layerId = "440A02D1-6D9B-498A-89D0-C24C9D9BC992";
paths = (
{
closed = 1;
nodes = (
"217 0 LINE",
"217 284 LINE SMOOTH",
"217 353 OFFCURVE",
"259 398 OFFCURVE",
"323 398 CURVE SMOOTH",
"376 398 OFFCURVE",
"401 369 OFFCURVE",
"401 299 CURVE SMOOTH",
"401 0 LINE",
"558 0 LINE",
"558 306 LINE SMOOTH",
"558 449 OFFCURVE",
"499 520 OFFCURVE",
"378 520 CURVE SMOOTH",
"298 520 OFFCURVE",
"234 481 OFFCURVE",
"199 411 CURVE",
"217 404 LINE",
"217 728 LINE",
"60 728 LINE",
"60 0 LINE"
);
},
{
closed = 1;
nodes = (
"408 550 LINE",
"408 659 LINE",
"-28 659 LINE",
"-28 550 LINE"
);
}
);
width = 615;
},
{
layerId = "E86C9AF2-1279-4BB3-9660-79C369E244F4";
paths = (
{
closed = 1;
nodes = (
"138 0 LINE",
"138 290 LINE SMOOTH",
"138 397 OFFCURVE",
"206 464 OFFCURVE",
"309 464 CURVE SMOOTH",
"399 464 OFFCURVE",
"439 418 OFFCURVE",
"439 316 CURVE SMOOTH",
"439 0 LINE",
"493 0 LINE",
"493 320 LINE SMOOTH",
"493 448 OFFCURVE",
"432 513 OFFCURVE",
"311 513 CURVE SMOOTH",
"224 513 OFFCURVE",
"152 469 OFFCURVE",
"127 384 CURVE",
"138 400 LINE",
"138 728 LINE",
"85 728 LINE",
"85 0 LINE"
);
},
{
closed = 1;
nodes = (
"341 583 LINE",
"341 627 LINE",
"-13 627 LINE",
"-13 583 LINE"
);
}
);
width = 575;
}
);
leftKerningGroup = h;
widthMetricsKey = n;
rightKerningGroup = n;
rightMetricsKey = n;
unicode = 0127;
},
{
color = 3;
glyphname = idotless;
lastChange = "2016-09-21 09:42:29 +0000";
layers = (
{
anchors = (
{
name = bottom;
position = "{138, 0}";
},
{
name = ogonek;
position = "{191, 10}";
},
{
name = top;
position = "{138, 511}";
}
);
layerId = "440A02D1-6D9B-498A-89D0-C24C9D9BC992";
paths = (
{
closed = 1;
nodes = (
"217 0 LINE",
"217 507 LINE",
"60 507 LINE",
"60 0 LINE"
);
}
);
width = 277;
},
{
anchors = (
{
name = bottom;
position = "{113, 0}";
},
{
name = ogonek;
position = "{136, 10}";
},
{
name = top;
position = "{113, 506}";
}
);
layerId = "E86C9AF2-1279-4BB3-9660-79C369E244F4";
paths = (
{
closed = 1;
nodes = (
"138 0 LINE",
"138 501 LINE",
"85 501 LINE",
"85 0 LINE"
);
}
);
width = 224;
}
);
leftKerningGroup = n;
rightKerningGroup = u;
unicode = 0131;
},
{
color = 3;
glyphname = iogonek;
lastChange = "2016-09-21 09:42:29 +0000";
layers = (
{
layerId = "440A02D1-6D9B-498A-89D0-C24C9D9BC992";
paths = (
{
closed = 1;
nodes = (
"189 -204 OFFCURVE",
"225 -196 OFFCURVE",
"255 -183 CURVE",
"238 -109 LINE",
"218 -118 OFFCURVE",
"199 -122 OFFCURVE",
"182 -122 CURVE SMOOTH",
"143 -122 OFFCURVE",
"121 -103 OFFCURVE",
"121 -67 CURVE SMOOTH",
"121 -28 OFFCURVE",
"154 0 OFFCURVE",
"207 0 CURVE SMOOTH",
"217 0 LINE",
"217 507 LINE",
"60 507 LINE",
"60 0 LINE",
"105 0 LINE",
"119 38 LINE",
"52 12 OFFCURVE",
"21 -36 OFFCURVE",
"21 -88 CURVE SMOOTH",
"21 -159 OFFCURVE",
"78 -204 OFFCURVE",
"152 -204 CURVE SMOOTH"
);
},
{
closed = 1;
nodes = (
"55 604 LINE",
"222 604 LINE",
"222 751 LINE",
"55 751 LINE"
);
}
);
width = 277;
},
{
layerId = "E86C9AF2-1279-4BB3-9660-79C369E244F4";
paths = (
{
closed = 1;
nodes = (
"139 -197 OFFCURVE",
"168 -187 OFFCURVE",
"188 -174 CURVE",
"172 -134 LINE",
"150 -148 OFFCURVE",
"127 -154 OFFCURVE",
"111 -154 CURVE SMOOTH",
"69 -154 OFFCURVE",
"39 -130 OFFCURVE",
"39 -85 CURVE SMOOTH",
"39 -39 OFFCURVE",
"73 0 OFFCURVE",
"135 0 CURVE SMOOTH",
"138 0 LINE",
"138 501 LINE",
"85 501 LINE",
"85 0 LINE",
"102 0 LINE",
"123 39 LINE",
"36 25 OFFCURVE",
"-11 -28 OFFCURVE",
"-11 -91 CURVE SMOOTH",
"-11 -153 OFFCURVE",
"35 -197 OFFCURVE",
"105 -197 CURVE SMOOTH"
);
},
{
closed = 1;
nodes = (
"74 636 LINE",
"150 636 LINE",
"150 709 LINE",
"74 709 LINE"
);
}
);
width = 224;
}
);
leftKerningGroup = h;
rightKerningGroup = l;
unicode = 012F;
},
{
color = 3;
glyphname = jdotless;
lastChange = "2016-09-21 09:42:29 +0000";
layers = (
{
anchors = (
{
name = bottom;
position = "{137, 0}";
},
{
name = top;
position = "{137, 511}";
}
);
layerId = "440A02D1-6D9B-498A-89D0-C24C9D9BC992";
paths = (
{
closed = 1;
nodes = (
"-66 -181 LINE",
"-39 -191 OFFCURVE",
"-9 -194 OFFCURVE",
"22 -194 CURVE SMOOTH",
"150 -194 OFFCURVE",
"217 -117 OFFCURVE",
"217 11 CURVE SMOOTH",
"217 507 LINE",
"60 507 LINE",
"60 15 LINE SMOOTH",
"60 -44 OFFCURVE",
"25 -66 OFFCURVE",
"-17 -66 CURVE SMOOTH",
"-32 -66 OFFCURVE",
"-45 -64 OFFCURVE",
"-66 -59 CURVE"
);
}
);
width = 277;
},
{
anchors = (
{
name = bottom;
position = "{113, 0}";
},
{
name = top;
position = "{113, 506}";
}
);
layerId = "E86C9AF2-1279-4BB3-9660-79C369E244F4";
paths = (
{
closed = 1;
nodes = (
"-51 -181 LINE",
"-31 -186 OFFCURVE",
"-11 -189 OFFCURVE",
"7 -189 CURVE SMOOTH",
"84 -189 OFFCURVE",
"138 -145 OFFCURVE",
"138 -44 CURVE SMOOTH",
"138 501 LINE",
"85 501 LINE",
"85 -32 LINE SMOOTH",
"85 -119 OFFCURVE",
"46 -139 OFFCURVE",
"-2 -139 CURVE SMOOTH",
"-17 -139 OFFCURVE",
"-31 -137 OFFCURVE",
"-51 -131 CURVE"
);
}
);
width = 224;
}
);
leftKerningGroup = n;
widthMetricsKey = idotless;
rightKerningGroup = l;
unicode = 0237;
},
{
color = 3;
glyphname = k;
lastChange = "2016-09-21 09:42:29 +0000";
layers = (
{
anchors = (
{
name = bottom;
position = "{288, 0}";
},
{
name = top;
position = "{288, 511}";
}
);
layerId = "440A02D1-6D9B-498A-89D0-C24C9D9BC992";
paths = (
{
closed = 1;
nodes = (
"602 0 LINE",
"351 295 LINE",
"344 224 LINE",
"590 506 LINE",
"403 506 LINE",
"189 258 LINE",
"410 0 LINE"
);
},
{
closed = 1;
nodes = (
"217 0 LINE",
"217 728 LINE",
"60 728 LINE",
"60 0 LINE"
);
}
);
width = 578;
},
{
anchors = (
{
name = bottom;
position = "{246, 0}";
},
{
name = top;
position = "{246, 506}";
}
);
layerId = "E86C9AF2-1279-4BB3-9660-79C369E244F4";
paths = (
{
closed = 1;
nodes = (
"495 0 LINE",
"176 281 LINE",
"175 237 LINE",
"466 501 LINE",
"394 501 LINE",
"126 256 LINE",
"420 0 LINE"
);
},
{
closed = 1;
nodes = (
"138 0 LINE",
"138 728 LINE",
"85 728 LINE",
"85 0 LINE"
);
}
);
width = 492;
}
);
leftKerningGroup = h;
leftMetricsKey = l;
rightKerningGroup = k;
unicode = 006B;
userData = {
com.typemytype.robofont.layerData = {
b = {
anchors = (
);
components = (
);
contours = (
{
points = (
{
segmentType = line;
smooth = 0;
x = 318;
y = 536;
},
{
segmentType = line;
smooth = 1;
x = 793;
y = 27;
},
{
smooth = 0;
x = 809;
y = 9;
},
{
smooth = 0;
x = 828;
y = 1;
},
{
segmentType = curve;
smooth = 1;
x = 845;
y = 1;
},
{
smooth = 0;
x = 883;
y = 1;
},
{
smooth = 0;
x = 922;
y = 33;
},
{
segmentType = curve;
smooth = 1;
x = 922;
y = 71;
},
{
smooth = 0;
x = 922;
y = 84;
},
{
smooth = 0;
x = 918;
y = 99;
},
{
segmentType = curve;
smooth = 1;
x = 906;
y = 112;
},
{
segmentType = line;
smooth = 0;
x = 492;
y = 554;
},
{
segmentType = line;
smooth = 1;
x = 873;
y = 889;
},
{
smooth = 0;
x = 888;
y = 902;
},
{
smooth = 0;
x = 894;
y = 918;
},
{
segmentType = curve;
smooth = 1;
x = 894;
y = 933;
},
{
smooth = 0;
x = 894;
y = 968;
},
{
smooth = 0;
x = 858;
y = 1002;
},
{
segmentType = curve;
smooth = 1;
x = 821;
y = 1002;
},
{
smooth = 0;
x = 802;
y = 1002;
},
{
smooth = 0;
x = 785;
y = 994;
},
{
segmentType = curve;
smooth = 0;
x = 770;
y = 979;
},
{
segmentType = line;
smooth = 0;
x = 318;
y = 574;
}
);
}
);
lib = {
};
name = k;
unicodes = (
);
width = 984;
};
};
};
},
{
color = 3;
glyphname = kgreenlandic;
lastChange = "2016-09-21 09:42:29 +0000";
layers = (
{
anchors = (
{
name = bottom;
position = "{288, 0}";
},
{
name = top;
position = "{288, 511}";
}
);
layerId = "440A02D1-6D9B-498A-89D0-C24C9D9BC992";
paths = (
{
closed = 1;
nodes = (
"602 0 LINE",
"351 295 LINE",
"344 224 LINE",
"590 506 LINE",
"403 506 LINE",
"189 258 LINE",
"410 0 LINE"
);
},
{
closed = 1;
nodes = (
"217 0 LINE",
"217 507 LINE",
"60 507 LINE",
"60 0 LINE"
);
}
);
width = 578;
},
{
anchors = (
{
name = bottom;
position = "{246, 0}";
},
{
name = top;
position = "{246, 506}";
}
);
layerId = "E86C9AF2-1279-4BB3-9660-79C369E244F4";
paths = (
{
closed = 1;
nodes = (
"495 0 LINE",
"176 281 LINE",
"175 237 LINE",
"466 501 LINE",
"394 501 LINE",
"126 256 LINE",
"420 0 LINE"
);
},
{
closed = 1;
nodes = (
"138 0 LINE",
"138 501 LINE",
"85 501 LINE",
"85 0 LINE"
);
}
);
width = 492;
}
);
leftKerningGroup = n;
rightKerningGroup = k;
rightMetricsKey = k;
unicode = 0138;
userData = {
com.typemytype.robofont.layerData = {
b = {
anchors = (
);
components = (
);
contours = (
);
lib = {
};
name = kgreenlandic;
unicodes = (
);
width = 1047;
};
};
};
},
{
color = 3;
glyphname = l;
lastChange = "2016-09-21 09:42:29 +0000";
layers = (
{
anchors = (
{
name = bottom;
position = "{138, 0}";
},
{
name = center;
position = "{138, 256}";
},
{
name = top;
position = "{138, 728}";
},
{
name = topright;
position = "{244, 728}";
}
);
layerId = "440A02D1-6D9B-498A-89D0-C24C9D9BC992";
paths = (
{
closed = 1;
nodes = (
"217 0 LINE",
"217 728 LINE",
"60 728 LINE",
"60 0 LINE"
);
}
);
width = 277;
},
{
anchors = (
{
name = bottom;
position = "{113, 0}";
},
{
name = center;
position = "{113, 253}";
},
{
name = top;
position = "{113, 728}";
},
{
name = topright;
position = "{181, 728}";
}
);
layerId = "E86C9AF2-1279-4BB3-9660-79C369E244F4";
paths = (
{
closed = 1;
nodes = (
"138 0 LINE",
"138 728 LINE",
"85 728 LINE",
"85 0 LINE"
);
}
);
width = 224;
}
);
leftKerningGroup = h;
rightKerningGroup = l;
unicode = 006C;
userData = {
com.typemytype.robofont.layerData = {
b = {
anchors = (
);
components = (
);
contours = (
);
lib = {
};
name = l;
unicodes = (
);
width = 511;
};
};
};
},
{
color = 3;
glyphname = lcaron;
lastChange = "2016-09-21 09:42:29 +0000";
layers = (
{
components = (
{
name = l;
}
);
layerId = "440A02D1-6D9B-498A-89D0-C24C9D9BC992";
paths = (
{
closed = 1;
nodes = (
"324 728 LINE",
"244 728 LINE",
"244 528 LINE",
"298 528 LINE"
);
}
);
width = 277;
},
{
components = (
{
name = l;
}
);
layerId = "E86C9AF2-1279-4BB3-9660-79C369E244F4";
paths = (
{
closed = 1;
nodes = (
"240 728 LINE",
"180 728 LINE",
"180 533 LINE",
"213 533 LINE"
);
}
);
width = 224;
}
);
leftKerningGroup = h;
leftMetricsKey = l;
widthMetricsKey = l;
rightKerningGroup = lcaron;
unicode = 013E;
},
{
color = 3;
glyphname = lslash;
lastChange = "2016-09-21 09:42:29 +0000";
layers = (
{
layerId = "440A02D1-6D9B-498A-89D0-C24C9D9BC992";
paths = (
{
closed = 1;
nodes = (
"381 411 LINE",
"322 517 LINE",
"-17 320 LINE",
"41 215 LINE"
);
},
{
closed = 1;
nodes = (
"260 0 LINE",
"260 728 LINE",
"103 728 LINE",
"103 0 LINE"
);
}
);
width = 364;
},
{
layerId = "E86C9AF2-1279-4BB3-9660-79C369E244F4";
paths = (
{
closed = 1;
nodes = (
"267 419 LINE",
"242 461 LINE",
"-4 318 LINE",
"21 277 LINE"
);
},
{
closed = 1;
nodes = (
"158 0 LINE",
"158 728 LINE",
"104 728 LINE",
"104 0 LINE"
);
}
);
width = 262;
}
);
leftKerningGroup = l;
rightKerningGroup = l;
unicode = 0142;
},
{
color = 3;
glyphname = m;
lastChange = "2016-09-21 09:42:29 +0000";
layers = (
{
anchors = (
{
name = bottom;
position = "{459, 0}";
},
{
name = top;
position = "{459, 511}";
}
);
layerId = "440A02D1-6D9B-498A-89D0-C24C9D9BC992";
paths = (
{
closed = 1;
nodes = (
"217 0 LINE",
"217 279 LINE SMOOTH",
"217 354 OFFCURVE",
"251 398 OFFCURVE",
"310 398 CURVE SMOOTH",
"359 398 OFFCURVE",
"380 369 OFFCURVE",
"380 301 CURVE SMOOTH",
"380 0 LINE",
"537 0 LINE",
"537 279 LINE SMOOTH",
"537 354 OFFCURVE",
"571 398 OFFCURVE",
"630 398 CURVE SMOOTH",
"681 398 OFFCURVE",
"700 369 OFFCURVE",
"700 301 CURVE SMOOTH",
"700 0 LINE",
"857 0 LINE",
"857 306 LINE SMOOTH",
"857 450 OFFCURVE",
"802 520 OFFCURVE",
"685 520 CURVE SMOOTH",
"605 520 OFFCURVE",
"537 475 OFFCURVE",
"507 406 CURVE",
"531 378 LINE",
"514 473 OFFCURVE",
"460 520 OFFCURVE",
"368 520 CURVE SMOOTH",
"288 520 OFFCURVE",
"227 481 OFFCURVE",
"199 413 CURVE",
"211 409 LINE",
"199 507 LINE",
"52 507 LINE",
"58 459 OFFCURVE",
"60 410 OFFCURVE",
"60 362 CURVE SMOOTH",
"60 0 LINE"
);
}
);
width = 914;
},
{
anchors = (
{
name = bottom;
position = "{435, 0}";
},
{
name = top;
position = "{435, 506}";
}
);
layerId = "E86C9AF2-1279-4BB3-9660-79C369E244F4";
paths = (
{
closed = 1;
nodes = (
"138 0 LINE",
"138 290 LINE SMOOTH",
"138 397 OFFCURVE",
"197 464 OFFCURVE",
"291 464 CURVE SMOOTH",
"372 464 OFFCURVE",
"408 419 OFFCURVE",
"408 316 CURVE SMOOTH",
"408 0 LINE",
"462 0 LINE",
"462 290 LINE SMOOTH",
"462 397 OFFCURVE",
"520 464 OFFCURVE",
"614 464 CURVE SMOOTH",
"694 464 OFFCURVE",
"730 419 OFFCURVE",
"730 316 CURVE SMOOTH",
"730 0 LINE",
"784 0 LINE",
"784 320 LINE SMOOTH",
"784 449 OFFCURVE",
"728 513 OFFCURVE",
"618 513 CURVE SMOOTH",
"525 513 OFFCURVE",
"454 459 OFFCURVE",
"437 374 CURVE",
"461 366 LINE",
"447 465 OFFCURVE",
"394 513 OFFCURVE",
"295 513 CURVE SMOOTH",
"213 513 OFFCURVE",
"150 468 OFFCURVE",
"127 384 CURVE",
"137 395 LINE",
"128 501 LINE",
"77 501 LINE",
"83 455 OFFCURVE",
"85 408 OFFCURVE",
"85 362 CURVE SMOOTH",
"85 0 LINE"
);
}
);
width = 866;
}
);
leftKerningGroup = n;
leftMetricsKey = n;
rightKerningGroup = n;
rightMetricsKey = n;
unicode = 006D;
userData = {
anchors = (
);
b = {
};
com.typemytype.robofont.layerData = {
b = {
anchors = (
);
components = (
);
contours = (
);
lib = {
};
name = m;
unicodes = (
);
width = 1838;
};
};
components = (
);
contours = (
);
lib = {
};
name = m;
unicodes = (
);
width = 1877;
};
},
{
color = 3;
glyphname = n;
lastChange = "2016-09-21 09:42:29 +0000";
layers = (
{
anchors = (
{
name = bottom;
position = "{309, 0}";
},
{
name = top;
position = "{309, 511}";
}
);
layerId = "440A02D1-6D9B-498A-89D0-C24C9D9BC992";
paths = (
{
closed = 1;
nodes = (
"217 0 LINE",
"217 284 LINE SMOOTH",
"217 353 OFFCURVE",
"259 398 OFFCURVE",
"323 398 CURVE SMOOTH",
"376 398 OFFCURVE",
"401 369 OFFCURVE",
"401 299 CURVE SMOOTH",
"401 0 LINE",
"558 0 LINE",
"558 306 LINE SMOOTH",
"558 449 OFFCURVE",
"499 520 OFFCURVE",
"378 520 CURVE SMOOTH",
"298 520 OFFCURVE",
"234 481 OFFCURVE",
"199 411 CURVE",
"211 409 LINE",
"199 507 LINE",
"52 507 LINE",
"58 459 OFFCURVE",
"60 410 OFFCURVE",
"60 362 CURVE SMOOTH",
"60 0 LINE"
);
}
);
width = 615;
},
{
anchors = (
{
name = bottom;
position = "{288, 0}";
},
{
name = top;
position = "{288, 506}";
}
);
layerId = "E86C9AF2-1279-4BB3-9660-79C369E244F4";
paths = (
{
closed = 1;
nodes = (
"138 0 LINE",
"138 290 LINE SMOOTH",
"138 397 OFFCURVE",
"206 464 OFFCURVE",
"309 464 CURVE SMOOTH",
"399 464 OFFCURVE",
"439 418 OFFCURVE",
"439 316 CURVE SMOOTH",
"439 0 LINE",
"493 0 LINE",
"493 320 LINE SMOOTH",
"493 448 OFFCURVE",
"432 513 OFFCURVE",
"311 513 CURVE SMOOTH",
"224 513 OFFCURVE",
"152 469 OFFCURVE",
"127 384 CURVE",
"137 395 LINE",
"128 501 LINE",
"77 501 LINE",
"83 455 OFFCURVE",
"85 408 OFFCURVE",
"85 362 CURVE SMOOTH",
"85 0 LINE"
);
}
);
width = 575;
}
);
leftKerningGroup = n;
rightKerningGroup = n;
unicode = 006E;
userData = {
anchors = (
);
b = {
};
com.typemytype.robofont.layerData = {
b = {
anchors = (
);
components = (
);
contours = (
);
lib = {
};
name = n;
unicodes = (
);
width = 1152;
};
};
components = (
);
contours = {
};
lib = {
};
name = n;
points = {
};
segmentType = curve;
unicodes = (
);
width = 1195;
x = 137;
y = 113;
};
},
{
color = 3;
glyphname = eng;
lastChange = "2016-09-21 09:42:29 +0000";
layers = (
{
layerId = "440A02D1-6D9B-498A-89D0-C24C9D9BC992";
paths = (
{
closed = 1;
nodes = (
"298 520 OFFCURVE",
"234 481 OFFCURVE",
"199 411 CURVE",
"211 409 LINE",
"199 507 LINE",
"52 507 LINE",
"58 459 OFFCURVE",
"60 410 OFFCURVE",
"60 362 CURVE SMOOTH",
"60 0 LINE",
"217 0 LINE",
"217 284 LINE SMOOTH",
"217 353 OFFCURVE",
"259 398 OFFCURVE",
"323 398 CURVE SMOOTH",
"376 398 OFFCURVE",
"401 369 OFFCURVE",
"401 299 CURVE SMOOTH",
"401 35 LINE SMOOTH",
"401 -44 OFFCURVE",
"366 -66 OFFCURVE",
"324 -66 CURVE SMOOTH",
"309 -66 OFFCURVE",
"295 -64 OFFCURVE",
"275 -59 CURVE",
"275 -184 LINE",
"303 -191 OFFCURVE",
"332 -194 OFFCURVE",
"364 -194 CURVE SMOOTH",
"492 -194 OFFCURVE",
"558 -117 OFFCURVE",
"558 32 CURVE SMOOTH",
"558 306 LINE SMOOTH",
"558 449 OFFCURVE",
"499 520 OFFCURVE",
"378 520 CURVE SMOOTH"
);
}
);
width = 615;
},
{
layerId = "E86C9AF2-1279-4BB3-9660-79C369E244F4";
paths = (
{
closed = 1;
nodes = (
"224 513 OFFCURVE",
"152 469 OFFCURVE",
"127 384 CURVE",
"137 395 LINE",
"128 501 LINE",
"77 501 LINE",
"83 455 OFFCURVE",
"85 408 OFFCURVE",
"85 362 CURVE SMOOTH",
"85 0 LINE",
"138 0 LINE",
"138 290 LINE SMOOTH",
"138 397 OFFCURVE",
"206 464 OFFCURVE",
"309 464 CURVE SMOOTH",
"399 464 OFFCURVE",
"439 418 OFFCURVE",
"439 316 CURVE SMOOTH",
"439 -11 LINE SMOOTH",
"439 -119 OFFCURVE",
"401 -139 OFFCURVE",
"352 -139 CURVE SMOOTH",
"338 -139 OFFCURVE",
"323 -137 OFFCURVE",
"304 -131 CURVE",
"304 -181 LINE",
"322 -186 OFFCURVE",
"342 -189 OFFCURVE",
"361 -189 CURVE SMOOTH",
"437 -189 OFFCURVE",
"493 -150 OFFCURVE",
"493 -24 CURVE SMOOTH",
"493 320 LINE SMOOTH",
"493 448 OFFCURVE",
"432 513 OFFCURVE",
"311 513 CURVE SMOOTH"
);
}
);
width = 575;
}
);
leftKerningGroup = n;
leftMetricsKey = n;
rightKerningGroup = n;
rightMetricsKey = n;
unicode = 014B;
},
{
color = 3;
glyphname = o;
lastChange = "2016-09-21 09:42:29 +0000";
layers = (
{
anchors = (
{
name = bottom;
position = "{304, 0}";
},
{
name = center;
position = "{304, 256}";
},
{
name = ogonek;
position = "{408, 10}";
},
{
name = top;
position = "{304, 511}";
},
{
name = topright;
position = "{369, 511}";
}
);
layerId = "440A02D1-6D9B-498A-89D0-C24C9D9BC992";
paths = (
{
closed = 1;
nodes = (
"467 -8 OFFCURVE",
"572 94 OFFCURVE",
"572 256 CURVE SMOOTH",
"572 418 OFFCURVE",
"467 520 OFFCURVE",
"304 520 CURVE SMOOTH",
"140 520 OFFCURVE",
"35 418 OFFCURVE",
"35 256 CURVE SMOOTH",
"35 94 OFFCURVE",
"140 -8 OFFCURVE",
"304 -8 CURVE SMOOTH"
);
},
{
closed = 1;
nodes = (
"231 111 OFFCURVE",
"191 157 OFFCURVE",
"191 256 CURVE SMOOTH",
"191 354 OFFCURVE",
"231 401 OFFCURVE",
"304 401 CURVE SMOOTH",
"376 401 OFFCURVE",
"416 354 OFFCURVE",
"416 256 CURVE SMOOTH",
"416 157 OFFCURVE",
"376 111 OFFCURVE",
"304 111 CURVE SMOOTH"
);
}
);
width = 607;
},
{
anchors = (
{
name = bottom;
position = "{280, 0}";
},
{
name = center;
position = "{280, 253}";
},
{
name = ogonek;
position = "{365, 10}";
},
{
name = top;
position = "{280, 506}";
},
{
name = topright;
position = "{330, 506}";
}
);
layerId = "E86C9AF2-1279-4BB3-9660-79C369E244F4";
paths = (
{
closed = 1;
nodes = (
"416 -7 OFFCURVE",
"507 95 OFFCURVE",
"507 253 CURVE SMOOTH",
"507 411 OFFCURVE",
"416 513 OFFCURVE",
"280 513 CURVE SMOOTH",
"143 513 OFFCURVE",
"52 411 OFFCURVE",
"52 253 CURVE SMOOTH",
"52 95 OFFCURVE",
"143 -7 OFFCURVE",
"280 -7 CURVE SMOOTH"
);
},
{
closed = 1;
nodes = (
"170 42 OFFCURVE",
"109 117 OFFCURVE",
"109 253 CURVE SMOOTH",
"109 386 OFFCURVE",
"173 464 OFFCURVE",
"280 464 CURVE SMOOTH",
"386 464 OFFCURVE",
"450 386 OFFCURVE",
"450 253 CURVE SMOOTH",
"450 117 OFFCURVE",
"388 42 OFFCURVE",
"279 42 CURVE SMOOTH"
);
}
);
width = 559;
}
);
leftKerningGroup = o;
rightKerningGroup = o;
unicode = 006F;
userData = {
anchors = (
);
b = {
};
com.typemytype.robofont.guides = (
);
com.typemytype.robofont.layerData = {
b = {
anchors = (
);
components = (
);
contours = (
);
lib = {
};
name = o;
unicodes = (
);
width = 1144;
};
};
components = (
);
contours = (
);
lib = {
};
name = o;
unicodes = (
);
width = 1199;
};
},
{
color = 3;
glyphname = ohorn;
lastChange = "2016-09-21 09:42:29 +0000";
layers = (
{
anchors = (
{
name = bottom;
position = "{304, 0}";
},
{
name = top;
position = "{304, 511}";
}
);
layerId = "440A02D1-6D9B-498A-89D0-C24C9D9BC992";
paths = (
{
closed = 1;
nodes = (
"467 -8 OFFCURVE",
"572 94 OFFCURVE",
"572 255 CURVE SMOOTH",
"572 343 OFFCURVE",
"541 419 OFFCURVE",
"477 464 CURVE",
"462 436 LINE",
"545 446 OFFCURVE",
"598 510 OFFCURVE",
"598 597 CURVE SMOOTH",
"598 636 LINE",
"464 636 LINE",
"464 616 LINE SMOOTH",
"464 528 OFFCURVE",
"427 511 OFFCURVE",
"387 511 CURVE SMOOTH",
"376 511 OFFCURVE",
"332 520 OFFCURVE",
"301 520 CURVE SMOOTH",
"140 520 OFFCURVE",
"35 418 OFFCURVE",
"35 255 CURVE SMOOTH",
"35 94 OFFCURVE",
"140 -8 OFFCURVE",
"304 -8 CURVE SMOOTH"
);
},
{
closed = 1;
nodes = (
"231 111 OFFCURVE",
"191 157 OFFCURVE",
"191 256 CURVE SMOOTH",
"191 354 OFFCURVE",
"231 401 OFFCURVE",
"304 401 CURVE SMOOTH",
"376 401 OFFCURVE",
"416 354 OFFCURVE",
"416 256 CURVE SMOOTH",
"416 157 OFFCURVE",
"376 111 OFFCURVE",
"304 111 CURVE SMOOTH"
);
}
);
width = 607;
},
{
anchors = (
{
name = bottom;
position = "{280, 0}";
},
{
name = top;
position = "{280, 506}";
}
);
layerId = "E86C9AF2-1279-4BB3-9660-79C369E244F4";
paths = (
{
closed = 1;
nodes = (
"416 -7 OFFCURVE",
"507 95 OFFCURVE",
"507 253 CURVE SMOOTH",
"507 366 OFFCURVE",
"461 448 OFFCURVE",
"383 488 CURVE",
"351 464 LINE",
"447 468 OFFCURVE",
"501 522 OFFCURVE",
"501 614 CURVE SMOOTH",
"501 636 LINE",
"451 636 LINE",
"451 623 LINE SMOOTH",
"451 541 OFFCURVE",
"421 507 OFFCURVE",
"349 507 CURVE SMOOTH",
"333 507 OFFCURVE",
"304 513 OFFCURVE",
"280 513 CURVE SMOOTH",
"143 513 OFFCURVE",
"52 411 OFFCURVE",
"52 253 CURVE SMOOTH",
"52 95 OFFCURVE",
"143 -7 OFFCURVE",
"280 -7 CURVE SMOOTH"
);
},
{
closed = 1;
nodes = (
"170 42 OFFCURVE",
"109 117 OFFCURVE",
"109 253 CURVE SMOOTH",
"109 386 OFFCURVE",
"173 464 OFFCURVE",
"280 464 CURVE SMOOTH",
"386 464 OFFCURVE",
"450 386 OFFCURVE",
"450 253 CURVE SMOOTH",
"450 117 OFFCURVE",
"388 42 OFFCURVE",
"279 42 CURVE SMOOTH"
);
}
);
width = 559;
}
);
leftKerningGroup = o;
leftMetricsKey = o;
widthMetricsKey = o;
rightKerningGroup = o;
unicode = 01A1;
},
{
color = 3;
glyphname = oogonek;
lastChange = "2016-09-21 09:42:29 +0000";
layers = (
{
anchors = (
{
name = top;
position = "{304, 511}";
}
);
layerId = "440A02D1-6D9B-498A-89D0-C24C9D9BC992";
paths = (
{
closed = 1;
nodes = (
"405 -204 OFFCURVE",
"440 -196 OFFCURVE",
"471 -183 CURVE",
"454 -109 LINE",
"434 -118 OFFCURVE",
"415 -122 OFFCURVE",
"398 -122 CURVE SMOOTH",
"359 -122 OFFCURVE",
"336 -103 OFFCURVE",
"336 -67 CURVE SMOOTH",
"336 -31 OFFCURVE",
"359 -6 OFFCURVE",
"403 6 CURVE SMOOTH",
"508 36 OFFCURVE",
"572 131 OFFCURVE",
"572 256 CURVE SMOOTH",
"572 418 OFFCURVE",
"467 520 OFFCURVE",
"304 520 CURVE SMOOTH",
"140 520 OFFCURVE",
"35 418 OFFCURVE",
"35 256 CURVE SMOOTH",
"35 94 OFFCURVE",
"140 -8 OFFCURVE",
"309 -8 CURVE",
"299 14 LINE",
"257 -10 OFFCURVE",
"236 -48 OFFCURVE",
"236 -90 CURVE SMOOTH",
"236 -156 OFFCURVE",
"290 -204 OFFCURVE",
"368 -204 CURVE SMOOTH"
);
},
{
closed = 1;
nodes = (
"231 111 OFFCURVE",
"191 157 OFFCURVE",
"191 256 CURVE SMOOTH",
"191 354 OFFCURVE",
"231 401 OFFCURVE",
"304 401 CURVE SMOOTH",
"376 401 OFFCURVE",
"416 354 OFFCURVE",
"416 256 CURVE SMOOTH",
"416 157 OFFCURVE",
"376 111 OFFCURVE",
"304 111 CURVE SMOOTH"
);
}
);
width = 607;
},
{
anchors = (
{
name = top;
position = "{280, 506}";
}
);
layerId = "E86C9AF2-1279-4BB3-9660-79C369E244F4";
paths = (
{
closed = 1;
nodes = (
"367 -197 OFFCURVE",
"396 -189 OFFCURVE",
"417 -174 CURVE",
"401 -134 LINE",
"379 -147 OFFCURVE",
"357 -154 OFFCURVE",
"340 -154 CURVE SMOOTH",
"297 -154 OFFCURVE",
"270 -127 OFFCURVE",
"270 -85 CURVE SMOOTH",
"270 -39 OFFCURVE",
"294 -13 OFFCURVE",
"362 8 CURVE SMOOTH",
"452 37 OFFCURVE",
"507 129 OFFCURVE",
"507 253 CURVE SMOOTH",
"507 411 OFFCURVE",
"416 513 OFFCURVE",
"280 513 CURVE SMOOTH",
"143 513 OFFCURVE",
"52 411 OFFCURVE",
"52 253 CURVE SMOOTH",
"52 92 OFFCURVE",
"145 -10 OFFCURVE",
"285 -7 CURVE",
"283 13 LINE",
"242 -7 OFFCURVE",
"219 -45 OFFCURVE",
"219 -91 CURVE SMOOTH",
"219 -154 OFFCURVE",
"267 -197 OFFCURVE",
"335 -197 CURVE SMOOTH"
);
},
{
closed = 1;
nodes = (
"170 42 OFFCURVE",
"109 117 OFFCURVE",
"109 253 CURVE SMOOTH",
"109 386 OFFCURVE",
"173 464 OFFCURVE",
"280 464 CURVE SMOOTH",
"386 464 OFFCURVE",
"450 386 OFFCURVE",
"450 253 CURVE SMOOTH",
"450 117 OFFCURVE",
"388 42 OFFCURVE",
"279 42 CURVE SMOOTH"
);
}
);
width = 559;
}
);
leftKerningGroup = o;
leftMetricsKey = o;
rightKerningGroup = o;
rightMetricsKey = o;
unicode = 01EB;
},
{
color = 3;
glyphname = oslash;
lastChange = "2016-09-21 09:42:29 +0000";
layers = (
{
anchors = (
{
name = top;
position = "{304, 511}";
}
);
layerId = "440A02D1-6D9B-498A-89D0-C24C9D9BC992";
paths = (
{
closed = 1;
nodes = (
"467 -8 OFFCURVE",
"572 94 OFFCURVE",
"572 256 CURVE SMOOTH",
"572 418 OFFCURVE",
"467 520 OFFCURVE",
"304 520 CURVE SMOOTH",
"140 520 OFFCURVE",
"35 418 OFFCURVE",
"35 256 CURVE SMOOTH",
"35 94 OFFCURVE",
"140 -8 OFFCURVE",
"304 -8 CURVE SMOOTH"
);
},
{
closed = 1;
nodes = (
"515 533 LINE",
"441 576 LINE",
"93 -22 LINE",
"166 -65 LINE"
);
},
{
closed = 1;
nodes = (
"228 110 OFFCURVE",
"188 156 OFFCURVE",
"188 256 CURVE SMOOTH",
"188 355 OFFCURVE",
"228 402 OFFCURVE",
"304 402 CURVE SMOOTH",
"379 402 OFFCURVE",
"419 355 OFFCURVE",
"419 256 CURVE SMOOTH",
"419 156 OFFCURVE",
"379 110 OFFCURVE",
"304 110 CURVE SMOOTH"
);
}
);
width = 607;
},
{
anchors = (
{
name = top;
position = "{280, 506}";
}
);
layerId = "E86C9AF2-1279-4BB3-9660-79C369E244F4";
paths = (
{
closed = 1;
nodes = (
"416 -7 OFFCURVE",
"507 95 OFFCURVE",
"507 253 CURVE SMOOTH",
"507 411 OFFCURVE",
"416 513 OFFCURVE",
"280 513 CURVE SMOOTH",
"143 513 OFFCURVE",
"52 411 OFFCURVE",
"52 253 CURVE SMOOTH",
"52 95 OFFCURVE",
"143 -7 OFFCURVE",
"280 -7 CURVE SMOOTH"
);
},
{
closed = 1;
nodes = (
"463 523 LINE",
"422 545 LINE",
"96 -17 LINE",
"136 -40 LINE"
);
},
{
closed = 1;
nodes = (
"170 42 OFFCURVE",
"109 117 OFFCURVE",
"109 253 CURVE SMOOTH",
"109 386 OFFCURVE",
"173 464 OFFCURVE",
"280 464 CURVE SMOOTH",
"386 464 OFFCURVE",
"450 386 OFFCURVE",
"450 253 CURVE SMOOTH",
"450 117 OFFCURVE",
"388 42 OFFCURVE",
"279 42 CURVE SMOOTH"
);
}
);
width = 559;
}
);
leftKerningGroup = o;
leftMetricsKey = o;
rightKerningGroup = o;
rightMetricsKey = o;
unicode = 00F8;
},
{
color = 3;
glyphname = oe;
lastChange = "2016-09-21 09:42:29 +0000";
layers = (
{
anchors = (
{
name = bottom;
position = "{492, 0}";
},
{
name = top;
position = "{492, 511}";
}
);
layerId = "440A02D1-6D9B-498A-89D0-C24C9D9BC992";
paths = (
{
closed = 1;
nodes = (
"453 -8 OFFCURVE",
"547 92 OFFCURVE",
"547 256 CURVE SMOOTH",
"547 420 OFFCURVE",
"453 520 OFFCURVE",
"300 520 CURVE SMOOTH",
"138 520 OFFCURVE",
"35 417 OFFCURVE",
"35 256 CURVE SMOOTH",
"35 95 OFFCURVE",
"138 -8 OFFCURVE",
"300 -8 CURVE SMOOTH"
);
},
{
closed = 1;
nodes = (
"231 111 OFFCURVE",
"191 157 OFFCURVE",
"191 256 CURVE SMOOTH",
"191 354 OFFCURVE",
"231 401 OFFCURVE",
"302 401 CURVE SMOOTH",
"373 401 OFFCURVE",
"412 354 OFFCURVE",
"412 256 CURVE SMOOTH",
"412 157 OFFCURVE",
"373 111 OFFCURVE",
"302 111 CURVE SMOOTH"
);
},
{
closed = 1;
nodes = (
"760 -8 OFFCURVE",
"837 15 OFFCURVE",
"886 54 CURVE",
"844 159 LINE",
"800 127 OFFCURVE",
"746 109 OFFCURVE",
"690 109 CURVE SMOOTH",
"605 109 OFFCURVE",
"569 156 OFFCURVE",
"569 271 CURVE SMOOTH",
"569 362 OFFCURVE",
"606 411 OFFCURVE",
"672 411 CURVE SMOOTH",
"730 411 OFFCURVE",
"762 367 OFFCURVE",
"762 286 CURVE",
"801 302 LINE",
"558 302 LINE",
"557 224 LINE",
"895 224 LINE",
"895 262 LINE SMOOTH",
"895 416 OFFCURVE",
"806 520 OFFCURVE",
"676 520 CURVE SMOOTH",
"533 520 OFFCURVE",
"439 415 OFFCURVE",
"440 255 CURVE SMOOTH",
"440 88 OFFCURVE",
"532 -8 OFFCURVE",
"689 -8 CURVE SMOOTH"
);
}
);
width = 929;
},
{
anchors = (
{
name = bottom;
position = "{479, 0}";
},
{
name = top;
position = "{479, 506}";
}
);
layerId = "E86C9AF2-1279-4BB3-9660-79C369E244F4";
paths = (
{
closed = 1;
nodes = (
"413 -7 OFFCURVE",
"499 94 OFFCURVE",
"499 253 CURVE SMOOTH",
"499 412 OFFCURVE",
"413 513 OFFCURVE",
"280 513 CURVE SMOOTH",
"143 513 OFFCURVE",
"52 411 OFFCURVE",
"52 253 CURVE SMOOTH",
"52 95 OFFCURVE",
"143 -7 OFFCURVE",
"280 -7 CURVE SMOOTH"
);
},
{
closed = 1;
nodes = (
"170 42 OFFCURVE",
"109 117 OFFCURVE",
"109 253 CURVE SMOOTH",
"109 386 OFFCURVE",
"173 464 OFFCURVE",
"280 464 CURVE SMOOTH",
"386 464 OFFCURVE",
"450 386 OFFCURVE",
"450 253 CURVE SMOOTH",
"450 117 OFFCURVE",
"388 42 OFFCURVE",
"279 42 CURVE SMOOTH"
);
},
{
closed = 1;
nodes = (
"761 -7 OFFCURVE",
"836 21 OFFCURVE",
"878 62 CURVE",
"855 105 LINE",
"803 63 OFFCURVE",
"750 42 OFFCURVE",
"692 42 CURVE SMOOTH",
"572 42 OFFCURVE",
"507 117 OFFCURVE",
"507 254 CURVE SMOOTH",
"507 386 OFFCURVE",
"572 467 OFFCURVE",
"681 467 CURVE SMOOTH",
"784 467 OFFCURVE",
"841 395 OFFCURVE",
"836 264 CURVE",
"856 288 LINE",
"487 288 LINE",
"488 244 LINE",
"886 244 LINE",
"886 272 LINE SMOOTH",
"886 424 OFFCURVE",
"809 513 OFFCURVE",
"681 513 CURVE SMOOTH",
"544 513 OFFCURVE",
"452 405 OFFCURVE",
"458 249 CURVE SMOOTH",
"463 87 OFFCURVE",
"550 -7 OFFCURVE",
"693 -7 CURVE SMOOTH"
);
}
);
width = 935;
}
);
leftKerningGroup = o;
leftMetricsKey = o;
rightKerningGroup = e;
rightMetricsKey = e;
unicode = 0153;
},
{
color = 3;
glyphname = p;
lastChange = "2016-09-21 09:42:29 +0000";
layers = (
{
anchors = (
{
name = bottom;
position = "{317, 0}";
},
{
name = top;
position = "{317, 511}";
}
);
layerId = "440A02D1-6D9B-498A-89D0-C24C9D9BC992";
paths = (
{
closed = 1;
nodes = (
"217 -186 LINE",
"217 120 LINE",
"204 100 LINE",
"226 33 OFFCURVE",
"293 -8 OFFCURVE",
"375 -8 CURVE SMOOTH",
"507 -8 OFFCURVE",
"599 94 OFFCURVE",
"599 253 CURVE SMOOTH",
"599 412 OFFCURVE",
"506 520 OFFCURVE",
"375 520 CURVE SMOOTH",
"293 520 OFFCURVE",
"226 477 OFFCURVE",
"204 411 CURVE",
"211 410 LINE",
"199 507 LINE",
"52 507 LINE",
"58 459 OFFCURVE",
"60 410 OFFCURVE",
"60 362 CURVE SMOOTH",
"60 -186 LINE"
);
},
{
closed = 1;
nodes = (
"256 111 OFFCURVE",
"215 162 OFFCURVE",
"215 255 CURVE SMOOTH",
"215 349 OFFCURVE",
"256 400 OFFCURVE",
"329 400 CURVE SMOOTH",
"401 400 OFFCURVE",
"442 346 OFFCURVE",
"442 253 CURVE SMOOTH",
"442 161 OFFCURVE",
"402 111 OFFCURVE",
"329 111 CURVE SMOOTH"
);
}
);
width = 634;
},
{
anchors = (
{
name = bottom;
position = "{293, 0}";
},
{
name = top;
position = "{293, 506}";
}
);
layerId = "E86C9AF2-1279-4BB3-9660-79C369E244F4";
paths = (
{
closed = 1;
nodes = (
"138 -186 LINE",
"138 139 LINE",
"128 132 LINE",
"151 42 OFFCURVE",
"218 -7 OFFCURVE",
"313 -7 CURVE SMOOTH",
"447 -7 OFFCURVE",
"536 94 OFFCURVE",
"536 251 CURVE SMOOTH",
"536 409 OFFCURVE",
"446 513 OFFCURVE",
"313 513 CURVE SMOOTH",
"218 513 OFFCURVE",
"151 464 OFFCURVE",
"128 375 CURVE",
"137 395 LINE",
"128 501 LINE",
"77 501 LINE",
"83 455 OFFCURVE",
"85 408 OFFCURVE",
"85 362 CURVE SMOOTH",
"85 -186 LINE"
);
},
{
closed = 1;
nodes = (
"199 42 OFFCURVE",
"139 119 OFFCURVE",
"139 253 CURVE SMOOTH",
"139 388 OFFCURVE",
"199 464 OFFCURVE",
"309 464 CURVE SMOOTH",
"415 464 OFFCURVE",
"479 385 OFFCURVE",
"479 251 CURVE SMOOTH",
"479 118 OFFCURVE",
"415 42 OFFCURVE",
"308 42 CURVE SMOOTH"
);
}
);
width = 588;
}
);
leftKerningGroup = n;
rightKerningGroup = o;
rightMetricsKey = o;
unicode = 0070;
userData = {
anchors = (
);
b = {
};
com.typemytype.robofont.layerData = {
b = {
anchors = (
);
components = (
);
contours = (
);
lib = {
};
name = p;
unicodes = (
);
width = 1181;
};
};
components = (
);
contours = (
);
lib = {
};
name = p;
unicodes = (
);
width = 1207;
};
},
{
color = 3;
glyphname = thorn;
lastChange = "2016-09-21 09:42:29 +0000";
layers = (
{
anchors = (
{
name = bottom;
position = "{317, 0}";
},
{
name = top;
position = "{317, 511}";
}
);
layerId = "440A02D1-6D9B-498A-89D0-C24C9D9BC992";
paths = (
{
closed = 1;
nodes = (
"217 -186 LINE",
"217 120 LINE",
"204 100 LINE",
"226 33 OFFCURVE",
"293 -8 OFFCURVE",
"375 -8 CURVE SMOOTH",
"506 -8 OFFCURVE",
"599 94 OFFCURVE",
"599 253 CURVE SMOOTH",
"599 412 OFFCURVE",
"506 520 OFFCURVE",
"375 520 CURVE SMOOTH",
"293 520 OFFCURVE",
"226 477 OFFCURVE",
"204 411 CURVE",
"217 392 LINE",
"217 728 LINE",
"60 728 LINE",
"60 -186 LINE"
);
},
{
closed = 1;
nodes = (
"256 111 OFFCURVE",
"215 162 OFFCURVE",
"215 255 CURVE SMOOTH",
"215 349 OFFCURVE",
"256 400 OFFCURVE",
"329 400 CURVE SMOOTH",
"401 400 OFFCURVE",
"442 346 OFFCURVE",
"442 253 CURVE SMOOTH",
"442 161 OFFCURVE",
"402 111 OFFCURVE",
"329 111 CURVE SMOOTH"
);
}
);
width = 634;
},
{
anchors = (
{
name = bottom;
position = "{293, 0}";
},
{
name = top;
position = "{293, 506}";
}
);
layerId = "E86C9AF2-1279-4BB3-9660-79C369E244F4";
paths = (
{
closed = 1;
nodes = (
"138 -186 LINE",
"138 139 LINE",
"128 132 LINE",
"151 42 OFFCURVE",
"218 -7 OFFCURVE",
"313 -7 CURVE SMOOTH",
"441 -7 OFFCURVE",
"536 87 OFFCURVE",
"536 251 CURVE SMOOTH",
"536 415 OFFCURVE",
"441 513 OFFCURVE",
"313 513 CURVE SMOOTH",
"218 513 OFFCURVE",
"151 464 OFFCURVE",
"128 375 CURVE",
"138 367 LINE",
"138 728 LINE",
"85 728 LINE",
"85 -186 LINE"
);
},
{
closed = 1;
nodes = (
"199 42 OFFCURVE",
"139 119 OFFCURVE",
"139 253 CURVE SMOOTH",
"139 388 OFFCURVE",
"199 464 OFFCURVE",
"309 464 CURVE SMOOTH",
"418 464 OFFCURVE",
"479 381 OFFCURVE",
"479 251 CURVE SMOOTH",
"479 121 OFFCURVE",
"418 42 OFFCURVE",
"308 42 CURVE SMOOTH"
);
}
);
width = 588;
}
);
leftKerningGroup = h;
rightKerningGroup = o;
rightMetricsKey = o;
unicode = 00FE;
},
{
color = 3;
glyphname = q;
lastChange = "2016-09-21 09:42:29 +0000";
layers = (
{
anchors = (
{
name = bottom;
position = "{317, 0}";
},
{
name = top;
position = "{317, 511}";
}
);
layerId = "440A02D1-6D9B-498A-89D0-C24C9D9BC992";
paths = (
{
closed = 1;
nodes = (
"573 362 LINE SMOOTH",
"573 410 OFFCURVE",
"575 459 OFFCURVE",
"582 507 CURVE",
"434 507 LINE",
"422 410 LINE",
"430 411 LINE",
"407 477 OFFCURVE",
"340 520 OFFCURVE",
"259 520 CURVE SMOOTH",
"128 520 OFFCURVE",
"35 412 OFFCURVE",
"35 253 CURVE SMOOTH",
"35 94 OFFCURVE",
"127 -8 OFFCURVE",
"259 -8 CURVE SMOOTH",
"340 -8 OFFCURVE",
"407 33 OFFCURVE",
"430 100 CURVE",
"416 120 LINE",
"416 -186 LINE",
"573 -186 LINE"
);
},
{
closed = 1;
nodes = (
"232 111 OFFCURVE",
"191 161 OFFCURVE",
"191 253 CURVE SMOOTH",
"191 346 OFFCURVE",
"234 400 OFFCURVE",
"305 400 CURVE SMOOTH",
"377 400 OFFCURVE",
"418 349 OFFCURVE",
"418 255 CURVE SMOOTH",
"418 162 OFFCURVE",
"377 111 OFFCURVE",
"305 111 CURVE SMOOTH"
);
}
);
width = 633;
},
{
anchors = (
{
name = bottom;
position = "{292, 0}";
},
{
name = top;
position = "{292, 506}";
}
);
layerId = "E86C9AF2-1279-4BB3-9660-79C369E244F4";
paths = (
{
closed = 1;
nodes = (
"503 362 LINE SMOOTH",
"503 408 OFFCURVE",
"505 455 OFFCURVE",
"510 501 CURVE",
"461 501 LINE",
"451 395 LINE",
"461 375 LINE",
"438 464 OFFCURVE",
"371 513 OFFCURVE",
"275 513 CURVE SMOOTH",
"142 513 OFFCURVE",
"52 409 OFFCURVE",
"52 251 CURVE SMOOTH",
"52 94 OFFCURVE",
"140 -7 OFFCURVE",
"275 -7 CURVE SMOOTH",
"371 -7 OFFCURVE",
"438 42 OFFCURVE",
"461 132 CURVE",
"449 139 LINE",
"449 -186 LINE",
"503 -186 LINE"
);
},
{
closed = 1;
nodes = (
"173 42 OFFCURVE",
"109 118 OFFCURVE",
"109 251 CURVE SMOOTH",
"109 385 OFFCURVE",
"173 464 OFFCURVE",
"280 464 CURVE SMOOTH",
"388 464 OFFCURVE",
"449 388 OFFCURVE",
"449 253 CURVE SMOOTH",
"449 119 OFFCURVE",
"388 42 OFFCURVE",
"281 42 CURVE SMOOTH"
);
}
);
width = 588;
}
);
leftKerningGroup = o;
leftMetricsKey = o;
rightKerningGroup = q;
unicode = 0071;
userData = {
anchors = (
);
b = {
};
com.typemytype.robofont.layerData = {
b = {
anchors = (
);
components = (
);
contours = (
);
lib = {
};
name = p;
unicodes = (
);
width = 1181;
};
};
components = (
);
contours = (
);
lib = {
};
name = p;
unicodes = (
);
width = 1207;
};
},
{
color = 3;
glyphname = r;
lastChange = "2016-09-21 09:42:29 +0000";
layers = (
{
anchors = (
{
name = bottom;
position = "{138, 0}";
},
{
name = top;
position = "{242, 511}";
}
);
layerId = "440A02D1-6D9B-498A-89D0-C24C9D9BC992";
paths = (
{
closed = 1;
nodes = (
"217 0 LINE",
"217 263 LINE SMOOTH",
"217 339 OFFCURVE",
"259 383 OFFCURVE",
"338 383 CURVE SMOOTH",
"364 383 OFFCURVE",
"387 378 OFFCURVE",
"414 366 CURVE",
"414 509 LINE",
"401 515 OFFCURVE",
"383 519 OFFCURVE",
"360 519 CURVE SMOOTH",
"282 519 OFFCURVE",
"214 472 OFFCURVE",
"199 381 CURVE",
"215 373 LINE",
"199 507 LINE",
"52 507 LINE",
"58 459 OFFCURVE",
"60 410 OFFCURVE",
"60 362 CURVE SMOOTH",
"60 0 LINE"
);
}
);
width = 414;
},
{
anchors = (
{
name = bottom;
position = "{113, 0}";
},
{
name = top;
position = "{213, 506}";
}
);
layerId = "E86C9AF2-1279-4BB3-9660-79C369E244F4";
paths = (
{
closed = 1;
nodes = (
"138 0 LINE",
"138 296 LINE SMOOTH",
"138 374 OFFCURVE",
"178 464 OFFCURVE",
"291 464 CURVE SMOOTH",
"310 464 OFFCURVE",
"322 463 OFFCURVE",
"335 460 CURVE",
"338 509 LINE",
"324 512 OFFCURVE",
"311 513 OFFCURVE",
"295 513 CURVE SMOOTH",
"217 513 OFFCURVE",
"149 469 OFFCURVE",
"128 383 CURVE",
"138 381 LINE",
"128 501 LINE",
"77 501 LINE",
"83 455 OFFCURVE",
"85 408 OFFCURVE",
"85 362 CURVE SMOOTH",
"85 0 LINE"
);
}
);
width = 344;
}
);
leftKerningGroup = n;
rightKerningGroup = r;
unicode = 0072;
userData = {
anchors = (
);
b = {
};
com.typemytype.robofont.layerData = {
b = {
anchors = (
);
components = (
);
contours = (
);
lib = {
};
name = r;
unicodes = (
);
width = 715;
};
};
components = (
);
contours = (
);
lib = {
};
name = r;
unicodes = (
);
width = 763;
};
},
{
color = 3;
glyphname = s;
lastChange = "2016-09-21 09:42:29 +0000";
layers = (
{
anchors = (
{
name = bottom;
position = "{252, 0}";
},
{
name = top;
position = "{261, 511}";
}
);
layerId = "440A02D1-6D9B-498A-89D0-C24C9D9BC992";
paths = (
{
closed = 1;
nodes = (
"392 -8 OFFCURVE",
"474 52 OFFCURVE",
"474 149 CURVE SMOOTH",
"474 230 OFFCURVE",
"430 276 OFFCURVE",
"325 300 CURVE SMOOTH",
"240 319 LINE SMOOTH",
"199 329 OFFCURVE",
"185 340 OFFCURVE",
"185 361 CURVE SMOOTH",
"185 391 OFFCURVE",
"214 408 OFFCURVE",
"261 408 CURVE SMOOTH",
"311 408 OFFCURVE",
"367 389 OFFCURVE",
"420 353 CURVE",
"463 458 LINE",
"407 497 OFFCURVE",
"336 520 OFFCURVE",
"262 520 CURVE SMOOTH",
"132 520 OFFCURVE",
"43 453 OFFCURVE",
"43 357 CURVE SMOOTH",
"43 279 OFFCURVE",
"87 234 OFFCURVE",
"186 213 CURVE SMOOTH",
"269 194 LINE SMOOTH",
"319 183 OFFCURVE",
"335 171 OFFCURVE",
"335 147 CURVE SMOOTH",
"335 119 OFFCURVE",
"307 103 OFFCURVE",
"258 103 CURVE SMOOTH",
"191 103 OFFCURVE",
"122 124 OFFCURVE",
"67 162 CURVE",
"26 54 LINE",
"82 13 OFFCURVE",
"161 -8 OFFCURVE",
"256 -8 CURVE SMOOTH"
);
}
);
width = 504;
},
{
anchors = (
{
name = bottom;
position = "{245, 0}";
},
{
name = top;
position = "{255, 506}";
}
);
layerId = "E86C9AF2-1279-4BB3-9660-79C369E244F4";
paths = (
{
closed = 1;
nodes = (
"362 -7 OFFCURVE",
"435 49 OFFCURVE",
"435 132 CURVE SMOOTH",
"435 199 OFFCURVE",
"391 244 OFFCURVE",
"301 264 CURVE SMOOTH",
"215 285 LINE SMOOTH",
"156 299 OFFCURVE",
"129 327 OFFCURVE",
"129 374 CURVE SMOOTH",
"129 430 OFFCURVE",
"175 464 OFFCURVE",
"255 464 CURVE SMOOTH",
"312 464 OFFCURVE",
"359 444 OFFCURVE",
"405 403 CURVE",
"427 446 LINE",
"388 490 OFFCURVE",
"324 513 OFFCURVE",
"255 513 CURVE SMOOTH",
"143 513 OFFCURVE",
"72 455 OFFCURVE",
"72 369 CURVE SMOOTH",
"72 306 OFFCURVE",
"121 254 OFFCURVE",
"200 236 CURVE SMOOTH",
"285 216 LINE SMOOTH",
"351 200 OFFCURVE",
"379 175 OFFCURVE",
"379 129 CURVE SMOOTH",
"379 73 OFFCURVE",
"334 42 OFFCURVE",
"248 42 CURVE SMOOTH",
"178 42 OFFCURVE",
"130 59 OFFCURVE",
"76 103 CURVE",
"55 60 LINE",
"102 15 OFFCURVE",
"167 -7 OFFCURVE",
"245 -7 CURVE SMOOTH"
);
}
);
width = 493;
}
);
leftKerningGroup = s;
rightKerningGroup = s;
unicode = 0073;
userData = {
anchors = (
);
b = {
};
com.typemytype.robofont.layerData = {
b = {
anchors = (
);
components = (
);
contours = (
);
lib = {
};
name = s;
unicodes = (
);
width = 1007;
};
};
components = (
);
contours = (
);
lib = {
};
name = s;
unicodes = (
);
width = 1006.7600;
};
},
{
color = 3;
glyphname = germandbls;
lastChange = "2016-09-21 09:42:29 +0000";
layers = (
{
layerId = "440A02D1-6D9B-498A-89D0-C24C9D9BC992";
paths = (
{
closed = 1;
nodes = (
"217 0 LINE",
"217 482 LINE SMOOTH",
"217 576 OFFCURVE",
"265 624 OFFCURVE",
"349 624 CURVE SMOOTH",
"412 624 OFFCURVE",
"447 597 OFFCURVE",
"447 548 CURVE SMOOTH",
"447 494 OFFCURVE",
"416 455 OFFCURVE",
"311 423 CURVE",
"311 308 LINE",
"477 268 OFFCURVE",
"538 226 OFFCURVE",
"538 172 CURVE SMOOTH",
"538 138 OFFCURVE",
"518 108 OFFCURVE",
"470 107 CURVE SMOOTH",
"412 106 OFFCURVE",
"353 125 OFFCURVE",
"303 166 CURVE",
"261 54 LINE",
"309 14 OFFCURVE",
"382 -8 OFFCURVE",
"465 -8 CURVE SMOOTH",
"596 -8 OFFCURVE",
"681 61 OFFCURVE",
"681 165 CURVE SMOOTH",
"681 284 OFFCURVE",
"597 348 OFFCURVE",
"412 387 CURVE",
"412 359 LINE",
"560 408 OFFCURVE",
"594 477 OFFCURVE",
"594 555 CURVE SMOOTH",
"594 668 OFFCURVE",
"500 737 OFFCURVE",
"349 737 CURVE SMOOTH",
"163 737 OFFCURVE",
"60 640 OFFCURVE",
"60 459 CURVE SMOOTH",
"60 0 LINE"
);
}
);
width = 702;
},
{
layerId = "E86C9AF2-1279-4BB3-9660-79C369E244F4";
paths = (
{
closed = 1;
nodes = (
"138 0 LINE",
"138 510 LINE SMOOTH",
"138 624 OFFCURVE",
"198 684 OFFCURVE",
"309 684 CURVE SMOOTH",
"390 684 OFFCURVE",
"433 645 OFFCURVE",
"433 579 CURVE SMOOTH",
"433 504 OFFCURVE",
"394 441 OFFCURVE",
"260 387 CURVE",
"260 343 LINE",
"460 289 OFFCURVE",
"519 230 OFFCURVE",
"519 153 CURVE SMOOTH",
"519 80 OFFCURVE",
"476 42 OFFCURVE",
"395 42 CURVE SMOOTH",
"340 42 OFFCURVE",
"293 60 OFFCURVE",
"236 103 CURVE",
"213 60 LINE",
"257 18 OFFCURVE",
"324 -7 OFFCURVE",
"395 -7 CURVE SMOOTH",
"505 -7 OFFCURVE",
"574 54 OFFCURVE",
"574 153 CURVE SMOOTH",
"574 251 OFFCURVE",
"499 333 OFFCURVE",
"307 375 CURVE",
"307 364 LINE",
"441 417 OFFCURVE",
"486 491 OFFCURVE",
"486 578 CURVE SMOOTH",
"486 674 OFFCURVE",
"419 732 OFFCURVE",
"308 732 CURVE SMOOTH",
"166 732 OFFCURVE",
"85 650 OFFCURVE",
"85 506 CURVE SMOOTH",
"85 0 LINE"
);
}
);
width = 610;
}
);
leftKerningGroup = h;
rightKerningGroup = germandbls;
unicode = 00DF;
},
{
color = 3;
glyphname = t;
lastChange = "2016-09-21 09:42:29 +0000";
layers = (
{
anchors = (
{
name = bottom;
position = "{252, 0}";
},
{
name = center;
position = "{180, 256}";
},
{
name = top;
position = "{179, 656}";
},
{
name = topright;
position = "{300, 728}";
}
);
layerId = "440A02D1-6D9B-498A-89D0-C24C9D9BC992";
paths = (
{
closed = 1;
nodes = (
"384 390 LINE",
"384 507 LINE",
"4 507 LINE",
"4 390 LINE"
);
},
{
closed = 1;
nodes = (
"364 122 OFFCURVE",
"350 120 OFFCURVE",
"335 120 CURVE SMOOTH",
"292 120 OFFCURVE",
"257 142 OFFCURVE",
"257 200 CURVE SMOOTH",
"257 676 LINE",
"100 625 LINE",
"100 197 LINE SMOOTH",
"100 69 OFFCURVE",
"167 -8 OFFCURVE",
"296 -8 CURVE SMOOTH",
"328 -8 OFFCURVE",
"356 -5 OFFCURVE",
"384 6 CURVE",
"384 127 LINE"
);
}
);
width = 400;
},
{
anchors = (
{
name = bottom;
position = "{215, 0}";
},
{
name = center;
position = "{165, 253}";
},
{
name = top;
position = "{134, 656}";
},
{
name = topright;
position = "{224, 728}";
}
);
layerId = "E86C9AF2-1279-4BB3-9660-79C369E244F4";
paths = (
{
closed = 1;
nodes = (
"311 456 LINE",
"311 501 LINE",
"8 501 LINE",
"8 456 LINE"
);
},
{
closed = 1;
nodes = (
"288 45 OFFCURVE",
"274 43 OFFCURVE",
"253 43 CURVE SMOOTH",
"199 43 OFFCURVE",
"161 63 OFFCURVE",
"161 151 CURVE SMOOTH",
"161 656 LINE",
"107 635 LINE",
"107 138 LINE SMOOTH",
"107 38 OFFCURVE",
"163 -6 OFFCURVE",
"245 -6 CURVE SMOOTH",
"269 -6 OFFCURVE",
"288 -3 OFFCURVE",
"308 2 CURVE",
"308 52 LINE"
);
}
);
width = 332;
}
);
leftKerningGroup = t;
rightKerningGroup = t;
unicode = 0074;
userData = {
anchors = (
);
b = {
};
com.typemytype.robofont.layerData = {
b = {
anchors = (
);
components = (
);
contours = (
{
points = (
{
segmentType = curve;
smooth = 1;
x = 317;
y = 0;
},
{
smooth = 0;
x = 358;
y = 0;
},
{
smooth = 0;
x = 398;
y = 27;
},
{
segmentType = curve;
smooth = 1;
x = 398;
y = 79;
},
{
segmentType = line;
smooth = 0;
x = 398;
y = 876;
},
{
segmentType = line;
smooth = 1;
x = 578;
y = 876;
},
{
smooth = 0;
x = 621;
y = 876;
},
{
smooth = 0;
x = 634;
y = 897;
},
{
segmentType = curve;
smooth = 1;
x = 634;
y = 928;
},
{
smooth = 0;
x = 634;
y = 957;
},
{
smooth = 0;
x = 621;
y = 981;
},
{
segmentType = curve;
smooth = 1;
x = 578;
y = 981;
},
{
segmentType = line;
smooth = 0;
x = 398;
y = 981;
},
{
segmentType = line;
smooth = 1;
x = 398;
y = 1053;
},
{
smooth = 0;
x = 398;
y = 1285;
},
{
smooth = 0;
x = 432;
y = 1318;
},
{
segmentType = curve;
smooth = 1;
x = 544;
y = 1318;
},
{
segmentType = line;
smooth = 1;
x = 629;
y = 1318;
},
{
smooth = 0;
x = 706;
y = 1318;
},
{
smooth = 0;
x = 703;
y = 1438;
},
{
segmentType = curve;
smooth = 1;
x = 630;
y = 1438;
},
{
segmentType = line;
smooth = 1;
x = 510;
y = 1438;
},
{
smooth = 0;
x = 357;
y = 1438;
},
{
smooth = 0;
x = 238;
y = 1371;
},
{
segmentType = curve;
smooth = 1;
x = 238;
y = 1112;
},
{
segmentType = line;
smooth = 0;
x = 238;
y = 981;
},
{
segmentType = line;
smooth = 1;
x = 98;
y = 981;
},
{
smooth = 0;
x = 55;
y = 981;
},
{
smooth = 0;
x = 39;
y = 957;
},
{
segmentType = curve;
smooth = 1;
x = 39;
y = 928;
},
{
smooth = 0;
x = 39;
y = 899;
},
{
smooth = 0;
x = 55;
y = 876;
},
{
segmentType = curve;
smooth = 1;
x = 98;
y = 876;
},
{
segmentType = line;
smooth = 0;
x = 238;
y = 876;
},
{
segmentType = line;
smooth = 1;
x = 238;
y = 79;
},
{
smooth = 0;
x = 238;
y = 26;
},
{
smooth = 0;
x = 278;
y = 0;
}
);
}
);
lib = {
};
name = t;
unicodes = (
);
width = 706;
};
};
components = (
);
contours = (
);
lib = {
};
name = t;
unicodes = (
);
width = 768;
};
},
{
color = 3;
glyphname = tbar;
lastChange = "2016-09-21 09:42:29 +0000";
layers = (
{
layerId = "440A02D1-6D9B-498A-89D0-C24C9D9BC992";
paths = (
{
closed = 1;
nodes = (
"369 232 LINE",
"369 342 LINE",
"30 342 LINE",
"30 232 LINE"
);
},
{
closed = 1;
nodes = (
"390 390 LINE",
"390 507 LINE",
"9 507 LINE",
"9 390 LINE"
);
},
{
closed = 1;
nodes = (
"369 122 OFFCURVE",
"355 120 OFFCURVE",
"340 120 CURVE SMOOTH",
"298 120 OFFCURVE",
"263 142 OFFCURVE",
"263 200 CURVE SMOOTH",
"263 676 LINE",
"105 625 LINE",
"105 197 LINE SMOOTH",
"105 69 OFFCURVE",
"173 -8 OFFCURVE",
"301 -8 CURVE SMOOTH",
"333 -8 OFFCURVE",
"362 -5 OFFCURVE",
"390 6 CURVE",
"390 127 LINE"
);
}
);
width = 411;
},
{
layerId = "E86C9AF2-1279-4BB3-9660-79C369E244F4";
paths = (
{
closed = 1;
nodes = (
"295 268 LINE",
"295 312 LINE",
"34 312 LINE",
"34 268 LINE"
);
},
{
closed = 1;
nodes = (
"316 456 LINE",
"316 501 LINE",
"13 501 LINE",
"13 456 LINE"
);
},
{
closed = 1;
nodes = (
"293 45 OFFCURVE",
"279 43 OFFCURVE",
"258 43 CURVE SMOOTH",
"205 43 OFFCURVE",
"166 63 OFFCURVE",
"166 151 CURVE SMOOTH",
"166 656 LINE",
"113 635 LINE",
"113 138 LINE SMOOTH",
"113 38 OFFCURVE",
"168 -6 OFFCURVE",
"250 -6 CURVE SMOOTH",
"274 -6 OFFCURVE",
"293 -3 OFFCURVE",
"313 2 CURVE",
"313 52 LINE"
);
}
);
width = 342;
}
);
leftKerningGroup = t;
leftMetricsKey = "=t+5";
rightKerningGroup = t;
rightMetricsKey = "=t+5";
unicode = 0167;
userData = {
com.typemytype.robofont.layerData = {
b = {
anchors = (
);
components = (
);
contours = (
);
lib = {
};
name = tbar;
unicodes = (
);
width = 706;
};
};
};
},
{
color = 3;
glyphname = u;
lastChange = "2016-09-21 09:42:29 +0000";
layers = (
{
anchors = (
{
name = bottom;
position = "{304, 0}";
},
{
name = ogonek;
position = "{521, 10}";
},
{
name = top;
position = "{304, 511}";
},
{
name = topright;
position = "{423, 511}";
}
);
layerId = "440A02D1-6D9B-498A-89D0-C24C9D9BC992";
paths = (
{
closed = 1;
nodes = (
"321 -8 OFFCURVE",
"379 29 OFFCURVE",
"409 98 CURVE",
"396 101 LINE",
"396 0 LINE",
"549 0 LINE",
"549 507 LINE",
"391 507 LINE",
"391 227 LINE SMOOTH",
"391 159 OFFCURVE",
"350 114 OFFCURVE",
"290 114 CURVE SMOOTH",
"239 114 OFFCURVE",
"214 143 OFFCURVE",
"214 203 CURVE SMOOTH",
"214 507 LINE",
"57 507 LINE",
"57 206 LINE SMOOTH",
"57 62 OFFCURVE",
"119 -8 OFFCURVE",
"246 -8 CURVE SMOOTH"
);
}
);
width = 609;
},
{
anchors = (
{
name = bottom;
position = "{283, 0}";
},
{
name = ogonek;
position = "{478, 10}";
},
{
name = top;
position = "{283, 506}";
},
{
name = topright;
position = "{456, 506}";
}
);
layerId = "E86C9AF2-1279-4BB3-9660-79C369E244F4";
paths = (
{
closed = 1;
nodes = (
"343 -7 OFFCURVE",
"414 37 OFFCURVE",
"440 121 CURVE",
"429 112 LINE",
"429 0 LINE",
"481 0 LINE",
"481 501 LINE",
"428 501 LINE",
"428 216 LINE SMOOTH",
"428 111 OFFCURVE",
"362 42 OFFCURVE",
"261 42 CURVE SMOOTH",
"176 42 OFFCURVE",
"135 88 OFFCURVE",
"135 190 CURVE SMOOTH",
"135 501 LINE",
"82 501 LINE",
"82 186 LINE SMOOTH",
"82 59 OFFCURVE",
"143 -7 OFFCURVE",
"259 -7 CURVE SMOOTH"
);
}
);
width = 566;
}
);
leftKerningGroup = u;
leftMetricsKey = "=|n";
rightKerningGroup = u;
unicode = 0075;
userData = {
anchors = (
);
b = {
};
com.typemytype.robofont.layerData = {
b = {
anchors = (
);
components = (
);
contours = (
{
points = (
{
segmentType = curve;
smooth = 1;
x = 915;
y = 991;
},
{
smooth = 0;
x = 875;
y = 991;
},
{
smooth = 0;
x = 834;
y = 965;
},
{
segmentType = curve;
smooth = 1;
x = 834;
y = 916;
},
{
segmentType = line;
smooth = 0;
x = 834;
y = 395;
},
{
smooth = 0;
x = 821;
y = 198;
},
{
smooth = 0;
x = 698;
y = 90;
},
{
segmentType = curve;
smooth = 1;
x = 542;
y = 90;
},
{
smooth = 0;
x = 385;
y = 90;
},
{
smooth = 0;
x = 306;
y = 187;
},
{
segmentType = curve;
smooth = 1;
x = 306;
y = 367;
},
{
segmentType = line;
smooth = 1;
x = 306;
y = 916;
},
{
smooth = 0;
x = 306;
y = 967;
},
{
smooth = 0;
x = 266;
y = 991;
},
{
segmentType = curve;
smooth = 1;
x = 226;
y = 991;
},
{
smooth = 0;
x = 186;
y = 991;
},
{
smooth = 0;
x = 146;
y = 967;
},
{
segmentType = curve;
smooth = 1;
x = 146;
y = 916;
},
{
segmentType = line;
smooth = 1;
x = 146;
y = 369;
},
{
smooth = 0;
x = 146;
y = 96;
},
{
smooth = 0;
x = 294;
y = "-20";
},
{
segmentType = curve;
smooth = 1;
x = 507;
y = "-20";
},
{
smooth = 0;
x = 656;
y = "-20";
},
{
smooth = 0;
x = 786;
y = 49;
},
{
segmentType = curve;
smooth = 0;
x = 834;
y = 179;
},
{
segmentType = line;
smooth = 1;
x = 834;
y = 73;
},
{
smooth = 0;
x = 834;
y = 24;
},
{
smooth = 0;
x = 874;
y = 0;
},
{
segmentType = curve;
smooth = 1;
x = 913;
y = 0;
},
{
smooth = 0;
x = 953;
y = 0;
},
{
smooth = 0;
x = 994;
y = 24;
},
{
segmentType = curve;
smooth = 1;
x = 994;
y = 75;
},
{
segmentType = line;
smooth = 1;
x = 994;
y = 916;
},
{
smooth = 0;
x = 994;
y = 967;
},
{
smooth = 0;
x = 955;
y = 991;
}
);
}
);
lib = {
};
name = u;
unicodes = (
);
width = 1152;
};
};
components = (
);
contours = (
);
lib = {
};
name = u;
unicodes = (
);
width = 1195;
};
},
{
color = 3;
glyphname = uhorn;
lastChange = "2016-09-21 09:42:29 +0000";
layers = (
{
anchors = (
{
name = bottom;
position = "{304, 0}";
},
{
name = top;
position = "{304, 511}";
}
);
layerId = "440A02D1-6D9B-498A-89D0-C24C9D9BC992";
widthMetricsKey = "=u+25";
paths = (
{
closed = 1;
nodes = (
"530 616 LINE SMOOTH",
"530 536 OFFCURVE",
"504 507 OFFCURVE",
"436 507 CURVE SMOOTH",
"391 507 LINE",
"391 227 LINE SMOOTH",
"391 159 OFFCURVE",
"350 114 OFFCURVE",
"290 114 CURVE SMOOTH",
"239 114 OFFCURVE",
"214 143 OFFCURVE",
"214 203 CURVE SMOOTH",
"214 507 LINE",
"57 507 LINE",
"57 206 LINE SMOOTH",
"57 62 OFFCURVE",
"119 -8 OFFCURVE",
"246 -8 CURVE SMOOTH",
"321 -8 OFFCURVE",
"379 29 OFFCURVE",
"409 98 CURVE",
"396 101 LINE",
"396 0 LINE",
"549 0 LINE",
"549 486 LINE",
"517 435 LINE",
"605 440 OFFCURVE",
"665 506 OFFCURVE",
"665 597 CURVE SMOOTH",
"665 636 LINE",
"530 636 LINE"
);
}
);
width = 634;
},
{
anchors = (
{
name = bottom;
position = "{283, 0}";
},
{
name = top;
position = "{283, 506}";
}
);
layerId = "E86C9AF2-1279-4BB3-9660-79C369E244F4";
widthMetricsKey = "=u+10";
paths = (
{
closed = 1;
nodes = (
"554 623 LINE SMOOTH",
"554 538 OFFCURVE",
"521 502 OFFCURVE",
"443 501 CURVE SMOOTH",
"428 501 LINE",
"428 216 LINE SMOOTH",
"428 111 OFFCURVE",
"362 42 OFFCURVE",
"261 42 CURVE SMOOTH",
"176 42 OFFCURVE",
"135 88 OFFCURVE",
"135 190 CURVE SMOOTH",
"135 501 LINE",
"82 501 LINE",
"82 186 LINE SMOOTH",
"82 59 OFFCURVE",
"143 -7 OFFCURVE",
"259 -7 CURVE SMOOTH",
"343 -7 OFFCURVE",
"414 37 OFFCURVE",
"440 121 CURVE",
"429 112 LINE",
"429 0 LINE",
"481 0 LINE",
"481 481 LINE",
"455 464 LINE",
"551 464 OFFCURVE",
"604 519 OFFCURVE",
"604 614 CURVE SMOOTH",
"604 636 LINE",
"554 636 LINE"
);
}
);
width = 576;
}
);
leftKerningGroup = u;
leftMetricsKey = u;
rightKerningGroup = uhorn;
unicode = 01B0;
},
{
color = 3;
glyphname = uogonek;
lastChange = "2016-09-21 09:42:29 +0000";
layers = (
{
layerId = "440A02D1-6D9B-498A-89D0-C24C9D9BC992";
paths = (
{
closed = 1;
nodes = (
"549 507 LINE",
"391 507 LINE",
"391 227 LINE SMOOTH",
"391 159 OFFCURVE",
"350 114 OFFCURVE",
"290 114 CURVE SMOOTH",
"239 114 OFFCURVE",
"214 143 OFFCURVE",
"214 203 CURVE SMOOTH",
"214 507 LINE",
"57 507 LINE",
"57 206 LINE SMOOTH",
"57 62 OFFCURVE",
"119 -8 OFFCURVE",
"246 -8 CURVE SMOOTH",
"321 -8 OFFCURVE",
"379 29 OFFCURVE",
"409 98 CURVE",
"396 101 LINE",
"396 0 LINE",
"437 0 LINE",
"451 38 LINE",
"388 13 OFFCURVE",
"352 -32 OFFCURVE",
"352 -88 CURVE SMOOTH",
"352 -156 OFFCURVE",
"407 -204 OFFCURVE",
"485 -204 CURVE SMOOTH",
"521 -204 OFFCURVE",
"557 -196 OFFCURVE",
"588 -183 CURVE",
"570 -109 LINE",
"551 -118 OFFCURVE",
"532 -122 OFFCURVE",
"515 -122 CURVE SMOOTH",
"474 -122 OFFCURVE",
"453 -103 OFFCURVE",
"453 -67 CURVE SMOOTH",
"453 -27 OFFCURVE",
"488 0 OFFCURVE",
"539 0 CURVE SMOOTH",
"549 0 LINE"
);
}
);
width = 609;
},
{
layerId = "E86C9AF2-1279-4BB3-9660-79C369E244F4";
paths = (
{
closed = 1;
nodes = (
"481 501 LINE",
"428 501 LINE",
"428 216 LINE SMOOTH",
"428 111 OFFCURVE",
"362 42 OFFCURVE",
"261 42 CURVE SMOOTH",
"176 42 OFFCURVE",
"135 88 OFFCURVE",
"135 190 CURVE SMOOTH",
"135 501 LINE",
"82 501 LINE",
"82 186 LINE SMOOTH",
"82 59 OFFCURVE",
"143 -7 OFFCURVE",
"259 -7 CURVE SMOOTH",
"343 -7 OFFCURVE",
"414 37 OFFCURVE",
"440 121 CURVE",
"429 112 LINE",
"429 0 LINE",
"444 0 LINE",
"465 39 LINE",
"382 26 OFFCURVE",
"332 -24 OFFCURVE",
"332 -91 CURVE SMOOTH",
"332 -154 OFFCURVE",
"378 -197 OFFCURVE",
"447 -197 CURVE SMOOTH",
"479 -197 OFFCURVE",
"508 -189 OFFCURVE",
"530 -174 CURVE",
"513 -134 LINE",
"492 -147 OFFCURVE",
"470 -154 OFFCURVE",
"453 -154 CURVE SMOOTH",
"409 -154 OFFCURVE",
"382 -127 OFFCURVE",
"382 -85 CURVE SMOOTH",
"382 -35 OFFCURVE",
"422 0 OFFCURVE",
"477 0 CURVE SMOOTH",
"481 0 LINE"
);
}
);
width = 566;
}
);
leftKerningGroup = u;
leftMetricsKey = u;
widthMetricsKey = u;
rightKerningGroup = u;
unicode = 0173;
},
{
color = 3;
glyphname = v;
lastChange = "2016-09-21 09:42:29 +0000";
layers = (
{
anchors = (
{
name = bottom;
position = "{277, 0}";
},
{
name = top;
position = "{277, 511}";
}
);
layerId = "440A02D1-6D9B-498A-89D0-C24C9D9BC992";
paths = (
{
closed = 1;
nodes = (
"341 0 LINE",
"565 506 LINE",
"410 506 LINE",
"263 146 LINE",
"294 146 LINE",
"152 506 LINE",
"-12 506 LINE",
"209 0 LINE"
);
}
);
width = 552;
},
{
anchors = (
{
name = bottom;
position = "{262, 0}";
},
{
name = top;
position = "{262, 506}";
}
);
layerId = "E86C9AF2-1279-4BB3-9660-79C369E244F4";
paths = (
{
closed = 1;
nodes = (
"290 0 LINE",
"504 501 LINE",
"449 501 LINE",
"252 28 LINE",
"273 28 LINE",
"78 501 LINE",
"20 501 LINE",
"232 0 LINE"
);
}
);
width = 523;
}
);
leftKerningGroup = v;
rightKerningGroup = v;
unicode = 0076;
userData = {
com.typemytype.robofont.layerData = {
b = {
anchors = (
);
components = (
);
contours = (
{
points = (
{
segmentType = line;
smooth = 0;
x = 518;
y = 0;
},
{
smooth = 0;
x = 589;
y = 0;
},
{
smooth = 0;
x = 618;
y = 36;
},
{
segmentType = curve;
smooth = 1;
x = 654;
y = 121;
},
{
segmentType = line;
smooth = 1;
x = 979;
y = 890;
},
{
smooth = 0;
x = 1000;
y = 940;
},
{
smooth = 0;
x = 968;
y = 991;
},
{
segmentType = curve;
smooth = 1;
x = 907;
y = 991;
},
{
smooth = 0;
x = 878;
y = 991;
},
{
smooth = 0;
x = 850;
y = 975;
},
{
segmentType = curve;
smooth = 1;
x = 836;
y = 940;
},
{
segmentType = line;
smooth = 0;
x = 518;
y = 166;
}
);
},
{
points = (
{
segmentType = curve;
smooth = 0;
x = 518;
y = 0;
},
{
segmentType = line;
smooth = 0;
x = 518;
y = 166;
},
{
segmentType = line;
smooth = 1;
x = 200;
y = 940;
},
{
smooth = 0;
x = 186;
y = 975;
},
{
smooth = 0;
x = 158;
y = 991;
},
{
segmentType = curve;
smooth = 1;
x = 129;
y = 991;
},
{
smooth = 0;
x = 68;
y = 991;
},
{
smooth = 0;
x = 36;
y = 940;
},
{
segmentType = curve;
smooth = 1;
x = 57;
y = 890;
},
{
segmentType = line;
smooth = 1;
x = 382;
y = 121;
},
{
smooth = 0;
x = 418;
y = 36;
},
{
smooth = 0;
x = 447;
y = 0;
}
);
}
);
lib = {
};
name = v;
unicodes = (
);
width = 1027;
};
};
};
},
{
color = 3;
glyphname = w;
lastChange = "2016-09-21 09:42:29 +0000";
layers = (
{
anchors = (
{
name = bottom;
position = "{446, 0}";
},
{
name = top;
position = "{446, 511}";
}
);
layerId = "440A02D1-6D9B-498A-89D0-C24C9D9BC992";
paths = (
{
closed = 1;
nodes = (
"337 0 LINE",
"477 373 LINE",
"410 373 LINE",
"556 0 LINE",
"688 0 LINE",
"894 507 LINE",
"742 507 LINE",
"612 153 LINE",
"634 153 LINE",
"502 507 LINE",
"397 507 LINE",
"266 153 LINE",
"291 153 LINE",
"158 507 LINE",
"-2 507 LINE",
"204 0 LINE"
);
}
);
width = 893;
},
{
anchors = (
{
name = bottom;
position = "{431, 0}";
},
{
name = top;
position = "{431, 506}";
}
);
layerId = "E86C9AF2-1279-4BB3-9660-79C369E244F4";
paths = (
{
closed = 1;
nodes = (
"275 0 LINE",
"448 481 LINE",
"413 481 LINE",
"586 0 LINE",
"644 0 LINE",
"824 501 LINE",
"769 501 LINE",
"601 27 LINE",
"628 27 LINE",
"461 501 LINE",
"403 501 LINE",
"232 27 LINE",
"258 27 LINE",
"95 501 LINE",
"37 501 LINE",
"216 0 LINE"
);
}
);
width = 861;
}
);
leftKerningGroup = v;
rightKerningGroup = v;
unicode = 0077;
userData = {
anchors = (
);
b = {
};
com.typemytype.robofont.layerData = {
b = {
anchors = (
);
components = (
);
contours = (
{
points = (
{
segmentType = curve;
smooth = 1;
x = 477;
y = 0;
},
{
smooth = 0;
x = 524;
y = 0;
},
{
smooth = 0;
x = 564;
y = 30;
},
{
segmentType = curve;
smooth = 0;
x = 588;
y = 96;
},
{
segmentType = line;
smooth = 0;
x = 859;
y = 839;
},
{
segmentType = line;
smooth = 0;
x = 859;
y = 991;
},
{
smooth = 0;
x = 808;
y = 991;
},
{
smooth = 0;
x = 771;
y = 959;
},
{
segmentType = curve;
smooth = 1;
x = 750;
y = 899;
},
{
segmentType = line;
smooth = 0;
x = 488;
y = 173;
},
{
segmentType = line;
smooth = 1;
x = 223;
y = 936;
},
{
smooth = 0;
x = 210;
y = 974;
},
{
smooth = 0;
x = 183;
y = 991;
},
{
segmentType = curve;
smooth = 1;
x = 152;
y = 991;
},
{
smooth = 0;
x = 112;
y = 991;
},
{
smooth = 0;
x = 79;
y = 962;
},
{
segmentType = curve;
smooth = 1;
x = 79;
y = 916;
},
{
smooth = 0;
x = 79;
y = 909;
},
{
smooth = 0;
x = 81;
y = 899;
},
{
segmentType = curve;
smooth = 0;
x = 84;
y = 888;
},
{
segmentType = line;
smooth = 1;
x = 372;
y = 88;
},
{
smooth = 0;
x = 394;
y = 26;
},
{
smooth = 0;
x = 433;
y = 0;
}
);
},
{
points = (
{
segmentType = curve;
smooth = 1;
x = 1241;
y = 0;
},
{
smooth = 0;
x = 1285;
y = 0;
},
{
smooth = 0;
x = 1324;
y = 26;
},
{
segmentType = curve;
smooth = 1;
x = 1346;
y = 88;
},
{
segmentType = line;
smooth = 0;
x = 1634;
y = 888;
},
{
smooth = 0;
x = 1637;
y = 899;
},
{
smooth = 0;
x = 1639;
y = 909;
},
{
segmentType = curve;
smooth = 1;
x = 1639;
y = 916;
},
{
smooth = 0;
x = 1639;
y = 962;
},
{
smooth = 0;
x = 1606;
y = 991;
},
{
segmentType = curve;
smooth = 1;
x = 1566;
y = 991;
},
{
smooth = 0;
x = 1535;
y = 991;
},
{
smooth = 0;
x = 1508;
y = 974;
},
{
segmentType = curve;
smooth = 1;
x = 1495;
y = 936;
},
{
segmentType = line;
smooth = 0;
x = 1230;
y = 173;
},
{
segmentType = line;
smooth = 1;
x = 968;
y = 899;
},
{
smooth = 0;
x = 947;
y = 959;
},
{
smooth = 0;
x = 910;
y = 991;
},
{
segmentType = curve;
smooth = 0;
x = 859;
y = 991;
},
{
segmentType = line;
smooth = 0;
x = 859;
y = 839;
},
{
segmentType = line;
smooth = 0;
x = 1130;
y = 96;
},
{
smooth = 0;
x = 1154;
y = 30;
},
{
smooth = 0;
x = 1194;
y = 0;
}
);
}
);
lib = {
};
name = w;
unicodes = (
);
width = 1699;
};
};
components = (
);
contours = (
);
lib = {
};
name = w;
unicodes = (
);
width = 1742;
};
},
{
color = 3;
glyphname = x;
lastChange = "2016-09-21 09:42:29 +0000";
layers = (
{
anchors = (
{
name = bottom;
position = "{279, 0}";
},
{
name = top;
position = "{279, 511}";
}
);
layerId = "440A02D1-6D9B-498A-89D0-C24C9D9BC992";
paths = (
{
closed = 1;
nodes = (
"584 0 LINE",
"369 261 LINE",
"279 370 LINE",
"173 507 LINE",
"-12 507 LINE",
"190 261 LINE",
"279 151 LINE",
"399 0 LINE"
);
},
{
closed = 1;
nodes = (
"279 151 LINE",
"369 261 LINE",
"571 507 LINE",
"385 507 LINE",
"279 370 LINE",
"190 261 LINE",
"-25 0 LINE",
"159 0 LINE"
);
}
);
width = 559;
},
{
anchors = (
{
name = bottom;
position = "{263, 0}";
},
{
name = top;
position = "{263, 506}";
}
);
layerId = "E86C9AF2-1279-4BB3-9660-79C369E244F4";
paths = (
{
closed = 1;
nodes = (
"502 0 LINE",
"297 258 LINE",
"263 300 LINE",
"103 501 LINE",
"35 501 LINE",
"230 258 LINE",
"263 215 LINE",
"435 0 LINE"
);
},
{
closed = 1;
nodes = (
"263 215 LINE",
"297 258 LINE",
"491 501 LINE",
"423 501 LINE",
"263 300 LINE",
"230 258 LINE",
"24 0 LINE",
"92 0 LINE"
);
}
);
width = 526;
}
);
leftKerningGroup = x;
rightKerningGroup = x;
unicode = 0078;
userData = {
com.typemytype.robofont.layerData = {
b = {
anchors = (
);
components = (
);
contours = (
);
lib = {
};
name = x;
unicodes = (
);
width = 1039;
};
};
};
},
{
color = 3;
glyphname = y;
lastChange = "2016-09-21 09:42:29 +0000";
layers = (
{
anchors = (
{
name = bottom;
position = "{437, 0}";
},
{
name = top;
position = "{276, 511}";
}
);
layerId = "440A02D1-6D9B-498A-89D0-C24C9D9BC992";
paths = (
{
closed = 1;
nodes = (
"191 -182 OFFCURVE",
"282 -134 OFFCURVE",
"344 5 CURVE SMOOTH",
"565 507 LINE",
"410 507 LINE",
"263 146 LINE",
"222 83 LINE",
"195 26 LINE SMOOTH",
"169 -30 OFFCURVE",
"129 -58 OFFCURVE",
"35 -78 CURVE",
"71 -198 LINE"
);
},
{
closed = 1;
nodes = (
"294 146 LINE",
"152 507 LINE",
"-12 507 LINE",
"226 -39 LINE"
);
}
);
width = 552;
},
{
anchors = (
{
name = bottom;
position = "{388, 0}";
},
{
name = top;
position = "{262, 506}";
}
);
layerId = "E86C9AF2-1279-4BB3-9660-79C369E244F4";
paths = (
{
closed = 1;
nodes = (
"160 -178 OFFCURVE",
"230 -139 OFFCURVE",
"281 -24 CURVE SMOOTH",
"504 501 LINE",
"449 501 LINE",
"252 28 LINE",
"242 16 LINE",
"226 -23 LINE SMOOTH",
"191 -102 OFFCURVE",
"148 -132 OFFCURVE",
"55 -154 CURVE",
"66 -197 LINE"
);
},
{
closed = 1;
nodes = (
"273 28 LINE",
"78 501 LINE",
"20 501 LINE",
"242 -22 LINE"
);
}
);
width = 523;
}
);
leftKerningGroup = v;
leftMetricsKey = v;
rightKerningGroup = v;
rightMetricsKey = v;
unicode = 0079;
userData = {
com.typemytype.robofont.layerData = {
b = {
anchors = (
);
components = (
);
contours = (
{
points = (
{
segmentType = line;
smooth = 0;
x = 502;
y = 10;
},
{
segmentType = line;
smooth = 0;
x = 585;
y = 181;
},
{
segmentType = line;
smooth = 1;
x = 241;
y = 931;
},
{
smooth = 0;
x = 225;
y = 966;
},
{
smooth = 0;
x = 201;
y = 984;
},
{
segmentType = curve;
smooth = 1;
x = 171;
y = 984;
},
{
smooth = 0;
x = 117;
y = 984;
},
{
smooth = 0;
x = 64;
y = 936;
},
{
segmentType = curve;
smooth = 0;
x = 91;
y = 887;
}
);
},
{
points = (
{
segmentType = curve;
smooth = 1;
x = 365;
y = "-388";
},
{
smooth = 0;
x = 396;
y = "-388";
},
{
smooth = 0;
x = 424;
y = "-373";
},
{
segmentType = curve;
smooth = 1;
x = 442;
y = "-334";
},
{
segmentType = line;
smooth = 1;
x = 1009;
y = 888;
},
{
smooth = 0;
x = 1013;
y = 898;
},
{
smooth = 0;
x = 1016;
y = 908;
},
{
segmentType = curve;
smooth = 1;
x = 1016;
y = 918;
},
{
smooth = 0;
x = 1018;
y = 962;
},
{
smooth = 0;
x = 978;
y = 990;
},
{
segmentType = curve;
smooth = 1;
x = 938;
y = 990;
},
{
smooth = 0;
x = 910;
y = 990;
},
{
smooth = 0;
x = 883;
y = 977;
},
{
segmentType = curve;
smooth = 0;
x = 866;
y = 941;
},
{
segmentType = line;
smooth = 1;
x = 299;
y = "-286";
},
{
smooth = 0;
x = 272;
y = "-344";
},
{
smooth = 0;
x = 316;
y = "-388";
}
);
}
);
lib = {
};
name = y;
unicodes = (
);
width = 1029;
};
};
};
},
{
color = 3;
glyphname = z;
lastChange = "2016-09-21 09:42:29 +0000";
layers = (
{
anchors = (
{
name = bottom;
position = "{263, 0}";
},
{
name = top;
position = "{274, 511}";
}
);
layerId = "440A02D1-6D9B-498A-89D0-C24C9D9BC992";
paths = (
{
closed = 1;
nodes = (
"497 0 LINE",
"497 117 LINE",
"197 117 LINE",
"202 84 LINE",
"487 402 LINE",
"487 507 LINE",
"51 507 LINE",
"51 390 LINE",
"336 390 LINE",
"328 423 LINE",
"48 110 LINE",
"48 0 LINE"
);
}
);
width = 531;
},
{
anchors = (
{
name = bottom;
position = "{256, 0}";
},
{
name = top;
position = "{260, 506}";
}
);
layerId = "E86C9AF2-1279-4BB3-9660-79C369E244F4";
paths = (
{
closed = 1;
nodes = (
"467 0 LINE",
"467 45 LINE",
"80 45 LINE",
"94 11 LINE",
"456 459 LINE",
"456 501 LINE",
"64 501 LINE",
"64 456 LINE",
"432 456 LINE",
"417 490 LINE",
"51 37 LINE",
"51 0 LINE"
);
}
);
width = 514;
}
);
leftKerningGroup = z;
rightKerningGroup = z;
unicode = 007A;
},
{
color = 3;
glyphname = fi;
lastChange = "2016-09-21 09:42:29 +0000";
layers = (
{
layerId = "440A02D1-6D9B-498A-89D0-C24C9D9BC992";
paths = (
{
closed = 1;
nodes = (
"442 603 LINE",
"612 603 LINE",
"612 752 LINE",
"442 752 LINE"
);
},
{
closed = 1;
nodes = (
"4 507 LINE",
"4 390 LINE",
"448 390 LINE",
"448 0 LINE",
"606 0 LINE",
"606 507 LINE"
);
},
{
closed = 1;
nodes = (
"257 0 LINE",
"257 525 LINE SMOOTH",
"257 605 OFFCURVE",
"272 618 OFFCURVE",
"355 618 CURVE SMOOTH",
"379 618 LINE",
"379 731 LINE",
"338 731 LINE SMOOTH",
"162 731 OFFCURVE",
"100 681 OFFCURVE",
"100 538 CURVE SMOOTH",
"100 0 LINE"
);
}
);
width = 665;
},
{
layerId = "E86C9AF2-1279-4BB3-9660-79C369E244F4";
paths = (
{
closed = 1;
nodes = (
"391 635 LINE",
"467 635 LINE",
"467 710 LINE",
"391 710 LINE"
);
},
{
closed = 1;
nodes = (
"8 501 LINE",
"8 456 LINE",
"402 456 LINE",
"402 0 LINE",
"456 0 LINE",
"456 501 LINE"
);
},
{
closed = 1;
nodes = (
"161 0 LINE",
"161 554 LINE SMOOTH",
"161 665 OFFCURVE",
"183 686 OFFCURVE",
"287 686 CURVE SMOOTH",
"312 686 LINE",
"312 731 LINE",
"284 731 LINE SMOOTH",
"152 731 OFFCURVE",
"107 682 OFFCURVE",
"107 570 CURVE SMOOTH",
"107 0 LINE"
);
}
);
width = 540;
}
);
leftKerningGroup = f;
leftMetricsKey = f;
rightKerningGroup = i;
unicode = FB01;
},
{
glyphname = ordfeminine;
lastChange = "2016-09-21 09:42:29 +0000";
layers = (
{
layerId = "440A02D1-6D9B-498A-89D0-C24C9D9BC992";
paths = (
{
closed = 1;
nodes = (
"162 414 OFFCURVE",
"196 436 OFFCURVE",
"210 477 CURVE",
"208 487 LINE",
"208 419 LINE",
"329 419 LINE",
"329 590 LINE SMOOTH",
"329 688 OFFCURVE",
"280 733 OFFCURVE",
"177 733 CURVE SMOOTH",
"124 733 OFFCURVE",
"74 723 OFFCURVE",
"39 707 CURVE",
"63 618 LINE",
"94 632 OFFCURVE",
"129 640 OFFCURVE",
"160 640 CURVE SMOOTH",
"194 640 OFFCURVE",
"206 632 OFFCURVE",
"206 612 CURVE SMOOTH",
"206 538 LINE SMOOTH",
"206 510 OFFCURVE",
"185 497 OFFCURVE",
"161 497 CURVE SMOOTH",
"142 497 OFFCURVE",
"131 506 OFFCURVE",
"131 519 CURVE SMOOTH",
"131 533 OFFCURVE",
"143 544 OFFCURVE",
"177 544 CURVE SMOOTH",
"219 544 LINE",
"219 601 LINE",
"182 601 LINE SMOOTH",
"58 601 OFFCURVE",
"16 571 OFFCURVE",
"16 513 CURVE SMOOTH",
"16 464 OFFCURVE",
"59 414 OFFCURVE",
"122 414 CURVE SMOOTH"
);
}
);
width = 351;
},
{
layerId = "E86C9AF2-1279-4BB3-9660-79C369E244F4";
paths = (
{
closed = 1;
nodes = (
"192 422 OFFCURVE",
"230 449 OFFCURVE",
"243 493 CURVE",
"235 500 LINE",
"235 428 LINE",
"285 428 LINE",
"285 615 LINE SMOOTH",
"285 700 OFFCURVE",
"242 733 OFFCURVE",
"170 733 CURVE SMOOTH",
"126 733 OFFCURVE",
"80 718 OFFCURVE",
"50 696 CURVE",
"67 659 LINE",
"95 678 OFFCURVE",
"131 692 OFFCURVE",
"169 692 CURVE SMOOTH",
"212 692 OFFCURVE",
"235 673 OFFCURVE",
"235 621 CURVE SMOOTH",
"235 552 LINE SMOOTH",
"235 497 OFFCURVE",
"196 463 OFFCURVE",
"151 463 CURVE SMOOTH",
"114 463 OFFCURVE",
"89 488 OFFCURVE",
"89 518 CURVE SMOOTH",
"89 553 OFFCURVE",
"108 569 OFFCURVE",
"224 569 CURVE SMOOTH",
"242 569 LINE",
"242 601 LINE",
"221 601 LINE SMOOTH",
"82 601 OFFCURVE",
"36 580 OFFCURVE",
"36 512 CURVE SMOOTH",
"36 464 OFFCURVE",
"81 422 OFFCURVE",
"144 422 CURVE SMOOTH"
);
}
);
width = 338;
}
);
leftKerningGroup = ord;
rightKerningGroup = ord;
unicode = 00AA;
},
